<?xml version="1.0" encoding="UTF-8"?>
<svg xmlns="http://www.w3.org/2000/svg" version="1.1" viewBox="0 0 2304 1296">
  <!-- Generator: Adobe Illustrator 29.7.1, SVG Export Plug-In . SVG Version: 2.1.1 Build 8)  -->
  <defs>
    <style>
      .st0, .st1 {
        stroke-miterlimit: 10;
      }

      .st0, .st1, .st2, .st3 {
        fill: none;
      }

      .st0, .st3 {
        stroke: red;
      }

      .st1 {
        stroke: blue;
      }

      .st2 {
        stroke: #000;
      }

      .st2, .st3 {
        stroke-linecap: round;
        stroke-linejoin: round;
      }
    </style>
  </defs>
  <g id="Brazil">
    <g>
      <g id="tucan">
        <path class="st0" d="M237.9,169.8c-.11-1.23,0-.29-.25-1.74-.47-2.75-1.8-3.75-2.41-6.63-1.83-8.54-2.08-17.53-10.3-22.99-1.54-1.02-4.34-1.67-4.62-3.79-.44-3.32.42-7.84-2.82-10.07-1.75-1.2-2.46-.54-3.87-.96-.29-.09-.83-.81-1.25-1.07-3.54-2.24-11.15-3.22-15.16-2.2-2.56.65-5.69,2.72-5.7,5.61,1.08.4,2.3.11,3.44.23,1.69.17,3.71,1.05,5.3,1.68,3,1.2,5.93,3.34,9.19,3.3.61,1.73.47,3.79.27,5.62-.11.97-.34,2.99-.63,3.84-.24.71-1.11,1.35-1.27,2.13-1.09,5.29,4.65,10.32,8.19,13.38l-.79.64-.09.11c-.16.19-.18.44-.1.68.06.2-.16.56-.46,1.03,0,0,0,.01,0,.02,0,.03,0,.06,0,.09.05.12.08.24.08.36,0,.12-.02.24-.08.34-.01.04-.04.08-.06.12.04.15.08.3.12.45.05.14.1.27.14.39.05.17.04.34,0,.5.18.4.3.95.53,1.18.87.9,1.48.03,1.26-.99,1.37.32,2.79,1.46,4.2,1.45.41,0,.74-.19,1.2-.16.49.04,5.22,1.37,5.43,1.56.48.43.2,2.22.26,2.96.18,2.22-1.35,1.43-.86,2.89"/>
        <path class="st1" d="M223.87,138.14c.03.35.03.17-.17.14-.27-.03-1.53-.75-2.6-.88-3.86-.48-5.85,1.36-4.62,5.34,1.56,5.07,11.95,12.13,16.07,15.97.3.28.53.87.89,1.08.44.26,1.33.19,1.54.47l2.5,10.53c-.06,1.37-1.22,1.48-1.5,1.92-.56.88.21,5.05-2.18,1.93l-.99.85c-.35-1.03-1.05.01-1.67-.33-1.69-.95-2.36-6.16-2.45-7.94s.33-5.01-.03-6.59c-.27-1.21-2.41-1.88-3.18-2.72l1.89-.43c-.03-3.65-3.63-.72-5.16-.94-1.08-.16-4.73-2.97-5.69-3.81-3.33-2.94-7.26-7.29-6.43-12.08,1.94.5,4.03-.3,5.45-1.61,4.27-3.93,2.12-11.03-.99-15.03,3.57-.35,4.54,3.23,5.01,6.56.22,1.58-.3,3.28.36,4.81.59,1.37,2.65,2.2,3.94,2.78Z"/>
        <path class="st1" d="M234.6,159.59c-1.53-.55-2.57-1.95-3.75-2.96-1.96-1.67-4-3.28-5.91-5.01-2.44-2.21-8.1-7.22-8.22-10.59-.19-5.37,7.18-2.57,9.64-.86,5.23,3.65,8.5,13.21,8.24,19.4Z"/>
        <path class="st1" d="M192.73,124.52c.59-2.01,2.6-3.24,4.52-3.8,3.63-1.07,8.66-.42,12.22.76.96.32,4.17,1.46,4.18,2.6,0,.28-1.28,4.16-1.5,4.18-3.54-1.23-6.87-3.08-10.62-3.68-2.94-.47-5.87-.54-8.81-.05Z"/>
        <path class="st1" d="M210.11,139.88c-.27-.44.62-3.88.69-4.72.13-1.64-.33-3.15-.09-4.74,1.74-1.6,4.02-.18,5.73-1.6,2.25,4.66.03,12.45-6.33,11.07Z"/>
        <path class="st1" d="M211.88,128.81c.35.38-1.22,1.07-1.46,1.13-1.81.44-3.34-.23-4.98-.86-3.54-1.38-6.82-3.71-10.74-3.93.31-.33.92-.33,1.34-.35,1.81-.05,5.11.3,6.89.7,3.12.69,5.93,2.34,8.95,3.31Z"/>
        <path class="st1" d="M219.21,155.66c-1.84.38-3.04-.77-4.3-1.88-3.39-2.97-6.88-7.05-6.08-11.9.26-.04.23.3.31.49,1.19,2.98,1.03,4.09,3.2,6.83,2.17,2.74,4.08,3.82,6.57,5.95.19.16.37.17.3.51Z"/>
        <path class="st1" d="M226.78,156.4l-.11.55-1.6.51.1,1.08c-.29.23-1.86-1.13-3.05-.1-.86.74-.6,1.79-.7,2.7-.03.25-.11.53-.36.26-.63-3.49,2.61-5.26,5.73-5.01Z"/>
        <path class="st1" d="M219.93,156.55c-1.37-.37-1.22.66-1.45.87-.21.18-.98-.34-1.76.65s-.62,1.95-.63,3.13c-1.44-3.09-.43-5.43,3.23-5.02.27.03.55.04.62.36Z"/>
        <path class="st1" d="M214.92,125.77l-1.03.22c-.44.72-.24,1.9.75,1.75.73-.11.56-.92,1.17-.9.55,2.15-1.14,2.28-2.86,2.15-.07-.63.89-4.29,1.34-4.29l.63,1.07Z"/>
      </g>
      <circle class="st0" cx="232.28" cy="195.93" r="20.27"/>
      <path class="st0" d="M236.59,176.09"/>
      <path class="st0" d="M237.9,169.8c11.94,2.58,20.88,13.2,20.88,25.91,0,14.64-11.87,26.5-26.5,26.5s-26.5-11.87-26.5-26.5c0-12.97,8.7-23.64,21-25.93"/>
    </g>
    <g id="tucan1" data-name="tucan">
      <path class="st0" d="M334.16,163.59c-.11-1.23,0-.29-.25-1.74-.47-2.75-1.8-3.75-2.41-6.63-1.83-8.54-2.08-17.53-10.3-22.99-1.54-1.02-4.34-1.67-4.62-3.79-.44-3.32.42-7.84-2.82-10.07-1.75-1.2-2.46-.54-3.87-.96-.29-.09-.83-.81-1.25-1.07-3.54-2.24-11.15-3.22-15.16-2.2-2.56.65-5.69,2.72-5.7,5.61,1.08.4,2.3.11,3.44.23,1.69.17,3.71,1.05,5.3,1.68,3,1.2,5.93,3.34,9.19,3.3.61,1.73.47,3.79.27,5.62-.11.97-.34,2.99-.63,3.84-.24.71-1.11,1.35-1.27,2.13-1.09,5.29,4.65,10.32,8.19,13.38l-.79.64-.09.11c-.16.19-.18.44-.1.68.06.2-.16.56-.46,1.03,0,0,0,.01,0,.02,0,.03,0,.06,0,.09.05.12.08.24.08.36,0,.12-.02.24-.08.34-.01.04-.04.08-.06.12.04.15.08.3.12.45.05.14.1.27.14.39.05.17.04.34,0,.5.18.4.3.95.53,1.18.87.9,1.48.03,1.26-.99,1.37.32,2.79,1.46,4.2,1.45.41,0,.74-.19,1.2-.16.49.04,5.22,1.37,5.43,1.56.48.43.2,2.22.26,2.96.18,2.22-1.35,1.43-.86,2.89"/>
    </g>
    <circle class="st0" cx="328.54" cy="189.72" r="20.27"/>
    <path class="st0" d="M332.85,169.87"/>
    <path class="st0" d="M334.16,163.59c11.94,2.58,20.88,13.2,20.88,25.91,0,14.64-11.87,26.5-26.5,26.5s-26.5-11.87-26.5-26.5c0-12.97,8.7-23.64,21-25.93"/>
  </g>
  <g id="uk">
    <path class="st3" d="M246.34,95.87c-.52.04-.86.44-1.27.68-.74.45-1.47.95-2.01,1.66-.02.03-.04.12-.05.15"/>
    <path class="st3" d="M246.73,98.53"/>
    <path class="st3" d="M246.33,95.96c-.05.43.23.45.26.87.05.6.19,1.15.09,1.65"/>
    <path class="st3" d="M249.05,97.76c-.26.45-.94.89-1.42.9-.3,0-.65-.1-.95-.17"/>
    <path class="st3" d="M243.01,98.35c-.13-.16-.42-.14-.61-.14-.44,0-.89-.03-1.33-.03-1.24,0-2.44-.3-3.63-.59-1.07-.26-2.12-.54-3.19-.79-1.03-.24-2.07-.41-3.13-.38-2.05.05-3.98.48-5.54,1.95-.16.15-.31.29-.44.46"/>
    <path class="st3" d="M229.52,98.88c-.02-.08-.15-.17-.22-.22-.5-.36-1.14-.41-1.74-.41-.68,0-1.79.3-2.41.59"/>
    <path class="st2" d="M229.52,98.88"/>
    <path class="st2" d="M242.86,98.59"/>
  </g>
</svg>