<?xml version="1.0" encoding="UTF-8"?>
<svg xmlns="http://www.w3.org/2000/svg" version="1.1" viewBox="0 0 2304 1296">
  <!-- Generator: Adobe Illustrator 29.7.1, SVG Export Plug-In . SVG Version: 2.1.1 Build 8)  -->
  <defs>
    <style>
      .st0, .st1, .st2, .st3, .st4, .st5, .st6, .st7, .st8, .st9 {
        fill: none;
      }

      .st0, .st1, .st2, .st5, .st7, .st9 {
        stroke: #000;
      }

      .st0, .st2, .st3, .st4, .st10, .st11, .st9 {
        stroke-miterlimit: 10;
      }

      .st12, .st1, .st5, .st6, .st7, .st8 {
        stroke-linecap: round;
        stroke-linejoin: round;
      }

      .st12, .st4, .st6, .st10, .st11 {
        stroke: blue;
      }

      .st1, .st2 {
        stroke-width: .09px;
      }

      .st3, .st8 {
        stroke: red;
      }

      .st11 {
        fill: #fff;
      }

      .st7, .st9 {
        stroke-width: .07px;
      }
    </style>
  </defs>
  <g id="Brazil">
    <g>
      <g id="tucan">
        <path class="st3" d="M99.38,202.97c-.11-1.23,0-.29-.25-1.74-.47-2.75-1.8-3.75-2.41-6.63-1.83-8.54-2.08-17.53-10.3-22.99-1.54-1.02-4.34-1.67-4.62-3.79-.44-3.32.42-7.84-2.82-10.07-1.75-1.2-2.46-.54-3.87-.96-.29-.09-.83-.81-1.25-1.07-3.54-2.24-11.15-3.22-15.16-2.2-2.56.65-5.69,2.72-5.7,5.61,1.08.4,2.3.11,3.44.23,1.69.17,3.71,1.05,5.3,1.68,3,1.2,5.93,3.34,9.19,3.3.61,1.73.47,3.79.27,5.62-.11.97-.34,2.99-.63,3.84-.24.71-1.11,1.35-1.27,2.13-1.09,5.29,4.65,10.32,8.19,13.38l-.79.64-.09.11c-.16.19-.18.44-.1.68.06.2-.16.56-.46,1.03,0,0,0,.01,0,.02,0,.03,0,.06,0,.09.05.12.08.24.08.36,0,.12-.02.24-.08.34-.01.04-.04.08-.06.12.04.15.08.3.12.45.05.14.1.27.14.39.05.17.04.34,0,.5.18.4.3.95.53,1.18.87.9,1.48.03,1.26-.99,1.37.32,2.79,1.46,4.2,1.45.41,0,.74-.19,1.2-.16.49.04,5.22,1.37,5.43,1.56.48.43.2,2.22.26,2.96.18,2.22-1.35,1.43-.86,2.89"/>
        <path class="st4" d="M85.36,171.31c.03.35.03.17-.17.14-.27-.03-1.53-.75-2.6-.88-3.86-.48-5.85,1.36-4.62,5.34,1.56,5.07,11.95,12.13,16.07,15.97.3.28.53.87.89,1.08.44.26,1.33.19,1.54.47l2.5,10.53c-.06,1.37-1.22,1.48-1.5,1.92-.56.88.21,5.05-2.18,1.93l-.99.85c-.35-1.03-1.05.01-1.67-.33-1.69-.95-2.36-6.16-2.45-7.94s.33-5.01-.03-6.59c-.27-1.21-2.41-1.88-3.18-2.72l1.89-.43c-.03-3.65-3.63-.72-5.16-.94-1.08-.16-4.73-2.97-5.69-3.81-3.33-2.94-7.26-7.29-6.43-12.08,1.94.5,4.03-.3,5.45-1.61,4.27-3.93,2.12-11.03-.99-15.03,3.57-.35,4.54,3.23,5.01,6.56.22,1.58-.3,3.28.36,4.81.59,1.37,2.65,2.2,3.94,2.78Z"/>
        <path class="st4" d="M96.08,192.77c-1.53-.55-2.57-1.95-3.75-2.96-1.96-1.67-4-3.28-5.91-5.01-2.44-2.21-8.1-7.22-8.22-10.59-.19-5.37,7.18-2.57,9.64-.86,5.23,3.65,8.5,13.21,8.24,19.4Z"/>
        <path class="st4" d="M54.21,157.69c.59-2.01,2.6-3.24,4.52-3.8,3.63-1.07,8.66-.42,12.22.76.96.32,4.17,1.46,4.18,2.6,0,.28-1.28,4.16-1.5,4.18-3.54-1.23-6.87-3.08-10.62-3.68-2.94-.47-5.87-.54-8.81-.05Z"/>
        <path class="st4" d="M71.59,173.05c-.27-.44.62-3.88.69-4.72.13-1.64-.33-3.15-.09-4.74,1.74-1.6,4.02-.18,5.73-1.6,2.25,4.66.03,12.45-6.33,11.07Z"/>
        <path class="st4" d="M73.36,161.99c.35.38-1.22,1.07-1.46,1.13-1.81.44-3.34-.23-4.98-.86-3.54-1.38-6.82-3.71-10.74-3.93.31-.33.92-.33,1.34-.35,1.81-.05,5.11.3,6.89.7,3.12.69,5.93,2.34,8.95,3.31Z"/>
        <path class="st4" d="M80.69,188.83c-1.84.38-3.04-.77-4.3-1.88-3.39-2.97-6.88-7.05-6.08-11.9.26-.04.23.3.31.49,1.19,2.98,1.03,4.09,3.2,6.83,2.17,2.74,4.08,3.82,6.57,5.95.19.16.37.17.3.51Z"/>
        <path class="st4" d="M88.26,189.58l-.11.55-1.6.51.1,1.08c-.29.23-1.86-1.13-3.05-.1-.86.74-.6,1.79-.7,2.7-.03.25-.11.53-.36.26-.63-3.49,2.61-5.26,5.73-5.01Z"/>
        <path class="st4" d="M81.41,189.72c-1.37-.37-1.22.66-1.45.87-.21.18-.98-.34-1.76.65s-.62,1.95-.63,3.13c-1.44-3.09-.43-5.43,3.23-5.02.27.03.55.04.62.36Z"/>
        <path class="st4" d="M76.4,158.94l-1.03.22c-.44.72-.24,1.9.75,1.75.73-.11.56-.92,1.17-.9.55,2.15-1.14,2.28-2.86,2.15-.07-.63.89-4.29,1.34-4.29l.63,1.07Z"/>
      </g>
      <circle class="st3" cx="93.76" cy="229.1" r="20.27"/>
      <path class="st3" d="M98.07,209.26"/>
      <path class="st3" d="M99.38,202.97c11.94,2.58,20.88,13.2,20.88,25.91,0,14.64-11.87,26.5-26.5,26.5s-26.5-11.87-26.5-26.5c0-12.97,8.7-23.64,21-25.93"/>
    </g>
  </g>
  <g id="uk">
    <circle class="st8" cx="234.05" cy="190.06" r="25.21"/>
    <path class="st8" d="M246.34,95.87c-.52.04-.86.44-1.27.68-.74.45-1.47.95-2.01,1.66-.02.03-.04.12-.05.15"/>
    <path class="st8" d="M246.73,98.53"/>
    <path class="st8" d="M246.33,95.96c-.05.43.23.45.26.87.05.6.19,1.15.09,1.65"/>
    <path class="st8" d="M249.05,97.76c-.26.45-.94.89-1.42.9-.3,0-.65-.1-.95-.17"/>
    <path class="st8" d="M187.98,140.51c1.86.64,1.02,7.18,1.11,9.32.08,1.9.18,3.48-1,4.95-1,1.23-2.29,2.08-3.68,2.8-.42.22-.84.4-1.27.59-.82.35-1.51.81-1.62,1.8,0,.06-.08.11-.15.05"/>
    <path class="st5" d="M188.15,140.09"/>
    <path class="st8" d="M222.68,121.14c-.42.81-.91,1.59-1.51,2.31-.83,1-1.79,1.83-2.97,2.39-2.56,1.21-5.22,2.14-7.96,2.88-2.72.73-5.49,1.27-8.24,1.84-2.25.47-4.49.91-6.63,1.78-.95.39-1.86.84-2.71,1.39"/>
    <path class="st5" d="M222.67,121.35"/>
    <path class="st6" d="M242.28,100.09c-1.05.02-2.06.25-3.07.51-2.14.54-4.07,1.57-5.95,2.7-1.25.75-2.26,1.79-3.23,2.87-2.09,2.34-3.43,5.09-4.61,7.95-.61,1.48-1.12,2.99-1.66,4.5-.25.69-.77,1.87-1.08,2.53"/>
    <path class="st8" d="M187.98,140.51c-.21-.02-.38.02-.56.17-1.66,1.49-2.57,3.39-3.09,5.52-.42,1.73-.65,3.5-1.28,5.18-.72,1.94-1.67,3.77-3.01,5.36-1.11,1.32-2.41,2.38-4,3.06-.83.36-1.7.58-2.6.68-2.54.26-4.75-.51-6.59-2.24-1.12-1.05-6.48-5.63-6.67-7.18-.08-.62-.29-2.88-.48-3.48-.95-3.03-.38-6.23,1.86-6.47"/>
    <path class="st8" d="M192.8,133.48c-.69-1.16-1.7-1.81-3.04-2.06-1.25-.23-2.35.13-3.43.67-1.28.63-2.39,1.51-3.52,2.37-1.68,1.28-3.43,2.44-5.42,3.18-.89.33-.93.48-1.51.74-2.57,1.19-5.98,3.32-6.58,4.05-1.64,1.99-6.58.76-6.73-.41-.13-.97-1.39.03-1.03-.89"/>
    <path class="st6" d="M214.06,146.82c-.85.04-1.7.03-2.55.09-1.07.07-2.12.32-3.15.6"/>
    <path class="st8" d="M235.44,143.64c-.72.42-1.55.71-2.36.99-1.68.58-3.4.99-5.13,1.29-1.26.22-2.53.38-3.81.47-1.14.08-2.27.19-3.42.22-.84.02-1.68.04-2.51.09-1.39.09-2.77.06-4.16.12"/>
    <path class="st6" d="M242,138.06c-.19.02-.31.16-.4.31-.93,1.62-2.34,2.75-3.83,3.81-.75.53-1.55,1.01-2.34,1.47"/>
    <path class="st8" d="M242,114.71c.77.44,1.62.72,2.5.96,1.03.27,2.11.38,3.11.76.77.29,1.43.76,2.05,1.3.86.76,1.42,1.72,2,2.68.3.49.76.64,1.27.42.17-.07.47-.23.6-.44"/>
    <path class="st6" d="M240.58,106.12c-1.88,1.99-1.92,5.08-.25,7.17.49.61,1.05,1.06,1.67,1.42"/>
    <path class="st8" d="M195.36,158.65c-1.14.47-2.33.8-3.52,1.09-1.37.34-2.59.99-3.7,1.86-2.17,1.69-3.55,3.97-4.76,6.38-.9,1.78-2.09,4-2.95,5.8-.01.02-.02.56-.02.59"/>
    <path class="st6" d="M206.93,148.17c-.79,1.4-1.73,2.7-2.77,3.92-.62.73-1.27,1.45-1.98,2.1-1.85,1.71-3.89,3.13-6.18,4.19-.21.1-.42.19-.63.27"/>
    <path class="st8" d="M222.68,121.14c-.84.67-2.53,1.42-3.57,1.65-1.54.34-3.09.22-4.61-.19-1.28-.35-2.34-1.1-3.4-1.86-.95-.67-1.91-1.32-2.97-1.8-1.01-.45-2.04-.73-3.16-.48-.53.12-1,.36-1.47.63"/>
    <path class="st2" d="M184.93,136.04c-1.39.29-2.59.96-3.7,1.82-1.97,1.52-3.39,3.54-4.86,5.5-1.29,1.71-2.97,2.9-5.07,3.38-1.31.3-2.61.18-3.74-.68"/>
    <path class="st8" d="M243.01,98.35c-.13-.16-.42-.14-.61-.14-.44,0-.89-.03-1.33-.03-1.24,0-2.44-.3-3.63-.59-1.07-.26-2.12-.54-3.19-.79-1.03-.24-2.07-.41-3.13-.38-2.05.05-3.98.48-5.54,1.95-.16.15-.31.29-.44.46"/>
    <path class="st8" d="M214.01,146.92c0,.54.08,1.07.09,1.61.02.91-.15,1.78-.45,2.61-.43,1.19-1.12,2.24-2.04,3.12-.85.81-1.88,1.36-2.98,1.76-1.35.49-2.75.84-4.15,1.18-1,.24-2.01.39-3.03.5-.09,0-.31.07-.44.17"/>
    <path class="st6" d="M242.99,132.3c-.57.2-1.11.45-1.67.67-.06.03-.11.08-.19.09-.14.02-.29.2-.43.05-.1-.12,0-.28.02-.43.12-.66.13-1.33.08-2-.09-1.48-.45-2.88-1.26-4.15-.71-1.11-1.61-1.98-2.87-2.44-.91-.33-1.78-.29-2.67.05"/>
    <path class="st8" d="M249.12,140.91c.25-.55.4-1.15.5-1.78.22-1.4.85-2.63,1.55-3.84.38-.65.62-1.33.66-2.1.05-.9-.46-1.77-1.49-2.04-.86-.22-1.72-.19-2.59-.04-1.48.27-2.94.63-4.38,1.05-.13.04-.26.08-.39.13"/>
    <path class="st6" d="M244.92,144.88c1.03-.68,1.35-.77,2.38-1.83.51-.52,1.54-1.53,1.82-2.14"/>
    <path class="st8" d="M242,114.71c-.45.52-1.07,1.34-1.41,1.95-.51.92-.79,1.92-.85,2.96-.12,1.97.34,3.85.96,5.71.5,1.5,1.14,2.94,1.73,4.39.29.71.46,1.44.48,2.21,0,.1.06.18.08.28"/>
    <path class="st8" d="M242.07,152.96c1.23.45,2.47.42,3.44-.36.82-.65,1.49-1.46,2.19-2.24,1.17-1.3,2.32-2.62,3.74-3.67.63-.47,1.13-1.08,1.17-1.95.03-.71-.12-1.31-.54-1.9-.59-.83-1.6-1.52-2.74-1.91-.05-.02-.1,0-.16,0"/>
    <path class="st2" d="M182.84,143.51c-.61.34-.83.94-1.01,1.54-.23.77-.3,1.58-.44,2.37-.14.88-.32,1.75-.52,2.61-.23,1.03-.57,2-1.11,2.91-.97,1.6-2.38,2.59-4.16,3.1-.57.16-1.14.31-1.73.31"/>
    <path class="st8" d="M249.73,102.65c.06.41.37.69.57,1.03.63,1.1,1.02,2.27,1.3,3.49.45,1.94.98,3.85,2.01,5.58.54.9,1.19,1.73,2,2.42.45.39.88.82.88,1.5,0,.13.11.27.18.4"/>
    <path class="st8" d="M241.74,137.36c.98-.57,1.97-1.11,2.99-1.59.42-.2,1.55-.68,1.98-.85"/>
    <path class="st6" d="M232.77,134.94c-.05.73.09,1.44.18,2.16.11.94.23,1.88.47,2.8.13.53.36.96.95,1.09.37.08.7-.05,1.02-.17,1.43-.55,2.73-1.37,4.06-2.12.77-.43,1.54-.88,2.3-1.32"/>
    <path class="st2" d="M224.29,112.76c-.63,1.27-1.41,2.46-2.33,3.54-1.18,1.38-2.54,2.53-4.25,3.16-1.95.72-3.87.6-5.66-.54"/>
    <path class="st8" d="M202.53,169.89c-.35.17-.58.25-.94.38-.09.03-.98.07-1.09.06"/>
    <path class="st8" d="M201.01,157.86c-.73.39-.75,1.51-.56,2.24.35,1.4,1.11,2.57,1.97,3.7.64.84,1.34,1.64,1.93,2.52"/>
    <path class="st8" d="M216.2,113.4c.02.24-.1.43-.25.58-1.32,1.25-2.84,2.09-4.65,2.39-.8.13-1.59.1-2.39.05-1.2-.07-2.4-.03-3.53.42-.85.34-1.47,1.39-1.87,2.25"/>
    <path class="st8" d="M181.48,160.08c.08.99,0,1.97-.17,2.93-.27,1.58-.78,3.08-1.52,4.51-1.02,1.97-2.45,3.58-4.22,4.89-.08.06-.3.33-.33.43"/>
    <path class="st2" d="M177.55,147.67c-.17.88-.66,1.61-1.21,2.27-.96,1.16-2.18,1.99-3.62,2.45-1.09.35-2.2.42-3.34.23-.74-.13-1.44-.33-2.06-.77-.26-.19-.49-.4-.68-.65"/>
    <path class="st8" d="M221.25,106.48c-.07.5-.5.72-.82.99-1.24,1-2.62,1.77-4.17,2.21-1.38.39-2.78.53-4.2.34-.66-.09-1.32-.24-1.94-.52-.09-.04-.54-.26-.62-.29"/>
    <path class="st8" d="M181.67,178.39c-.84-.01-2.18.17-3.02.2-.14,0-.28.08-.4.18-.23.18-.48.17-.7-.02-.15-.13-.31-.18-.5-.21-.65-.1-1.23-.35-1.7-.83-.86-.88-.49-2.07.04-2.66.25-.27.54-.51.8-.77.28-.27.44-.83.3-1.05-.17-.29-.58-.41-1.05-.3-.02,0-.18-.08-.2-.08"/>
    <path class="st2" d="M163.15,144.06c-.32-.18-.41-.18-.63.06-.36.39-.36.88-.29,1.36.31,2.03,1.7,3.32,3.59,3.78,1.62.4,3.23.33,4.82-.17.32-.1.62-.22.8-.53"/>
    <path class="st2" d="M232.22,103.85c-.16-.12-.35-.13-.54-.13-.46-.01-.91-.04-1.37-.03-2.29.04-4.44.58-6.35,1.87-.99.67-1.76,1.57-2.28,2.67"/>
    <path class="st8" d="M229.53,98.88c-.37.38-.9.43-1.35.62-1.56.66-2.98,1.53-4.3,2.59-1.45,1.16-2.97,2.34-3.88,3.95-.16.29-.07.11-.27.45"/>
    <path class="st8" d="M195.39,158.75c.56,1.6,1.44,3,2.5,4.3.58.72,1.24,1.39,1.73,2.17.53.84.25,1.71-.63,2.05-.34.13-.59.3-.78.02"/>
    <path class="st0" d="M216.2,113.36c.07-.02.11-.09.15-.12.49-.43.96-.88,1.3-1.45"/>
    <path class="st8" d="M209.5,109.21c.18.92.41,1.82.94,2.61.71,1.07,1.73,1.62,2.97,1.8.65.1,1.29,0,1.92-.15.26-.06.51-.21.79-.13.03,0,.06,0,.08,0"/>
    <path class="st8" d="M241.04,150.4c-.38-.21-.95-.42-1.36-.54-.65-.18-1.21.04-1.69.43-1.19.96-1.65,2.26-1.58,3.75.02.38.19.61.35.98"/>
    <path class="st2" d="M227.44,106.66c-.59-.06-1.16.04-1.73.18-1.81.44-3.24,1.41-4.19,3.02-.21.36-.42.73-.47,1.16"/>
    <path class="st8" d="M200.51,170.33c-.12,1.26-.8,2.34-1.77,3.08-.76.58-1.64.92-2.58,1.11-.31.06-.8-.13-1.11-.06"/>
    <path class="st8" d="M196.68,168.54c-1.09.08-1.5.92-1.84,1.76-.54,1.32-.53,2.89.21,4.17"/>
    <path class="st8" d="M238.98,145.09c-.09.72.04,1.65.41,2.34"/>
    <path class="st6" d="M243.77,142.06c-.32-.26-.72-.31-1.09-.42-1.37-.42-2.17.42-2.89,1.37-.47.61-.73,1.34-.81,2.07"/>
    <path class="st2" d="M163.85,149.95c.25,1.17.95,2.05,1.84,2.8.78.66,1.69,1.08,2.63,1.44.21.08.44.1.66.14"/>
    <path class="st5" d="M244.85,140.08c-.12.04-.22.11-.32.2"/>
    <path class="st8" d="M246.71,134.92c.02.25.27.58.53.66.52.16.62.37.48.91-.28,1.07-.7,2.09-1.38,2.98-.27.36-.64.57-1.11.56-.14,0-.27.01-.39.05"/>
    <path class="st8" d="M247.84,145.23c.06.12.12.24.17.36.13.25.17.55-.05.77-1.01.97-2.01,1.95-3.35,2.46-.54.21-1.05.25-1.62,0-.05-.06.11.08,0,0"/>
    <path class="st2" d="M166.42,144.77c.32,1.16,1,2.06,2,2.72.75.5,1.58.79,2.48.81.04,0,.09-.01.12,0,.62.39,1.15,0,1.69-.19,1.23-.45,2.17-1.34,3.16-2.14"/>
    <path class="st6" d="M249.73,102.61c-.25.04-.56-.14-.81-.26-.22-.1-.4-.28-.62-.4"/>
    <path class="st8" d="M249.06,97.74c1.1.82,1.38,1.42,1.68,2.71.09.37.13.78.01,1.22-.14.55-.54.77-.96.92-.02,0-.05.01-.07.02"/>
    <path class="st8" d="M247.84,145.23c-.72-.14-2.09-.23-2.81-.35-.17-.03-.26.09-.36.19-.62.59-1.3,1.07-2.11,1.35-.74.26-1.49.46-2.25.64-.33.08-.64.17-.91.37"/>
    <path class="st8" d="M237.57,154.81c-.14.06-.7.15-.82.22"/>
    <path class="st8" d="M242.07,152.96s-.3.17-.33.21c-.44.52-.56.81-1.16,1.04"/>
    <path class="st8" d="M256.77,117.07c-.29.07-.29.32-.33.54-.09.57-.21,1.14-.44,1.67-.43.97-1.37,1.25-2.3,1.11-.05,0-.1,0-.16,0"/>
    <path class="st7" d="M245.33,97.28c-.67.42-.9,1.08-.99,1.81-.08.62.06,1.23.03,1.84-.01.3-.07.58-.18.86"/>
    <path class="st9" d="M191.44,134.42c-.33-.46-.7-.89-1.27-1.05-.79-.21-1.57-.13-2.32.2-.18.08-.39.08-.52.26"/>
    <path class="st2" d="M231.86,99.65c.98-.29,1.98-.33,2.98-.22,1.09.11,2.1.49,3.03,1.09.13.09.14.22.22.33"/>
    <path class="st8" d="M229.52,98.88c-.02-.08-.15-.17-.22-.22-.5-.36-1.14-.41-1.74-.41-.68,0-1.79.3-2.41.59"/>
    <path class="st5" d="M229.52,98.88"/>
    <path class="st0" d="M232.68,98.49c-.81.03-1.61.15-2.4.33-.23.05-.54.11-.75.05"/>
    <path class="st8" d="M235.5,143.71c.54,1.25,1.66,1.33,2.78,1.36.21,0,.42-.04.63.03"/>
    <path class="st6" d="M243.01,98.35c-.62.99-.93,2.47,0,3.33.04.04.09.07.15.08"/>
    <path class="st5" d="M242.86,98.59"/>
    <path class="st8" d="M180.41,174.36c.59.58.86,1.64,1.06,2.42.1.4.12,1.2.19,1.61"/>
    <path class="st8" d="M241.79,137.42c.23.23.24.57.4.84.39.67,1,1,1.7,1.21.37.11.73.2.96.54"/>
    <path class="st5" d="M246.69,98.52c-.19.92-.48,2.01-1.19,2.72"/>
    <path class="st8" d="M221.25,106.45s-.08,0-.12,0c-.22-.09-.42-.02-.63.05-.25.08-.52.11-.78-.01"/>
    <path class="st0" d="M223.66,104.36c-.61.4-1.04,1-1.57,1.49-.21.2-.46.35-.69.52-.04.03-.1.07-.16.08"/>
    <path class="st6" d="M247.08,103.6c-.02-.16.15-.19.21-.3.32-.55-.02-1.02-.18-1.49-.15-.47-.53-.79-1.02-.93"/>
    <path class="st8" d="M242.98,148.84c-.28.3-.43.73-.67,1.07-.32.45-.82.51-1.27.5"/>
    <path class="st2" d="M255.53,116.68c-.41.19-.56.45-.49.93.04.29.11.57.13.87"/>
    <path class="st12" d="M249.52,108.56c-.21.09-.41.25-.67.14-.42-.18-.69-.76-.51-1.19.1-.25.71-.41,1.01-.12.28.27.48.6.25,1.02-.05.09-.1.19.07.22"/>
    <path class="st6" d="M244.41,140.28s.04,0,.04,0c.13.37-.01,1.44-.68,1.78"/>
    <path class="st7" d="M247.31,107.91c.33.58.41.62,1.05.46"/>
    <path class="st6" d="M248.05,101.12c-.03.11.04.19.07.27.26.62-.15,1.01-.47,1.44-.05.06-.1.03-.16.03"/>
    <path class="st8" d="M196.68,168.54c.2.04.42-.02.63.03.13.04.58-.48.75-.51"/>
    <path class="st7" d="M248.34,107.47c-.3-.19-.59-.3-.94-.11-.14.08-.34.1-.46-.08"/>
    <path class="st8" d="M198.21,167.29c-.12.25-.21.48-.14.78"/>
    <line class="st8" x1="202.53" y1="169.89" x2="208.74" y2="171.89"/>
    <line class="st8" x1="204.35" y1="166.32" x2="210.33" y2="169.14"/>
    <line class="st8" x1="240.62" y1="154.01" x2="239.67" y2="159.21"/>
    <line class="st8" x1="236.55" y1="154.59" x2="234.6" y2="158.64"/>
    <path class="st8" d="M210.33,169.14c5.95-6.65,14.65-10.66,24.07-10.42"/>
    <path class="st8" d="M239.67,159.21c16.5,2.47,27.27,17.33,25.45,34.06-1.87,17.16-17.3,29.55-34.45,27.68-17.16-1.87-29.55-17.3-27.68-34.45.63-5.79,2.49-10.27,5.75-14.61"/>
  </g>
  <g id="berkeley">
    <circle class="st8" cx="300.61" cy="226.43" r="25.52"/>
    <path class="st8" d="M316.23,198.7c9.67,5.46,16.21,15.83,16.21,27.73,0,17.57-14.25,31.82-31.82,31.82s-31.82-14.25-31.82-31.82c0-12.19,6.86-22.79,16.93-28.13"/>
    <path class="st8" d="M293.09,195.8c2.5-.66,4.64-1.07,7.35-1.07s5.57.38,8.18,1.1"/>
    <path class="st8" d="M315.5,198.38"/>
    <path class="st8" d="M309.12,196.11"/>
    <path class="st8" d="M293.89,195.8"/>
    <path class="st8" d="M287.43,197.81"/>
    <g>
      <path class="st8" d="M329.77,162.93c-.64-2.38-.58-4.79-.32-7.21.21-1.9-.06-3.73-.76-5.48-1.78-4.44-4.48-8.34-7.57-11.92-2.05-2.38-4.74-4.02-7.81-4.97-1.58-.49-3.09-1.22-4.67-1.7-2.12-.64-4.29-.6-6.47-.4-.88.08-1.75.1-2.62.06-1.18-.05-2.27.2-3.36.65-1.52.63-3.07,1.19-4.74,1.25-.06,0-.11.1-.16.16"/>
      <path class="st8" d="M265.36,127.63c-.33-.46-.74-.73-1.3-.94-.7-.26-1.29-.79-1.82-1.35-.71-.75-1.52-1.36-2.45-1.81-.49-.24-.94-.27-1.48-.1-1,.32-2.68,2.95-2.54,3.87.02.13-.06.32.01.4.94,1.06.87,2.5,1.44,3.71.36.76.75,1.47,1.26,2.11.62.77.58,1.01-.39,1.68.99,1.29-.38,2.52-.17,3.85.45.06.93.1.47.71-.36.48-.76.98-.26,1.64.17.23-.15.51-.08.81.06.26-.02.56.42.49.84-.14.62.42.48.81-.27.75-.54,1.49-.32,2.3"/>
      <path class="st8" d="M285.46,131.66c.31-.76.48-1.59.53-2.48.07-1.44-.29-2.93-1.18-4.17-.8-1.11-2.62-1.58-3.69-.42-1.28,1.4-2.98,2.16-4.66,2.95-.08.04-.04.16-.25.11-1.21-.27-2.4.05-3.6.19-.9.1-1.83-.11-2.69-.39-1.38-.44-3.18-.42-4.55.18"/>
      <path class="st6" d="M282.52,134.84c1.44-.75,2.41-1.82,2.95-3.11"/>
      <path class="st8" d="M262.04,150.24c-.02,1.75.53,3.86,1.08,5.48.64,1.9.62,3.87.54,5.82-.09,2.22-.17,4.42.6,6.55.12.33.26,1.49.65,1.72"/>
      <path class="st8" d="M329.77,162.93c-.47,1.11-.95,2.51-1.14,3.69-.12.76.15,1.5.35,2.2.53,1.86.38,3.71.22,5.58-.18,2.01-.23,3.99,1.22,5.66.05.06-.2,1.17-.34,1.25"/>
      <path class="st8" d="M284.07,192.08c-1.83.67-3.73.51-5.5-.4"/>
      <path class="st8" d="M283.34,183.97c.51.71,1.14,1.35,1.02,2.38-.03.26.4.58.52.9.39,1.03.42,2.09.29,3.15"/>
      <path class="st6" d="M294.75,187.09c.25-.04.47-.12.63-.25.59-.47.59-1.07.41-1.72-.19-.68-.55-1.26-.99-1.8"/>
      <path class="st8" d="M283.42,177.34c.7-.35,1.1.05,1.48.57.68.92,1.26,1.98,2.22,2.6,2.14,1.36,3.14,3.74,4.98,5.35.46.4.94.77,1.47,1.06.32.18.77.23,1.17.17"/>
      <path class="st8" d="M330.08,181.3c.17.42.56.11.86.31.14.26-.15.49-.04.81.38,1.13.76,2.25,1.23,3.36.81,1.91.01,3.27-1.94,3.51-.72.09-1.39.26-2.07.62-.8.43-1.73.8-2.68.28"/>
      <path class="st8" d="M309.13,189.47c-1.36.16-2.76,0-4.1.39-.25.08-.33-.21-.49-.32"/>
      <path class="st8" d="M312.33,183.15c-.3.82-.52,1.6-.39,2.37.17.93.11,1.69-.14,2.28"/>
      <path class="st8" d="M297.99,173.9c.28.46-.13.86-.1,1.31.08,1.41.74,2.52,1.66,3.52.55.6,1.07,1.23,1.64,1.79,1.1,1.07,1.76,2.67,1.79,4.19"/>
      <path class="st1" d="M286.61,166.12c.32.56.21,1.11-.08,1.64-.76,1.37-1.54,2.72-2.14,4.17-.54,1.33-.87,2.67-.49,4.1.04.16-.07.29-.16.41"/>
      <path class="st1" d="M303.32,151.05c1.08.94,2.14,1.89,3.04,3.02.88,1.12,1.32,2.38,1.29,3.77-.02,1.03.22,2.02.26,3.03"/>
      <path class="st8" d="M313.06,173.33c.4.71.66,1.5.46,2.29-.18.67-.52,1.32-.8,1.97-.72,1.66-1.12,3.31-.49,5.09.05.13-.12.35.1.49"/>
      <path class="st5" d="M295.9,180.7c-.06.42-.29.75-.36,1.14"/>
      <path class="st8" d="M297.96,173.79c-.34.21-.69.4-1.04.58-.16.09-.33.2-.47.28-1.03.65-1.24,1.6-1.02,2.76.21,1.08.61,2.13.46,3.28"/>
      <path class="st1" d="M299.22,172.67c-.34.48-.79.82-1.26,1.12"/>
      <path class="st1" d="M316.91,146.3c.51.92.63,1.93.65,2.95.03,1.07.08,2.13.16,3.19.02.32.27.57.18.9"/>
      <path class="st1" d="M276.78,149.58s-.06-.05-.08-.08c-.01-.02,0-.05,0-.08-.65.55-1.39.63-2.21.51-.8-.11-1.53.15-2.22.63-.82.58-1.6,1.29-2.69,1.32"/>
      <path class="st6" d="M272.36,147.12c-.4.17-.64.52-.72.9-.33,1.52-1.43,2.01-2.8,2.11-.57.04-1.14.06-1.72-.06-.49-.1-.7-.35-.65-.83"/>
      <path class="st8" d="M292.02,133.85c-1.05-.24-1.88-.89-2.82-1.33-1.19-.55-2.4-.87-3.73-.8"/>
      <path class="st6" d="M281.37,125.17c-.8.38-.85,1.23-1.23,1.88-.25.44-.36.98-1.06,1.02-.23.01-.66.2-.59.71.05.34-.3.51-.56.65-.22.11-.36.24-.32.5"/>
      <path class="st6" d="M263.19,128.94c-2.19.99-3.16,2.85-3.6,5.08"/>
      <path class="st1" d="M264.17,152.36c-.27,1.26.35,2.33.75,3.43.22.61.59,1.16.72,1.81"/>
      <path class="st6" d="M267.94,147.77c.3,0,.55-.16.82-.24.69-.2.88-.66.82-1.32-.05-.6,0-1.2-.41-1.72-.57-.74-1.2-1.22-2.22-1-.55.12-1.14,0-1.72.03-1.28.07-1.99.94-1.89,2.21.07.95.36,1.75,1.32,2.12.3.12.42.32.59.57.35.52.89.76,1.54.67"/>
      <path class="st1" d="M280.22,141.22c.67.76.75,1.64.4,2.53-.31.78-.44,1.62-.81,2.38"/>
      <path class="st8" d="M268.1,174.55c.26.25.33.56.43.9.45,1.6,1.68,2.72,2.9,3.74"/>
      <path class="st1" d="M315.77,158.75c0,.79-.4,1.47-.76,2.12-.41.74-.58,1.49-.55,2.31"/>
      <path class="st1" d="M275.84,186.33c.24-.31.3-.47.29-.88"/>
      <path class="st8" d="M273.47,189.66c.48-.54,1-1.01,1.84-1.12,1.07-.14,1.11-1.52.25-2.27"/>
      <path class="st6" d="M272.89,192.18c-.1-.11-.16-.33-.19-.68-.05-.5.03-.97.39-1.4.13-.15.25-.3.38-.44"/>
      <path class="st8" d="M274.17,191.61c-.13.1-.29.18-.42.29-.44.35-.74.39-.9.22"/>
      <path class="st6" d="M276.13,189.38c-1.48.05-2.22.88-1.96,2.24"/>
      <path class="st8" d="M319.37,180.7c.29.6.27,1.26.31,1.88.04.68.32,1.14.88,1.51.1-.29.32-.29.54-.29.29.23.35.61.46.91.11.3.19.79-.14,1.04-.5.38-.95.81-1.42,1.2-.77.63-1,1.41-1.17,2.26-.15.74.47.99,1.3.74"/>
      <path class="st1" d="M285.14,138.93c.73.82.96,1.9,1.37,2.87.2.46.54.83.7,1.31-.74.08-1.35-.07-1.74-.74"/>
      <path class="st8" d="M319.73,183.2c-.34-.82-1.08-1.23-1.51-2.01-.3-.55-.5-1.18-1.23-1.36-.34-.08-.56-.6-.81-.77"/>
      <path class="st1" d="M283.83,134.26c.71.5.97,1.29,1.21,2.05.22.71.62,1.2,1.25,1.55"/>
      <path class="st1" d="M269.91,167.92c.12,1.75.84,3.12,2.46,3.93"/>
      <path class="st1" d="M313.39,164.89c-1.01,1.03-1.11,2.42-.25,3.36"/>
      <path class="st8" d="M271.36,179.19c.17.51.67.88,1.08,1.26.92.86,1.68,1.89,2.79,2.53.37.21.29.52.33.83.11.82-.25,1.64,0,2.46"/>
      <path class="st1" d="M271.3,178.32c-.03.05.08.12.07.16-.03.27,0,.5.06.71"/>
      <path class="st8" d="M273.35,189.62c-.05-.1-.23-.15-.24-.15-.73.24-1.45,1.51-1.32,2.28.12.68.55.54.99.41"/>
      <path class="st1" d="M266.14,155.15c.73.97,1.17,2.04,1.15,3.28"/>
      <path class="st1" d="M312.41,168c-.05,1.15-.25,2.26-.87,3.32.78.1.92-.45,1.11-.94"/>
      <path class="st6" d="M278.57,191.69c.14-.05.26-.15.34-.34"/>
      <path class="st8" d="M276.21,191.39c.06.49.18.76.45,1.06.35-.5.88-.65,1.44-.69.17-.01.34-.02.48-.07"/>
      <path class="st6" d="M280.06,187.41c.05.35-.17.64-.42.72-.77.25-1.31.86-2.04,1.17-.95.4-1.47,1.26-1.4,2.09"/>
      <path class="st1" d="M293.65,179.06c.04.82-.15,1.67.25,2.46.1.19.13.45.41.49"/>
      <path class="st1" d="M307.09,161.53c.14.99.13,1.97-.08,2.95"/>
      <path class="st8" d="M321.18,190.52c.07.72.46.87,1.15.6.23-.09.43-.42.68-.42"/>
      <path class="st6" d="M323.46,186.92c-.91.64-1.71,1.38-2.14,2.45-.15.38-.19.76-.15,1.15"/>
      <path class="st1" d="M272.53,170.54c.15,1.33,1.13,1.98,2.16,2.62-.36-.79-.76-1.54-1.18-2.29"/>
      <path class="st1" d="M274.49,165.63c0,1.01.08,1.99.82,2.78"/>
      <path class="st1" d="M268.43,161.86c.12.66.09,1.36.42,1.96.17.32.34.68.73.82"/>
      <path class="st6" d="M323.01,190.7c-.19-.9.2-2.02.95-2.46.15-.09.29-.15.32-.34"/>
      <path class="st8" d="M325.43,190.2c-.37.15-.68.89-.89,1.16-.45.56-.95.54-1.32-.09-.1-.17-.17-.36-.21-.56"/>
      <path class="st6" d="M259.1,126.15c.82.69,1.86.98,2.78,1.47"/>
      <path class="st1" d="M310.69,174.14c.25.91.4,1.84.33,2.78"/>
      <path class="st6" d="M296.78,187.11c-.24-.3-.56-.56-.83-.85"/>
      <path class="st8" d="M294.8,187.17c.06.6.49.9.99.96.49.05.97-.15,1.17-.75-.05-.09-.11-.18-.18-.26"/>
      <path class="st1" d="M304.38,169.15c-.6,1.08-1.24,2.12-2.46,2.62-.32.13-.58.39-.99.25-.44-.15-.49.52-.9.48"/>
      <path class="st1" d="M277.44,157.93c-.34.93-.03,1.92-.24,2.87-.04.19.27.21.24.41"/>
      <path class="st8" d="M320.11,189.96c.13.3.35.55.65.73.12.07.32,0,.44.02"/>
      <path class="st6" d="M321.74,188.23c-.24-.12-.19-.5-.41-.55-.19-.05-.33-.3-.67-.05-.7.54-.89,1.42-.55,2.18"/>
      <path class="st1" d="M284.48,144.99c-.47.85-.03,1.75-.16,2.62-.39.07-.34-.46-.65-.49"/>
      <path class="st6" d="M273.18,138.36c.06.71.38,1.03,1.06,1.06.46.03,1.01-.34,1.06-.74.07-.59-.17-.99-.73-1.24-.39-.17-.56.12-.83.25-.28.13-.42.41-.65.58"/>
      <path class="st1" d="M313.15,164.07c-.73.19-.61.93-.88,1.4-.17.29-.19.66-.34.97"/>
      <path class="st6" d="M264.5,146.63c.26-.03.64.27.74-.25.05-.29-.04-.55-.25-.73-.29-.26-.53,0-.72.17-.2.17-.4.31-.66.32"/>
      <path class="st1" d="M280.72,173.49c.74.65.96,1.52.98,2.46"/>
      <path class="st8" d="M302.99,184.71c-.6.37-.95,1-1.54,1.42-.62.43-.55,1.14-.02,1.77"/>
      <path class="st1" d="M303.65,183.64c-.06.45-.24.82-.65,1.07"/>
      <path class="st1" d="M274.82,171.36c.57.74.67,1.71,1.23,2.46"/>
      <path class="st8" d="M298.16,185.28c.5.69.4.95-.4,1.41-.27.16-.63.03-.83.31"/>
      <path class="st8" d="M264.91,169.8c.28.2.1.5.17.74.49,1.65,1.27,3.09,2.86,3.93"/>
      <path class="st1" d="M265.16,150.56c.07.78.62,1.2,1.23,1.55.22.13.49.19.64-.08.09-.16.18-.05.26-.06.04,0,.11.1.16.15"/>
      <path class="st6" d="M269.41,146.06c-.52.4-1.04.47-1.56,0-.23-.21-.51-.32-.82-.24-.17.05-.22.24-.16.4.14.36.43.54.81.58.34.04.6-.09.82-.33"/>
      <path class="st8" d="M301.59,187.87c-.03.21-.04.44,0,.69.1.63.22.71.82.41.21-.11.44-.15.66-.24"/>
      <path class="st6" d="M302.25,185.69c.14.22.5.29.38.72-.53.36-.94.82-1.04,1.45"/>
      <path class="st1" d="M281.21,150.4c-.35.74-.29,1.52-.16,2.29"/>
      <path class="st1" d="M285.55,143.84c-.02.79.44,1.5.41,2.29"/>
      <path class="st6" d="M302.74,186.35c.36.18.56.53.89.79.16-.08.34-.28.81-.35.29.04.4.74,1.09.68.38-.04.26.67.37,1.02.09.3.15.64.2.97"/>
      <path class="st1" d="M309.05,183.32c-.09.18.18.35-.06.59-.31.3-.51.72-.44,1.21.04.25-.2.13-.32.16"/>
      <path class="st6" d="M303.17,188.68c-.03-.41.1-.9.4-1.43"/>
      <path class="st8" d="M304.46,189.21c.06.26-.18.4-.33.47-.16.07-.38.05-.57-.13-.23-.23-.36-.53-.39-.87"/>
      <path class="st6" d="M305.04,187.58c-.37.48-.74.96-.58,1.64"/>
      <path class="st1" d="M286.78,137.87c-.67.36-1.36.58-2.13.41"/>
      <path class="st1" d="M263.35,148.51c-.52.26-.79-.18-1.15-.4-.3-.19-.32-.72-.81-.66"/>
      <path class="st6" d="M279.9,131.4c-.11-.77-.27-1.52-1.15-1.8"/>
      <path class="st1" d="M276.95,162.02c-.05.66.06,1.3.35,1.87.15.28-.13.33-.11.5"/>
      <path class="st1" d="M312.24,171.28c.13.68-.21,1.39.16,2.05"/>
      <path class="st6" d="M263.35,147.94c-.02.51.14.99.42,1.39.6.85,1.65,1.02,2.69.5"/>
      <path class="st1" d="M283.01,148.27c0,.66,0,1.31,0,1.97"/>
      <path class="st1" d="M314.13,160.39c-.21.61-.3,1.24-.24,1.88.03.31-.04.56-.24.83-.52.68-.49,1.45.32,2.37"/>
      <path class="st1" d="M308.23,165.63c-.04.8-.54,1.41-1.02,1.93-.34.37-.41.92-.86,1.18"/>
      <path class="st8" d="M260.63,148.35c-.01.09-.04.17-.04.25-.02.43-.52.84-.11,1.31.43-.06,1.22-.32,1.55.26"/>
      <path class="st1" d="M261.55,146.63c-.83.31-.83,1.05-.92,1.72"/>
      <path class="st8" d="M296.03,180.86c.78.26,1.33.74,1.56,1.56"/>
      <path class="st1" d="M316.99,154.98c.03.85-.35,1.67-.17,2.54.06.3.06.63-.15.9"/>
      <path class="st6" d="M298.08,185.14c-.24.08-.52.05-.82-.1"/>
      <path class="st8" d="M298.47,183.88c.13.08.27.16.43.26-.21.55-.49.89-.82,1"/>
      <path class="st6" d="M297.84,182.43c-.05-.02-.11-.04-.18,0-.34.67-.38.74.8,1.45"/>
      <path class="st8" d="M298.32,183.73c.62-.92.61-.96-.33-1.22-.05-.01-.1-.05-.15-.08"/>
      <path class="st1" d="M275.97,171.52c.26,1.31,1.16,2.06,2.29,2.63.28.14.58.27.82.48"/>
      <path class="st1" d="M313.06,172.1c.16.69-.42,1.13-.57,1.72"/>
      <path class="st1" d="M279.41,145.48c.09.48-.35,1.85-.56,1.78-.81-.28-.69.43-.91.77-.25.39.09.71.16,1.06"/>
      <path class="st6" d="M263.19,137.62c-.02.51,0,1,.49,1.31.22.14.51.29.72.15.25-.16.51-.36.36-.81-.21-.63-.08-1.3-.1-1.96"/>
      <path class="st1" d="M309.71,165.63c-.06.62-.58,1.13-.41,1.8"/>
      <path class="st1" d="M279.57,172.34c.05.62.44,1.16.41,1.8"/>
      <path class="st1" d="M306.43,163.33c-.1.72.46,1.19.66,1.8"/>
      <path class="st1" d="M268.6,159.08c.27.58.46,1.21.98,1.64"/>
      <path class="st1" d="M306.27,164.81c.21.59-.02,1.11-.25,1.64"/>
      <path class="st1" d="M278.59,172.67c.3.91,1.11,1.34,1.8,1.89.07.06.19.11.17.24"/>
      <path class="st1" d="M311.67,160.39c-.04.55.09,1.1-.08,1.64"/>
      <path class="st1" d="M277.44,172.51c.22.53.7.94.74,1.56"/>
      <path class="st8" d="M283.66,178.48c-.62.2-.59.78-.16.9.58.16.68,2.59-.16,4.59"/>
      <path class="st1" d="M305.77,183.97c-.04.29-.25.29-.49.34-.44.09-.94.12-1.15.64"/>
      <path class="st1" d="M311.67,164.64c-.07,1.11-.78,1.87-1.58,2.41-.52.35-1,.69-1.36,1.19"/>
      <path class="st1" d="M308.89,166.61c-.42.46-.78.97-1.31,1.31"/>
      <path class="st1" d="M311.51,165.63c.07.51.25.99.41,1.47"/>
      <path class="st6" d="M261.39,128.28c.46.25,1.03.3,1.39.74"/>
      <path class="st1" d="M286.37,143.19c.07.49.28.96.25,1.47"/>
      <path class="st6" d="M296.93,183.64c.4,1.03.32,1.55-.24,1.89-.22.13-.44.03-.66.08"/>
      <path class="st1" d="M316.5,158.71c-.07.45-.27.88-.25,1.35"/>
      <path class="st8" d="M276.24,191.61c-.45,0-1.08.09-1.41.39-.33.3-.49-.26-.66-.39"/>
      <path class="st1" d="M325.59,171.2c.12.46.07.96.33,1.39"/>
      <path class="st1" d="M264.83,168.25c.28.41,0,.52,0,1.21"/>
      <path class="st6" d="M264.58,137.54c-.56-.37-1.15-.05-1.72-.08"/>
      <path class="st1" d="M282.68,162.02c-.03.46.08.94-.11,1.47-.27-.38-.48-.72-.55-1.14"/>
      <path class="st8" d="M315.41,176.52c0,.44-.67.46-.56.9"/>
      <path class="st1" d="M316.91,152.36c.27.83.6,1.64.57,2.54"/>
      <path class="st1" d="M311.03,181.92c.12.14,0,.81.88,1.16"/>
      <path class="st1" d="M283.91,147.53c-.37.39-.06.82-.08,1.23"/>
      <path class="st1" d="M284.81,145.32c.31.72,1.03.85,1.64,1.15"/>
      <path class="st1" d="M274.82,181.52c-.03.39.32.75.08,1.15"/>
      <path class="st1" d="M320.84,182.66c-.16.37-.01.66-.04,1.04"/>
      <path class="st1" d="M316.09,157.27c.24.35.08.78.25,1.15"/>
      <path class="st1" d="M306.1,167.92c-.22.49-.74.68-1.06,1.07-.14.17-.29.25-.49.16-.34-.14-.03-.38-.07-.57-.03-.16.25-.28.15-.49"/>
      <path class="st6" d="M324.2,188.23c.09.43.3.8.57,1.15"/>
      <path class="st1" d="M271.54,170.21c.07.38.26.74.25,1.15"/>
      <path class="st1" d="M311.51,162.19c-.08.38-.15.76,0,1.15"/>
      <path class="st8" d="M259.74,146.6c-.27.15-.2.35.11.83.19.3.16.91.78.94"/>
      <path class="st1" d="M260.41,146.38c-.31.08-.53.14-.66.22"/>
      <path class="st1" d="M276.29,172.67c-.09.54-.19,1.08-.16,1.64"/>
      <path class="st1" d="M281.04,160.88c-.03.35.07.72-.08,1.06"/>
      <path class="st1" d="M307.33,167.68c.33.45.07.93.08,1.39"/>
      <path class="st8" d="M313.06,173.33c.78.23,1.7,3.95,1.79,4.09"/>
      <path class="st1" d="M305.37,167.43c-.27.27-.15.71-.41.98"/>
      <path class="st5" d="M317.08,179.88"/>
      <path class="st5" d="M317.4,178.89"/>
      <path class="st1" d="M265.97,170.87c-.19.3.06.71-.25.98"/>
      <path class="st1" d="M306.59,183.64c-.11.63.4,1.24.08,1.88"/>
      <path class="st1" d="M306.76,148.27c.69.47,1.15,1.15,1.64,1.8"/>
      <path class="st1" d="M326.08,172.34c-.15.44-.15.87,0,1.31"/>
      <path class="st1" d="M276.95,164.15c.35.37.53.8.49,1.31"/>
      <path class="st1" d="M279.41,159.73c.11.34.11.72.41.98"/>
      <path class="st8" d="M315.41,176.52c.55.38.69,1.89.78,2.53"/>
      <path class="st8" d="M283.28,177.35c.11.3.19.63.38.89.09.13.18.25.33.33"/>
      <path class="st1" d="M282.68,176.6c.34.17.49.45.6.75"/>
      <path class="st1" d="M277.28,148.27c-.18.31-.19.69-.41.98"/>
      <path class="st5" d="M315.11,136.8c.43.39.59,1.09,1.31,1.15"/>
      <path class="st1" d="M283.17,175.62c.18.57.83.89.82,1.56"/>
      <path class="st1" d="M316.09,155.31c0,.42.33.64.57.9"/>
      <path class="st1" d="M278.75,154.98c.1.44-.23.87,0,1.31"/>
      <path class="st7" d="M278.26,154.49c-.01.49-.02.98.33,1.39"/>
      <path class="st1" d="M307.25,160.06c.15.57.66.87.98,1.31"/>
      <path class="st1" d="M280.72,161.53c.16.47.37.91.66,1.31"/>
      <path class="st1" d="M324.94,159.57c.14.39.6.51.74.9"/>
      <path class="st1" d="M260.9,145.97c.03.3-.38.6,0,.9"/>
      <path class="st1" d="M280.06,159.9c-.04.27.09.56-.08.82"/>
      <path class="st1" d="M279.9,160.88v.82"/>
      <path class="st1" d="M329.36,179.66c.11.27.27.59.54.7"/>
      <path class="st1" d="M278.75,146.46c-.23.16-.28.41-.33.66"/>
      <path class="st1" d="M305.77,165.96c0,.25-.01.49,0,.74,0,.1.15.08.08,0s.19-.07.08-.08"/>
      <path class="st8" d="M258.65,145.81c.44.35.78.35,1.09.79"/>
      <path class="st1" d="M316.75,154.49c.26.38.77.4,1.06.74"/>
      <path class="st1" d="M273.02,162.02c0,.52-.08,1.05.33,1.47"/>
      <path class="st5" d="M321.01,184.79"/>
      <path class="st5" d="M320.6,184.14"/>
      <path class="st1" d="M282.35,149.58c.16.63.95.71,1.15,1.31"/>
      <path class="st6" d="M280.88,133.36c.25.12.46.29.65.49-.13.15-.26.31-.49.25"/>
      <path class="st6" d="M322.64,187.82l.66.66"/>
      <path class="st1" d="M300.04,171.85c-.2.42.03.89-.16,1.31"/>
      <path class="st1" d="M317.49,153.67c.26.08.27.45.57.49"/>
      <path class="st5" d="M274.98,182.99c-.03.22,0,.44,0,.66"/>
      <path class="st1" d="M307.66,149.25c-.19.16-.38-.05-.57,0"/>
      <path class="st1" d="M309.13,183.97c.18.15-.02.42.16.57"/>
      <path class="st1" d="M278.26,155.39c-.24.14-.15.37-.16.57"/>
      <path class="st1" d="M283.25,179.96c.36.32-.07.96.33,1.11"/>
      <path class="st5" d="M317.4,180.53"/>
      <path class="st5" d="M317.16,180.04"/>
      <path class="st1" d="M317.4,156.78c-.26-.02-.24-.37-.49-.41"/>
      <path class="st1" d="M302.34,170.87c.06.2-.14.37-.08.57"/>
      <path class="st1" d="M306.02,168.25c.16.37.43.71.41,1.15"/>
      <path class="st1" d="M325.27,160.55c.39-.07.69.12.98.33"/>
      <path class="st1" d="M309.54,184.3c-.07.29-.42.37-.49.66"/>
      <line class="st8" x1="284.07" y1="192.08" x2="285.72" y2="198.3"/>
      <line class="st8" x1="285.17" y1="190.4" x2="293.09" y2="195.8"/>
      <line class="st8" x1="309.13" y1="189.47" x2="308.62" y2="195.83"/>
      <line class="st8" x1="311.8" y1="187.8" x2="316.23" y2="198.7"/>
    </g>
  </g>
  <g id="spain">
    <g>
      <g>
        <path class="st3" d="M147.24,182.53c.34.11.74.07.85.09.22.05,1.46.97,1.91,1.02,1.82.22,2.96.77,3.87,2.31.17.29.42,1.07.56,1.23.49.57,3.97,2.03,4.84,2.3,2.7.87,5.43.68,7.84,2.51,1.5,1.14,2.2,2.89,2.88,4.59.17-.89.25-1.79.52-2.66,1.37-4.47,6.76-7.05,11.16-5.64,1.72.55,2.06,1.1,2.22,2.89.24,2.7-.71,4.84-1.63,7.27-.03.08-.14.08.02.22,4.33-1.27,9.62-.61,13.09,2.44,4.45,3.9,5.19,10.11,3.92,15.57l-.69,2.27c-.36-2.05-.59-4.13-1.34-6.09-.9-2.36-2.63-4.79-4.88-6.01-3.79-2.06-8.35.2-11.86,1.9l-.29,1.22.68-.42.13.11c-.79,1.43-.61,3.15-.83,4.72-.52,3.7-2.42,7.54-5.45,9.84-1.86,1.41-4.11,1.89-5.9,3.46-.52.45-.95,1.03-1.46,1.49-2.41,2.17-5.68,3.24-8.88,3.25-3.01.01-5.78-1.27-8.76-1.47l.9-.47c-.06-.2-.13-.09-.2-.1-.19-.03-.8-.12-.95-.08-.22.06-1.08.86-1.33,1.08-3.06,2.79-6.15,6.61-4.61,10.97s5.14,6.29,8.76,8.37c-7.95.06-16.47-5.02-16.18-13.86.1-3.12,1.31-5.91,2.89-8.56-2.28.09-4.66-.07-6.8-.92-1.25-.5-2.37-1.06-2.46-2.54-.28-4.59,4.32-9.59,8.99-9.19.89.08,1.76.53,2.66.52-1.31-1.3-2.39-2.73-2.96-4.51-.95-2.98.2-5.55.28-8.55.02-.79-.08-4.18-.44-4.68-.16-.22-.49-.44-.67-.67-1.61-2.03-2.59-4.28-1.29-6.72.1-.19.29-.28.33-.45,0-.02.05-.08.07-.14"/>
        <path class="st3" d="M143.7,181.11"/>
        <path class="st11" d="M153.73,232.05c1.23-.51,2.53-.95,3.52-1.87-.94.53-1.72.83-2.79.99-1.77.26-3.75.04-5.39-.68-.03-.13.13-.09.2-.11.56-.1,1.19-.11,1.68-.42-1.72-.54-3.54-1.02-4.46-2.76l1.55.47c-.85-1.2-1.66-2.46-2.19-3.83-.71-1.8-.74-3.97-1.92-5.57-.57-.78-1.46-1.49-2.07-2.26-3.09-3.91-1.59-6.37-1.31-10.66.09-1.48-.07-2.7-.11-4.14,0-.1-.09-.12.09-.2,1.5,1.06,3.27,1.71,4.8,2.73,2.73,1.83,4.88,4.35,5.85,7.53.03-.88-.28-1.9-.66-2.7-2.03-4.28-5.35-5.39-8.89-7.79-2.92-1.98-6.72-6.85-1.76-8.88,2.7-1.1,3.98-1.31,6.26-3.47,1.92-1.82,2.73-4.44,5.86-2.46,3.63,2.3,3.18,7.19,4.31,10.81.73,2.32,2,4.89,3.97,6.39.34.26.82.58,1.24.66-2.94-2.16-4.31-5.46-4.95-8.94-.18-.96-.22-1.95-.37-2.92-.07-.48-.29-1.07-.34-1.52-.01-.11-.09-.11.09-.19,1,.64,2.14,1.18,3.26,1.58,3.46,1.23,7.45.69,9.7,4.29.58.93.81,2.03,1.34,2.97,1.3,2.29,3.8,3.08,5.62,4.95.9.92,2.03,2.15,2.12,3.47.35-.55.23-1.27.19-1.87,0-.12-.13-.17.08-.26.36.68.78,1.23,1,1.97.31,1.07.08,2.15-.08,3.23.54-.55.88-1.24,1.18-1.93.04-.05.09.02.1.08.28.94-.36,3.13-.74,4.04-.53,1.27-1.29,2.6-2.37,3.47.11.11.41-.17.5-.24.92-.72,1.71-1.57,2.42-2.49.04,4.11-1.68,8.67-4.96,11.29-1.76,1.41-3.92,1.94-5.7,3.31-.84.65-1.49,1.55-2.28,2.19-3.88,3.15-9.08,3.38-13.61,1.7Z"/>
        <path class="st11" d="M174.78,201.77c.93-1.19,2.35-1.69,3.48-2.6,2.06-1.66,3.2-4.8,3.59-7.34-.15-.07-.13.14-.16.21-.78,2.08-1.91,4.89-3.7,6.29-1.16.91-2.34,1.23-3.23,2.56-.15.22-.19.45-.36.63l-3.84-2.92c.48-1.81.4-3.72,1.4-5.38,1.89-3.11,6.18-4.66,9.61-3.49.96.33,1.08.4,1.23,1.43.38,2.73-.7,5.78-1.9,8.18-1.98.69-3.83,1.65-5.51,2.92l-.61-.49Z"/>
        <path class="st11" d="M142.68,217.43c.94,1.43,1.15,3.17,1.45,4.81-.92-.03-1.83.36-2.63.79-2.03,1.1-3.57,2.37-6.07,2.36l-2.9.14c1.93.47,4.24.54,6.16-.04,2.09-.64,3.55-2.21,5.6-2.94l.29.72c-1.09.32-2.06,1.3-2.86,2.11-.46.46-1.27,1.58-1.71,1.87-.63.4-3.35.31-4.16.21-1.08-.14-4.35-.99-4.93-1.88-.23-.36.15-2.21.2-2.69.25-2.43,3.23-5.42,6.89-6.14,1.58-.31,3.05.91,4.69.7Z"/>
        <path class="st11" d="M138.16,191.32c-.54-1.82.47-3.57,1.78-4.79,2.07-1.93,5.17-3.46,7.82-1.77-1.54,1.77-3.04,3.64-5.13,4.81-1.41.79-3.05,1-4.47,1.75Z"/>
        <path class="st10" d="M141.41,193.07c.03-.19.54.16.6.2,1.25.88,1.64,2.32,1.04,3.7-.32.72-1.34,1.67-.05,2.11,1.8.61,2.35-2.02,3.08-3.07.95-1.37,2.35-2.06,3.97-2.3.68-.1,1.38,0,2.05-.26,1.07-.43,1.6-1.61.7-2.51-.37.11-.57.31-.98.39-1.26.25-3.76-.98-3.86-2.37,0-.12.04-.44.15-.52l1.11,1.06c2.03-.97,5.95.95,4.67,3.46-1.12,2.19-3.75,1.14-5.56,2.18s-1.68,2.13-2.71,3.63c-1.2,1.75-3.49,1.86-4.23-.36-.45-1.35-.21-2.72.57-3.89l-.54-1.46Z"/>
        <path class="st10" d="M145.38,220.22c-.03-.22.42-.3.59-.4.61-.39,1.16-.84,1.72-1.29-.37-.46-.89-.77-1.26-1.23-2.02-2.52-1.11-6.27,2.5-6.18-1.93.54-3.12,2.03-2.8,4.06.17,1.09.93,2.4,1.92,2.89.37-.34,1.64-1.66,1.42-2.15-.37-.84-1.51-.53-2.01.06-.25.29-.14.67-.38.93-1.31-2.2.14-4.71,2.76-3.64l-.05-.55-.61-1.96c3.49,3.45.42,8.61-3.81,9.48Z"/>
        <path class="st10" d="M161.79,202.16l2.34,1.25.16-1.18c.87-2.06,3.27-1.4,4.3.16-.83-.29-1.82-.32-2.2.65-.63,1.58,2.24.95,2.78.33-.23-2.2-2.94-3.71-4.98-2.92-.69.27-1.17.75-1.71,1.23l.57-.95c2.19-2.61,6.15-.56,6.51,2.47.09.04.16.03.25-.01.5-.23,1.01-.7,1.46-1,.08-.06.23-.23.29-.1-.54.73-1.05,1.5-1.85,1.99-1.95,1.18-5.12.94-6.79-.64-.43-.41-.73-.85-1.13-1.27Z"/>
        <path class="st10" d="M147.6,223.3c1.24-.35,2.36-1.04,3.17-2.05,1.84-2.3.72-5.43,1.96-7.94.99-2.01,3.62-3.13,5.27-1.21.06.07.23.23.1.29-1.14-1.02-3.09-.6-4.04.5-1.67,1.92-.68,4.95-1.65,7.09-.86,1.89-2.59,3.56-4.8,3.33Z"/>
        <path class="st10" d="M160.24,210.9l-.16.06c-.58-1.41-.68-2.45.45-3.61,3.14-3.21,7.5,1.43,11.51-.5.71-.34,1.21-.8,1.81-1.29-.79,1.81-2.92,2.68-4.79,2.68-2.05,0-4.06-1.49-6.21-1.14-1.86.3-3.06,1.95-2.61,3.8Z"/>
        <path class="st10" d="M164.39,217.66c-.28-1.42.62-3.08,1.77-3.89,1.41-.99,3.05-.67,4.58-1.15.93-.29,1.77-.78,2.6-1.28-.88,1.05-2.14,1.68-3.46,2-.7.17-1.42.18-2.14.42-1.91.65-2.78,2.06-3.35,3.9Z"/>
        <path class="st10" d="M154.26,224.65c-.07-.1.18-.28.25-.35,1.71-1.62,1.79-2.38,2.99-4.11s3.39-2.5,5.38-1.58c-.02.1-1.03,0-1.18.02-1.63.1-2.82.8-3.83,2.06-.68.84-1.27,2.36-2.19,2.99l-1.42.98Z"/>
      </g>
      <circle class="st3" cx="126.24" cy="163.8" r="21.83"/>
      <path class="st3" d="M136.75,190.43c-12.14,5.68-25.59.8-33.45-10.6-8.75-12.7-5.55-30.1,7.16-38.85s30.1-5.55,38.85,7.16c7.91,11.49,7.74,25.09-2.07,34.39"/>
    </g>
  </g>
</svg>