%TF.GenerationSoftware,KiCad,Pcbnew,9.0.6*%
%TF.CreationDate,2025-11-19T16:16:45-08:00*%
%TF.ProjectId,pcb_test,7063625f-7465-4737-942e-6b696361645f,rev?*%
%TF.SameCoordinates,Original*%
%TF.FileFunction,Copper,L1,Top*%
%TF.FilePolarity,Positive*%
%FSLAX46Y46*%
G04 Gerber Fmt 4.6, Leading zero omitted, Abs format (unit mm)*
G04 Created by KiCad (PCBNEW 9.0.6) date 2025-11-19 16:16:45*
%MOMM*%
%LPD*%
G01*
G04 APERTURE LIST*
%TA.AperFunction,ComponentPad*%
%ADD10R,1.800000X1.800000*%
%TD*%
%TA.AperFunction,ComponentPad*%
%ADD11C,1.800000*%
%TD*%
%TA.AperFunction,WasherPad*%
%ADD12C,3.200000*%
%TD*%
%TA.AperFunction,ComponentPad*%
%ADD13R,1.600000X2.600000*%
%TD*%
%TA.AperFunction,ComponentPad*%
%ADD14O,1.600000X2.600000*%
%TD*%
%TA.AperFunction,ComponentPad*%
%ADD15C,1.600000*%
%TD*%
%TA.AperFunction,ComponentPad*%
%ADD16R,2.000000X2.000000*%
%TD*%
%TA.AperFunction,ComponentPad*%
%ADD17C,2.000000*%
%TD*%
%TA.AperFunction,ComponentPad*%
%ADD18C,1.700000*%
%TD*%
%TA.AperFunction,ComponentPad*%
%ADD19R,1.700000X1.700000*%
%TD*%
%TA.AperFunction,Conductor*%
%ADD20C,0.406400*%
%TD*%
%TA.AperFunction,Conductor*%
%ADD21C,1.270000*%
%TD*%
G04 APERTURE END LIST*
D10*
%TO.P,LED,1*%
%TO.N,GND*%
X83725000Y-104500000D03*
D11*
%TO.P,LED,2*%
%TO.N,N/C*%
X86265000Y-104500000D03*
%TD*%
D12*
%TO.P,esp32,*%
%TO.N,*%
X92575000Y-141217500D03*
X92575000Y-158997500D03*
D13*
%TO.P,esp32,1*%
%TO.N,N/C*%
X88765000Y-140247500D03*
D14*
%TO.P,esp32,2*%
%TO.N,3.3V*%
X86225000Y-140247500D03*
%TO.P,esp32,3*%
%TO.N,N/C*%
X83685000Y-140247500D03*
%TO.P,esp32,4*%
%TO.N,GND*%
X81145000Y-140247500D03*
%TO.P,esp32,5*%
%TO.N,N/C*%
X78605000Y-140247500D03*
%TO.P,esp32,6*%
X76065000Y-140247500D03*
%TO.P,esp32,7*%
X73525000Y-140247500D03*
%TO.P,esp32,8*%
X70985000Y-140247500D03*
%TO.P,esp32,9*%
X68445000Y-140247500D03*
%TO.P,esp32,10*%
X65905000Y-140247500D03*
%TO.P,esp32,11*%
X63365000Y-140247500D03*
%TO.P,esp32,12*%
X60825000Y-140247500D03*
%TO.P,esp32,13*%
X58285000Y-140247500D03*
%TO.P,esp32,14*%
X55745000Y-140247500D03*
%TO.P,esp32,15*%
X53205000Y-140247500D03*
%TO.P,esp32,16*%
X50665000Y-140247500D03*
%TO.P,esp32,17*%
X50665000Y-159967500D03*
%TO.P,esp32,18*%
%TO.N,Net-(DISP1-clk)*%
X53205000Y-159967500D03*
%TO.P,esp32,19*%
%TO.N,Net-(D1-A)*%
X55745000Y-159967500D03*
%TO.P,esp32,20*%
%TO.N,N/C*%
X58285000Y-159967500D03*
%TO.P,esp32,21*%
X60825000Y-159967500D03*
%TO.P,esp32,22*%
X63365000Y-159967500D03*
%TO.P,esp32,23*%
X65905000Y-159967500D03*
%TO.P,esp32,24*%
X68445000Y-159967500D03*
%TO.P,esp32,25*%
X70985000Y-159967500D03*
%TO.P,esp32,26*%
X73525000Y-159967500D03*
%TO.P,esp32,27*%
X76065000Y-159967500D03*
%TO.P,esp32,28*%
X78605000Y-159967500D03*
%TD*%
D15*
%TO.P,REF\u002A\u002A,1*%
%TO.N,N/C*%
X41000000Y-116310000D03*
%TO.P,REF\u002A\u002A,2*%
X41000000Y-108690000D03*
%TD*%
D16*
%TO.P,BUZ,1*%
%TO.N,N/C*%
X92765000Y-126500000D03*
D17*
%TO.P,BUZ,2*%
%TO.N,GND*%
X85165000Y-126500000D03*
%TD*%
D18*
%TO.P,REF\u002A\u002A,8*%
%TO.N,GND*%
X54875000Y-133235000D03*
%TO.P,REF\u002A\u002A,7*%
%TO.N,3.3V*%
X57415000Y-133235000D03*
%TO.P,REF\u002A\u002A,6*%
%TO.N,N/C*%
X59955000Y-133235000D03*
%TO.P,REF\u002A\u002A,5*%
X62495000Y-133235000D03*
%TO.P,REF\u002A\u002A,4*%
%TO.N,Net-(D1-A)*%
X65035000Y-133235000D03*
%TO.P,REF\u002A\u002A,3*%
%TO.N,N/C*%
X67575000Y-133235000D03*
%TO.P,REF\u002A\u002A,2*%
%TO.N,Net-(DISP1-clk)*%
X70115000Y-133235000D03*
D19*
%TO.P,REF\u002A\u002A,1*%
%TO.N,N/C*%
X72655000Y-133235000D03*
%TD*%
D20*
%TO.N,Net-(DISP1-clk)*%
X53205000Y-158705000D02*
X53205000Y-160267500D01*
X49000000Y-154500000D02*
X53205000Y-158705000D01*
X40000000Y-152250000D02*
X42250000Y-154500000D01*
X40000000Y-128000000D02*
X40000000Y-152250000D01*
X62000000Y-124000000D02*
X44000000Y-124000000D01*
X44000000Y-124000000D02*
X40000000Y-128000000D01*
X70115000Y-132115000D02*
X62000000Y-124000000D01*
X70115000Y-133235000D02*
X70115000Y-132115000D01*
X42250000Y-154500000D02*
X49000000Y-154500000D01*
%TO.N,*%
X47313800Y-155813800D02*
X50665000Y-159165000D01*
X41488357Y-155813800D02*
X47313800Y-155813800D01*
X50665000Y-159165000D02*
X50665000Y-160267500D01*
X38500000Y-127500000D02*
X38500000Y-152825443D01*
X43500000Y-122500000D02*
X38500000Y-127500000D01*
X38500000Y-152825443D02*
X41488357Y-155813800D01*
X72500000Y-130500000D02*
X64500000Y-122500000D01*
X72500000Y-133500000D02*
X72500000Y-130500000D01*
X64500000Y-122500000D02*
X43500000Y-122500000D01*
X41000000Y-120500000D02*
X41000000Y-116310000D01*
X44750000Y-162500000D02*
X37000000Y-154750000D01*
X37000000Y-124500000D02*
X41000000Y-120500000D01*
X65905000Y-162095000D02*
X65500000Y-162500000D01*
X37000000Y-154750000D02*
X37000000Y-124500000D01*
X65905000Y-160595000D02*
X65905000Y-162095000D01*
X65500000Y-162500000D02*
X44750000Y-162500000D01*
X68445000Y-162305000D02*
X68445000Y-160267500D01*
X66750000Y-164000000D02*
X68445000Y-162305000D01*
X42500000Y-164000000D02*
X66750000Y-164000000D01*
X35500000Y-157000000D02*
X42500000Y-164000000D01*
X35500000Y-110000000D02*
X35500000Y-157000000D01*
X39000000Y-106500000D02*
X35500000Y-110000000D01*
X78250000Y-99250000D02*
X74000000Y-103500000D01*
X62000000Y-103500000D02*
X59000000Y-106500000D01*
X89500000Y-123235000D02*
X89500000Y-102000000D01*
X89500000Y-102000000D02*
X86750000Y-99250000D01*
X74000000Y-103500000D02*
X62000000Y-103500000D01*
X92765000Y-126500000D02*
X89500000Y-123235000D01*
X86750000Y-99250000D02*
X78250000Y-99250000D01*
X59000000Y-106500000D02*
X39000000Y-106500000D01*
D21*
%TO.N,GND*%
X84025000Y-108775000D02*
X83725000Y-108775000D01*
X85250000Y-110000000D02*
X84025000Y-108775000D01*
X85165000Y-110085000D02*
X85250000Y-110000000D01*
X85165000Y-126500000D02*
X85165000Y-110085000D01*
X83725000Y-108775000D02*
X83725000Y-104500000D01*
D20*
%TO.N,Net-(D1-A)*%
X65035000Y-132035000D02*
X65035000Y-133235000D01*
X58500000Y-125500000D02*
X65035000Y-132035000D01*
X44500000Y-125500000D02*
X58500000Y-125500000D01*
X41250000Y-151750000D02*
X41250000Y-128750000D01*
X50750000Y-153250000D02*
X42750000Y-153250000D01*
X42750000Y-153250000D02*
X41250000Y-151750000D01*
X55745000Y-158245000D02*
X50750000Y-153250000D01*
X41250000Y-128750000D02*
X44500000Y-125500000D01*
X55745000Y-160267500D02*
X55745000Y-158245000D01*
%TO.N,*%
X86265000Y-102015000D02*
X86265000Y-104500000D01*
X86235600Y-101985600D02*
X86265000Y-102015000D01*
X86235600Y-101235600D02*
X86235600Y-101985600D01*
X81250000Y-100750000D02*
X85750000Y-100750000D01*
X80750000Y-106000000D02*
X80750000Y-101250000D01*
X80750000Y-101250000D02*
X81250000Y-100750000D01*
X79750000Y-107000000D02*
X80750000Y-106000000D01*
X85750000Y-100750000D02*
X86235600Y-101235600D01*
X61810000Y-108690000D02*
X63500000Y-107000000D01*
X63500000Y-107000000D02*
X79750000Y-107000000D01*
X41000000Y-108690000D02*
X61810000Y-108690000D01*
X86265000Y-104500000D02*
X86500000Y-104265000D01*
D21*
%TO.N,GND*%
X80971000Y-136500000D02*
X82000000Y-135471000D01*
X82000000Y-135471000D02*
X82000000Y-129665000D01*
X81145000Y-136674000D02*
X81145000Y-139947500D01*
X54875000Y-133235000D02*
X54875000Y-135125000D01*
X82000000Y-129665000D02*
X85165000Y-126500000D01*
X54875000Y-135125000D02*
X56250000Y-136500000D01*
X56250000Y-136500000D02*
X80971000Y-136500000D01*
X80971000Y-136500000D02*
X81145000Y-136674000D01*
D20*
%TO.N,Net-(D1-A)*%
X65035000Y-133465000D02*
X65000000Y-133500000D01*
D21*
%TO.N,3.3V*%
X48500000Y-130000000D02*
X56500000Y-130000000D01*
X83900152Y-144000000D02*
X46000000Y-144000000D01*
X56500000Y-130000000D02*
X57415000Y-130915000D01*
X46000000Y-144000000D02*
X44000000Y-142000000D01*
X44000000Y-142000000D02*
X44000000Y-134500000D01*
X44000000Y-134500000D02*
X48500000Y-130000000D01*
X86225000Y-141675152D02*
X83900152Y-144000000D01*
X57415000Y-130915000D02*
X57415000Y-133184000D01*
X86225000Y-139947500D02*
X86225000Y-141675152D01*
%TD*%
%TA.AperFunction,Conductor*%
%TO.N,GND*%
G36*
X81395000Y-142024106D02*
G01*
X81449421Y-142015488D01*
X81644031Y-141952254D01*
X81826349Y-141859359D01*
X81991891Y-141739085D01*
X82132135Y-141598841D01*
X82193458Y-141565356D01*
X82263150Y-141570340D01*
X82319084Y-141612211D01*
X82320135Y-141613637D01*
X82454437Y-141798488D01*
X82454441Y-141798493D01*
X82634006Y-141978058D01*
X82634011Y-141978062D01*
X82778367Y-142082942D01*
X82839446Y-142127318D01*
X82983620Y-142200778D01*
X83065703Y-142242602D01*
X83065705Y-142242602D01*
X83065708Y-142242604D01*
X83180896Y-142280031D01*
X83272418Y-142309769D01*
X83330093Y-142349207D01*
X83357291Y-142413566D01*
X83345376Y-142482412D01*
X83298132Y-142533888D01*
X83234099Y-142551700D01*
X79055901Y-142551700D01*
X78988862Y-142532015D01*
X78943107Y-142479211D01*
X78933163Y-142410053D01*
X78962188Y-142346497D01*
X79017582Y-142309769D01*
X79094138Y-142284894D01*
X79224292Y-142242604D01*
X79450554Y-142127318D01*
X79655995Y-141978057D01*
X79835557Y-141798495D01*
X79835559Y-141798491D01*
X79835562Y-141798489D01*
X79969864Y-141613637D01*
X80025193Y-141570971D01*
X80094807Y-141564992D01*
X80156602Y-141597597D01*
X80157863Y-141598841D01*
X80298104Y-141739082D01*
X80463650Y-141859359D01*
X80645968Y-141952254D01*
X80840578Y-142015488D01*
X80895000Y-142024107D01*
X80895000Y-140380512D01*
X80952007Y-140413425D01*
X81079174Y-140447500D01*
X81210826Y-140447500D01*
X81337993Y-140413425D01*
X81395000Y-140380512D01*
X81395000Y-142024106D01*
G37*
%TD.AperFunction*%
%TA.AperFunction,Conductor*%
G36*
X96693491Y-97019685D02*
G01*
X96739246Y-97072489D01*
X96750450Y-97123546D01*
X96973179Y-158151086D01*
X96999499Y-165362726D01*
X96999500Y-165363179D01*
X96999500Y-165376488D01*
X96979815Y-165443527D01*
X96927011Y-165489282D01*
X96875988Y-165500487D01*
X33627254Y-165749499D01*
X33626766Y-165749500D01*
X33624454Y-165749500D01*
X33557415Y-165729815D01*
X33511660Y-165677011D01*
X33500455Y-165625049D01*
X33531455Y-157100118D01*
X34483499Y-157100118D01*
X34522562Y-157296496D01*
X34522564Y-157296502D01*
X34588395Y-157455433D01*
X34599190Y-157481493D01*
X34621204Y-157514439D01*
X34710434Y-157647983D01*
X41852016Y-164789565D01*
X41852019Y-164789567D01*
X42018507Y-164900810D01*
X42203498Y-164977436D01*
X42203502Y-164977436D01*
X42203503Y-164977437D01*
X42399881Y-165016500D01*
X42399884Y-165016500D01*
X66850118Y-165016500D01*
X66982238Y-164990218D01*
X67046502Y-164977436D01*
X67231493Y-164900810D01*
X67397981Y-164789567D01*
X69234567Y-162952981D01*
X69345810Y-162786493D01*
X69422436Y-162601502D01*
X69461500Y-162405116D01*
X69461500Y-162204884D01*
X69461500Y-161783914D01*
X69470144Y-161754473D01*
X69476668Y-161724487D01*
X69480422Y-161719471D01*
X69481185Y-161716875D01*
X69497819Y-161696233D01*
X69627319Y-161566733D01*
X69688642Y-161533248D01*
X69758334Y-161538232D01*
X69802681Y-161566733D01*
X69934006Y-161698058D01*
X69934011Y-161698062D01*
X70113199Y-161828248D01*
X70139446Y-161847318D01*
X70282623Y-161920270D01*
X70365703Y-161962602D01*
X70365705Y-161962602D01*
X70365708Y-161962604D01*
X70495161Y-162004666D01*
X70607217Y-162041076D01*
X70858026Y-162080800D01*
X70858031Y-162080800D01*
X71111974Y-162080800D01*
X71362782Y-162041076D01*
X71604292Y-161962604D01*
X71830554Y-161847318D01*
X72035995Y-161698057D01*
X72167319Y-161566733D01*
X72228642Y-161533248D01*
X72298334Y-161538232D01*
X72342681Y-161566733D01*
X72474006Y-161698058D01*
X72474011Y-161698062D01*
X72653199Y-161828248D01*
X72679446Y-161847318D01*
X72822623Y-161920270D01*
X72905703Y-161962602D01*
X72905705Y-161962602D01*
X72905708Y-161962604D01*
X73035161Y-162004666D01*
X73147217Y-162041076D01*
X73398026Y-162080800D01*
X73398031Y-162080800D01*
X73651974Y-162080800D01*
X73902782Y-162041076D01*
X74144292Y-161962604D01*
X74370554Y-161847318D01*
X74575995Y-161698057D01*
X74707319Y-161566733D01*
X74768642Y-161533248D01*
X74838334Y-161538232D01*
X74882681Y-161566733D01*
X75014006Y-161698058D01*
X75014011Y-161698062D01*
X75193199Y-161828248D01*
X75219446Y-161847318D01*
X75362623Y-161920270D01*
X75445703Y-161962602D01*
X75445705Y-161962602D01*
X75445708Y-161962604D01*
X75575161Y-162004666D01*
X75687217Y-162041076D01*
X75938026Y-162080800D01*
X75938031Y-162080800D01*
X76191974Y-162080800D01*
X76442782Y-162041076D01*
X76684292Y-161962604D01*
X76910554Y-161847318D01*
X77115995Y-161698057D01*
X77247319Y-161566733D01*
X77308642Y-161533248D01*
X77378334Y-161538232D01*
X77422681Y-161566733D01*
X77554006Y-161698058D01*
X77554011Y-161698062D01*
X77733199Y-161828248D01*
X77759446Y-161847318D01*
X77902623Y-161920270D01*
X77985703Y-161962602D01*
X77985705Y-161962602D01*
X77985708Y-161962604D01*
X78115161Y-162004666D01*
X78227217Y-162041076D01*
X78478026Y-162080800D01*
X78478031Y-162080800D01*
X78731974Y-162080800D01*
X78982782Y-162041076D01*
X79224292Y-161962604D01*
X79450554Y-161847318D01*
X79655995Y-161698057D01*
X79835557Y-161518495D01*
X79984818Y-161313054D01*
X80100104Y-161086792D01*
X80178576Y-160845282D01*
X80218300Y-160594474D01*
X80218300Y-159340525D01*
X80178576Y-159089717D01*
X80147021Y-158992602D01*
X80104574Y-158861965D01*
X90161700Y-158861965D01*
X90161700Y-159133034D01*
X90192045Y-159402365D01*
X90192048Y-159402379D01*
X90252363Y-159666639D01*
X90252367Y-159666651D01*
X90341889Y-159922488D01*
X90459493Y-160166695D01*
X90459495Y-160166698D01*
X90603705Y-160396208D01*
X90772706Y-160608128D01*
X90964372Y-160799794D01*
X91176292Y-160968795D01*
X91405802Y-161113005D01*
X91650015Y-161230612D01*
X91842160Y-161297846D01*
X91905848Y-161320132D01*
X91905860Y-161320136D01*
X92170120Y-161380452D01*
X92170129Y-161380453D01*
X92170134Y-161380454D01*
X92349688Y-161400684D01*
X92439466Y-161410799D01*
X92439469Y-161410800D01*
X92439472Y-161410800D01*
X92710531Y-161410800D01*
X92710532Y-161410799D01*
X92848180Y-161395290D01*
X92979865Y-161380454D01*
X92979868Y-161380453D01*
X92979880Y-161380452D01*
X93244140Y-161320136D01*
X93499985Y-161230612D01*
X93744198Y-161113005D01*
X93973708Y-160968795D01*
X94185628Y-160799794D01*
X94377294Y-160608128D01*
X94546295Y-160396208D01*
X94690505Y-160166698D01*
X94808112Y-159922485D01*
X94897636Y-159666640D01*
X94957952Y-159402380D01*
X94988300Y-159133028D01*
X94988300Y-158861972D01*
X94963454Y-158641449D01*
X94957954Y-158592634D01*
X94957953Y-158592629D01*
X94957952Y-158592620D01*
X94897636Y-158328360D01*
X94808112Y-158072515D01*
X94690505Y-157828302D01*
X94546295Y-157598792D01*
X94377294Y-157386872D01*
X94185628Y-157195206D01*
X93973708Y-157026205D01*
X93744198Y-156881995D01*
X93744195Y-156881993D01*
X93499988Y-156764389D01*
X93244151Y-156674867D01*
X93244139Y-156674863D01*
X93040195Y-156628314D01*
X92979880Y-156614548D01*
X92979877Y-156614547D01*
X92979865Y-156614545D01*
X92710534Y-156584200D01*
X92710528Y-156584200D01*
X92439472Y-156584200D01*
X92439465Y-156584200D01*
X92170134Y-156614545D01*
X92170120Y-156614548D01*
X91905860Y-156674863D01*
X91905848Y-156674867D01*
X91650011Y-156764389D01*
X91405804Y-156881993D01*
X91176293Y-157026204D01*
X90964372Y-157195205D01*
X90772705Y-157386872D01*
X90603704Y-157598793D01*
X90459493Y-157828304D01*
X90341889Y-158072511D01*
X90252367Y-158328348D01*
X90252363Y-158328360D01*
X90192048Y-158592620D01*
X90192045Y-158592634D01*
X90161700Y-158861965D01*
X80104574Y-158861965D01*
X80100104Y-158848208D01*
X80100102Y-158848205D01*
X80100102Y-158848203D01*
X80058278Y-158766120D01*
X79984818Y-158621946D01*
X79962151Y-158590747D01*
X79835562Y-158416511D01*
X79835558Y-158416506D01*
X79655993Y-158236941D01*
X79655988Y-158236937D01*
X79450557Y-158087684D01*
X79450556Y-158087683D01*
X79450554Y-158087682D01*
X79379895Y-158051679D01*
X79224296Y-157972397D01*
X78982782Y-157893923D01*
X78731974Y-157854200D01*
X78731969Y-157854200D01*
X78478031Y-157854200D01*
X78478026Y-157854200D01*
X78227217Y-157893923D01*
X77985703Y-157972397D01*
X77759442Y-158087684D01*
X77554011Y-158236937D01*
X77554006Y-158236941D01*
X77422681Y-158368267D01*
X77361358Y-158401752D01*
X77291666Y-158396768D01*
X77247319Y-158368267D01*
X77115993Y-158236941D01*
X77115988Y-158236937D01*
X76910557Y-158087684D01*
X76910556Y-158087683D01*
X76910554Y-158087682D01*
X76839895Y-158051679D01*
X76684296Y-157972397D01*
X76442782Y-157893923D01*
X76191974Y-157854200D01*
X76191969Y-157854200D01*
X75938031Y-157854200D01*
X75938026Y-157854200D01*
X75687217Y-157893923D01*
X75445703Y-157972397D01*
X75219442Y-158087684D01*
X75014011Y-158236937D01*
X75014006Y-158236941D01*
X74882681Y-158368267D01*
X74821358Y-158401752D01*
X74751666Y-158396768D01*
X74707319Y-158368267D01*
X74575993Y-158236941D01*
X74575988Y-158236937D01*
X74370557Y-158087684D01*
X74370556Y-158087683D01*
X74370554Y-158087682D01*
X74299895Y-158051679D01*
X74144296Y-157972397D01*
X73902782Y-157893923D01*
X73651974Y-157854200D01*
X73651969Y-157854200D01*
X73398031Y-157854200D01*
X73398026Y-157854200D01*
X73147217Y-157893923D01*
X72905703Y-157972397D01*
X72679442Y-158087684D01*
X72474011Y-158236937D01*
X72474006Y-158236941D01*
X72342681Y-158368267D01*
X72281358Y-158401752D01*
X72211666Y-158396768D01*
X72167319Y-158368267D01*
X72035993Y-158236941D01*
X72035988Y-158236937D01*
X71830557Y-158087684D01*
X71830556Y-158087683D01*
X71830554Y-158087682D01*
X71759895Y-158051679D01*
X71604296Y-157972397D01*
X71362782Y-157893923D01*
X71111974Y-157854200D01*
X71111969Y-157854200D01*
X70858031Y-157854200D01*
X70858026Y-157854200D01*
X70607217Y-157893923D01*
X70365703Y-157972397D01*
X70139442Y-158087684D01*
X69934011Y-158236937D01*
X69934006Y-158236941D01*
X69802681Y-158368267D01*
X69741358Y-158401752D01*
X69671666Y-158396768D01*
X69627319Y-158368267D01*
X69495993Y-158236941D01*
X69495988Y-158236937D01*
X69290557Y-158087684D01*
X69290556Y-158087683D01*
X69290554Y-158087682D01*
X69219895Y-158051679D01*
X69064296Y-157972397D01*
X68822782Y-157893923D01*
X68571974Y-157854200D01*
X68571969Y-157854200D01*
X68318031Y-157854200D01*
X68318026Y-157854200D01*
X68067217Y-157893923D01*
X67825703Y-157972397D01*
X67599442Y-158087684D01*
X67394011Y-158236937D01*
X67394006Y-158236941D01*
X67262681Y-158368267D01*
X67201358Y-158401752D01*
X67131666Y-158396768D01*
X67087319Y-158368267D01*
X66955993Y-158236941D01*
X66955988Y-158236937D01*
X66750557Y-158087684D01*
X66750556Y-158087683D01*
X66750554Y-158087682D01*
X66679895Y-158051679D01*
X66524296Y-157972397D01*
X66282782Y-157893923D01*
X66031974Y-157854200D01*
X66031969Y-157854200D01*
X65778031Y-157854200D01*
X65778026Y-157854200D01*
X65527217Y-157893923D01*
X65285703Y-157972397D01*
X65059442Y-158087684D01*
X64854011Y-158236937D01*
X64854006Y-158236941D01*
X64722681Y-158368267D01*
X64661358Y-158401752D01*
X64591666Y-158396768D01*
X64547319Y-158368267D01*
X64415993Y-158236941D01*
X64415988Y-158236937D01*
X64210557Y-158087684D01*
X64210556Y-158087683D01*
X64210554Y-158087682D01*
X64139895Y-158051679D01*
X63984296Y-157972397D01*
X63742782Y-157893923D01*
X63491974Y-157854200D01*
X63491969Y-157854200D01*
X63238031Y-157854200D01*
X63238026Y-157854200D01*
X62987217Y-157893923D01*
X62745703Y-157972397D01*
X62519442Y-158087684D01*
X62314011Y-158236937D01*
X62314006Y-158236941D01*
X62182681Y-158368267D01*
X62121358Y-158401752D01*
X62051666Y-158396768D01*
X62007319Y-158368267D01*
X61875993Y-158236941D01*
X61875988Y-158236937D01*
X61670557Y-158087684D01*
X61670556Y-158087683D01*
X61670554Y-158087682D01*
X61599895Y-158051679D01*
X61444296Y-157972397D01*
X61202782Y-157893923D01*
X60951974Y-157854200D01*
X60951969Y-157854200D01*
X60698031Y-157854200D01*
X60698026Y-157854200D01*
X60447217Y-157893923D01*
X60205703Y-157972397D01*
X59979442Y-158087684D01*
X59774011Y-158236937D01*
X59774006Y-158236941D01*
X59642681Y-158368267D01*
X59581358Y-158401752D01*
X59511666Y-158396768D01*
X59467319Y-158368267D01*
X59335993Y-158236941D01*
X59335988Y-158236937D01*
X59130557Y-158087684D01*
X59130556Y-158087683D01*
X59130554Y-158087682D01*
X59059895Y-158051679D01*
X58904296Y-157972397D01*
X58662782Y-157893923D01*
X58411974Y-157854200D01*
X58411969Y-157854200D01*
X58158031Y-157854200D01*
X58158026Y-157854200D01*
X57907217Y-157893923D01*
X57665703Y-157972397D01*
X57439442Y-158087684D01*
X57234011Y-158236937D01*
X57234006Y-158236941D01*
X57102681Y-158368267D01*
X57094735Y-158372605D01*
X57089310Y-158379853D01*
X57064550Y-158389087D01*
X57041358Y-158401752D01*
X57032328Y-158401106D01*
X57023846Y-158404270D01*
X56998025Y-158398653D01*
X56971666Y-158396768D01*
X56962612Y-158390949D01*
X56955573Y-158389418D01*
X56927319Y-158368267D01*
X56797819Y-158238767D01*
X56764334Y-158177444D01*
X56761500Y-158151086D01*
X56761500Y-158144881D01*
X56722437Y-157948503D01*
X56722436Y-157948502D01*
X56722436Y-157948498D01*
X56645810Y-157763507D01*
X56534567Y-157597019D01*
X56392981Y-157455433D01*
X54454048Y-155516500D01*
X51397984Y-152460435D01*
X51397983Y-152460434D01*
X51314737Y-152404811D01*
X51231493Y-152349190D01*
X51046502Y-152272564D01*
X51046496Y-152272562D01*
X50850118Y-152233500D01*
X50850116Y-152233500D01*
X43222411Y-152233500D01*
X43155372Y-152213815D01*
X43134730Y-152197181D01*
X42302819Y-151365270D01*
X42269334Y-151303947D01*
X42266500Y-151277589D01*
X42266500Y-129222410D01*
X42286185Y-129155371D01*
X42302819Y-129134729D01*
X44884729Y-126552819D01*
X44946052Y-126519334D01*
X44972410Y-126516500D01*
X58027590Y-126516500D01*
X58094629Y-126536185D01*
X58115271Y-126552819D01*
X62960715Y-131398263D01*
X62994200Y-131459586D01*
X62989216Y-131529278D01*
X62947344Y-131585211D01*
X62881880Y-131609628D01*
X62840943Y-131605719D01*
X62820195Y-131600160D01*
X62820190Y-131600159D01*
X62604019Y-131571700D01*
X62604018Y-131571700D01*
X62385982Y-131571700D01*
X62385981Y-131571700D01*
X62169813Y-131600158D01*
X61959202Y-131656592D01*
X61757774Y-131740025D01*
X61757759Y-131740032D01*
X61568936Y-131849048D01*
X61395956Y-131981782D01*
X61312681Y-132065057D01*
X61251358Y-132098542D01*
X61181666Y-132093558D01*
X61137319Y-132065057D01*
X61054052Y-131981790D01*
X61054043Y-131981782D01*
X60881063Y-131849048D01*
X60692240Y-131740032D01*
X60692225Y-131740025D01*
X60490797Y-131656592D01*
X60457254Y-131647604D01*
X60280190Y-131600159D01*
X60280189Y-131600158D01*
X60280186Y-131600158D01*
X60064019Y-131571700D01*
X60064018Y-131571700D01*
X59845982Y-131571700D01*
X59845981Y-131571700D01*
X59629813Y-131600158D01*
X59419202Y-131656592D01*
X59217774Y-131740025D01*
X59217752Y-131740036D01*
X59049299Y-131837292D01*
X58981399Y-131853765D01*
X58915372Y-131830912D01*
X58872182Y-131775991D01*
X58863300Y-131729905D01*
X58863300Y-130801016D01*
X58827638Y-130575856D01*
X58827637Y-130575852D01*
X58827637Y-130575851D01*
X58758699Y-130363684D01*
X58757637Y-130359918D01*
X58677939Y-130203503D01*
X58653697Y-130155925D01*
X58519701Y-129971496D01*
X57443504Y-128895298D01*
X57443503Y-128895297D01*
X57443502Y-128895296D01*
X57443497Y-128895292D01*
X57259078Y-128761305D01*
X57259077Y-128761304D01*
X57259075Y-128761303D01*
X57055954Y-128657808D01*
X57055953Y-128657807D01*
X57039896Y-128652590D01*
X57031567Y-128649884D01*
X57031566Y-128649883D01*
X57031566Y-128649884D01*
X56839141Y-128587361D01*
X56666178Y-128559966D01*
X56613984Y-128551700D01*
X48386016Y-128551700D01*
X48343643Y-128558411D01*
X48160858Y-128587361D01*
X47968437Y-128649883D01*
X47968434Y-128649884D01*
X47959892Y-128652659D01*
X47944044Y-128657808D01*
X47740921Y-128761305D01*
X47556502Y-128895292D01*
X47556497Y-128895296D01*
X42895296Y-133556497D01*
X42895292Y-133556502D01*
X42761305Y-133740921D01*
X42706043Y-133849379D01*
X42657809Y-133944041D01*
X42597167Y-134130678D01*
X42587362Y-134160856D01*
X42551700Y-134386016D01*
X42551700Y-142113984D01*
X42553812Y-142127318D01*
X42587362Y-142339145D01*
X42587362Y-142339148D01*
X42611543Y-142413566D01*
X42633912Y-142482412D01*
X42639901Y-142500842D01*
X42657809Y-142555958D01*
X42761305Y-142759078D01*
X42895292Y-142943497D01*
X42895296Y-142943502D01*
X45056497Y-145104703D01*
X45056502Y-145104707D01*
X45217362Y-145221577D01*
X45240925Y-145238697D01*
X45370353Y-145304644D01*
X45444041Y-145342190D01*
X45444043Y-145342190D01*
X45444046Y-145342192D01*
X45660856Y-145412638D01*
X45886016Y-145448300D01*
X45886017Y-145448300D01*
X84014135Y-145448300D01*
X84014136Y-145448300D01*
X84239296Y-145412638D01*
X84456106Y-145342192D01*
X84659227Y-145238697D01*
X84843656Y-145104702D01*
X87329702Y-142618656D01*
X87463697Y-142434227D01*
X87501210Y-142360601D01*
X87549182Y-142309807D01*
X87617003Y-142293011D01*
X87652648Y-142299855D01*
X87764926Y-142339144D01*
X87782882Y-142345427D01*
X87886308Y-142357079D01*
X87919322Y-142360799D01*
X87919325Y-142360800D01*
X87919328Y-142360800D01*
X89610675Y-142360800D01*
X89610676Y-142360799D01*
X89691837Y-142351655D01*
X89747115Y-142345427D01*
X89747116Y-142345426D01*
X89747121Y-142345426D01*
X89920110Y-142284894D01*
X90075293Y-142187387D01*
X90146253Y-142116427D01*
X90207576Y-142082942D01*
X90277268Y-142087926D01*
X90333201Y-142129798D01*
X90345654Y-142150306D01*
X90459493Y-142386695D01*
X90459495Y-142386698D01*
X90603705Y-142616208D01*
X90772706Y-142828128D01*
X90964372Y-143019794D01*
X91176292Y-143188795D01*
X91405802Y-143333005D01*
X91405804Y-143333006D01*
X91652311Y-143451718D01*
X91704170Y-143498540D01*
X91722483Y-143565968D01*
X91701435Y-143632591D01*
X91647709Y-143677260D01*
X91598509Y-143687438D01*
X87000000Y-143687438D01*
X87000000Y-156187438D01*
X95000000Y-156187438D01*
X95000000Y-143687438D01*
X93551491Y-143687438D01*
X93484452Y-143667753D01*
X93438697Y-143614949D01*
X93428753Y-143545791D01*
X93457778Y-143482235D01*
X93497689Y-143451718D01*
X93597507Y-143403647D01*
X93744198Y-143333005D01*
X93973708Y-143188795D01*
X94185628Y-143019794D01*
X94377294Y-142828128D01*
X94546295Y-142616208D01*
X94690505Y-142386698D01*
X94808112Y-142142485D01*
X94897636Y-141886640D01*
X94957952Y-141622380D01*
X94960745Y-141597597D01*
X94972790Y-141490680D01*
X94988300Y-141353028D01*
X94988300Y-141081972D01*
X94963454Y-140861449D01*
X94957954Y-140812634D01*
X94957953Y-140812629D01*
X94957952Y-140812620D01*
X94897636Y-140548360D01*
X94808112Y-140292515D01*
X94690505Y-140048302D01*
X94546295Y-139818792D01*
X94377294Y-139606872D01*
X94185628Y-139415206D01*
X93973708Y-139246205D01*
X93744198Y-139101995D01*
X93744195Y-139101993D01*
X93499988Y-138984389D01*
X93244151Y-138894867D01*
X93244139Y-138894863D01*
X93040195Y-138848314D01*
X92979880Y-138834548D01*
X92979877Y-138834547D01*
X92979865Y-138834545D01*
X92710534Y-138804200D01*
X92710528Y-138804200D01*
X92439472Y-138804200D01*
X92439465Y-138804200D01*
X92170134Y-138834545D01*
X92170120Y-138834548D01*
X91905860Y-138894863D01*
X91905848Y-138894867D01*
X91650011Y-138984389D01*
X91405804Y-139101993D01*
X91176293Y-139246204D01*
X90964372Y-139415205D01*
X90772705Y-139606872D01*
X90603704Y-139818793D01*
X90603419Y-139819195D01*
X90603323Y-139819269D01*
X90601536Y-139821512D01*
X90601011Y-139821093D01*
X90548564Y-139862470D01*
X90479021Y-139869219D01*
X90416869Y-139837299D01*
X90381841Y-139776845D01*
X90378300Y-139747424D01*
X90378300Y-138901825D01*
X90378299Y-138901821D01*
X90376154Y-138882787D01*
X90373286Y-138857328D01*
X90362927Y-138765384D01*
X90362926Y-138765382D01*
X90362926Y-138765379D01*
X90302394Y-138592390D01*
X90204887Y-138437207D01*
X90075293Y-138307613D01*
X89920110Y-138210106D01*
X89920109Y-138210105D01*
X89920108Y-138210105D01*
X89920106Y-138210104D01*
X89747115Y-138149572D01*
X89610678Y-138134200D01*
X89610672Y-138134200D01*
X87919328Y-138134200D01*
X87919321Y-138134200D01*
X87782884Y-138149572D01*
X87609893Y-138210104D01*
X87609891Y-138210105D01*
X87454708Y-138307612D01*
X87333148Y-138429172D01*
X87271825Y-138462656D01*
X87202133Y-138457672D01*
X87172582Y-138441809D01*
X87070553Y-138367681D01*
X86844296Y-138252397D01*
X86602782Y-138173923D01*
X86351974Y-138134200D01*
X86351969Y-138134200D01*
X86098031Y-138134200D01*
X86098026Y-138134200D01*
X85847217Y-138173923D01*
X85605703Y-138252397D01*
X85379442Y-138367684D01*
X85174011Y-138516937D01*
X85174006Y-138516941D01*
X85042681Y-138648267D01*
X84981358Y-138681752D01*
X84911666Y-138676768D01*
X84867319Y-138648267D01*
X84735993Y-138516941D01*
X84735988Y-138516937D01*
X84530557Y-138367684D01*
X84530556Y-138367683D01*
X84530554Y-138367682D01*
X84412660Y-138307612D01*
X84304296Y-138252397D01*
X84062782Y-138173923D01*
X83811974Y-138134200D01*
X83811969Y-138134200D01*
X83558031Y-138134200D01*
X83558026Y-138134200D01*
X83307217Y-138173923D01*
X83065703Y-138252397D01*
X82839442Y-138367684D01*
X82634011Y-138516937D01*
X82634006Y-138516941D01*
X82454441Y-138696506D01*
X82320135Y-138881363D01*
X82264805Y-138924028D01*
X82195192Y-138930007D01*
X82133397Y-138897401D01*
X82132136Y-138896158D01*
X81991895Y-138755917D01*
X81826349Y-138635640D01*
X81644029Y-138542744D01*
X81449413Y-138479509D01*
X81395000Y-138470890D01*
X81395000Y-139514488D01*
X81337993Y-139481575D01*
X81210826Y-139447500D01*
X81079174Y-139447500D01*
X80952007Y-139481575D01*
X80895000Y-139514488D01*
X80895000Y-138470890D01*
X80840586Y-138479509D01*
X80645970Y-138542744D01*
X80463650Y-138635640D01*
X80298108Y-138755914D01*
X80157863Y-138896159D01*
X80096540Y-138929643D01*
X80026848Y-138924659D01*
X79970915Y-138882787D01*
X79969864Y-138881362D01*
X79835562Y-138696511D01*
X79835558Y-138696506D01*
X79655993Y-138516941D01*
X79655988Y-138516937D01*
X79450557Y-138367684D01*
X79450556Y-138367683D01*
X79450554Y-138367682D01*
X79332660Y-138307612D01*
X79224296Y-138252397D01*
X78982782Y-138173923D01*
X78731974Y-138134200D01*
X78731969Y-138134200D01*
X78478031Y-138134200D01*
X78478026Y-138134200D01*
X78227217Y-138173923D01*
X77985703Y-138252397D01*
X77759442Y-138367684D01*
X77554011Y-138516937D01*
X77554006Y-138516941D01*
X77422681Y-138648267D01*
X77361358Y-138681752D01*
X77291666Y-138676768D01*
X77247319Y-138648267D01*
X77115993Y-138516941D01*
X77115988Y-138516937D01*
X76910557Y-138367684D01*
X76910556Y-138367683D01*
X76910554Y-138367682D01*
X76792660Y-138307612D01*
X76684296Y-138252397D01*
X76442782Y-138173923D01*
X76191974Y-138134200D01*
X76191969Y-138134200D01*
X75938031Y-138134200D01*
X75938026Y-138134200D01*
X75687217Y-138173923D01*
X75445703Y-138252397D01*
X75219442Y-138367684D01*
X75014011Y-138516937D01*
X75014006Y-138516941D01*
X74882681Y-138648267D01*
X74821358Y-138681752D01*
X74751666Y-138676768D01*
X74707319Y-138648267D01*
X74575993Y-138516941D01*
X74575988Y-138516937D01*
X74370557Y-138367684D01*
X74370556Y-138367683D01*
X74370554Y-138367682D01*
X74252660Y-138307612D01*
X74144296Y-138252397D01*
X73902782Y-138173923D01*
X73651974Y-138134200D01*
X73651969Y-138134200D01*
X73398031Y-138134200D01*
X73398026Y-138134200D01*
X73147217Y-138173923D01*
X72905703Y-138252397D01*
X72679442Y-138367684D01*
X72474011Y-138516937D01*
X72474006Y-138516941D01*
X72342681Y-138648267D01*
X72281358Y-138681752D01*
X72211666Y-138676768D01*
X72167319Y-138648267D01*
X72035993Y-138516941D01*
X72035988Y-138516937D01*
X71830557Y-138367684D01*
X71830556Y-138367683D01*
X71830554Y-138367682D01*
X71712660Y-138307612D01*
X71604296Y-138252397D01*
X71362782Y-138173923D01*
X71111974Y-138134200D01*
X71111969Y-138134200D01*
X70858031Y-138134200D01*
X70858026Y-138134200D01*
X70607217Y-138173923D01*
X70365703Y-138252397D01*
X70139442Y-138367684D01*
X69934011Y-138516937D01*
X69934006Y-138516941D01*
X69802681Y-138648267D01*
X69741358Y-138681752D01*
X69671666Y-138676768D01*
X69627319Y-138648267D01*
X69495993Y-138516941D01*
X69495988Y-138516937D01*
X69290557Y-138367684D01*
X69290556Y-138367683D01*
X69290554Y-138367682D01*
X69172660Y-138307612D01*
X69064296Y-138252397D01*
X68822782Y-138173923D01*
X68571974Y-138134200D01*
X68571969Y-138134200D01*
X68318031Y-138134200D01*
X68318026Y-138134200D01*
X68067217Y-138173923D01*
X67825703Y-138252397D01*
X67599442Y-138367684D01*
X67394011Y-138516937D01*
X67394006Y-138516941D01*
X67262681Y-138648267D01*
X67201358Y-138681752D01*
X67131666Y-138676768D01*
X67087319Y-138648267D01*
X66955993Y-138516941D01*
X66955988Y-138516937D01*
X66750557Y-138367684D01*
X66750556Y-138367683D01*
X66750554Y-138367682D01*
X66632660Y-138307612D01*
X66524296Y-138252397D01*
X66282782Y-138173923D01*
X66031974Y-138134200D01*
X66031969Y-138134200D01*
X65778031Y-138134200D01*
X65778026Y-138134200D01*
X65527217Y-138173923D01*
X65285703Y-138252397D01*
X65059442Y-138367684D01*
X64854011Y-138516937D01*
X64854006Y-138516941D01*
X64722681Y-138648267D01*
X64661358Y-138681752D01*
X64591666Y-138676768D01*
X64547319Y-138648267D01*
X64415993Y-138516941D01*
X64415988Y-138516937D01*
X64210557Y-138367684D01*
X64210556Y-138367683D01*
X64210554Y-138367682D01*
X64092660Y-138307612D01*
X63984296Y-138252397D01*
X63742782Y-138173923D01*
X63491974Y-138134200D01*
X63491969Y-138134200D01*
X63238031Y-138134200D01*
X63238026Y-138134200D01*
X62987217Y-138173923D01*
X62745703Y-138252397D01*
X62519442Y-138367684D01*
X62314011Y-138516937D01*
X62314006Y-138516941D01*
X62182681Y-138648267D01*
X62121358Y-138681752D01*
X62051666Y-138676768D01*
X62007319Y-138648267D01*
X61875993Y-138516941D01*
X61875988Y-138516937D01*
X61670557Y-138367684D01*
X61670556Y-138367683D01*
X61670554Y-138367682D01*
X61552660Y-138307612D01*
X61444296Y-138252397D01*
X61202782Y-138173923D01*
X60951974Y-138134200D01*
X60951969Y-138134200D01*
X60698031Y-138134200D01*
X60698026Y-138134200D01*
X60447217Y-138173923D01*
X60205703Y-138252397D01*
X59979442Y-138367684D01*
X59774011Y-138516937D01*
X59774006Y-138516941D01*
X59642681Y-138648267D01*
X59581358Y-138681752D01*
X59511666Y-138676768D01*
X59467319Y-138648267D01*
X59335993Y-138516941D01*
X59335988Y-138516937D01*
X59130557Y-138367684D01*
X59130556Y-138367683D01*
X59130554Y-138367682D01*
X59012660Y-138307612D01*
X58904296Y-138252397D01*
X58662782Y-138173923D01*
X58411974Y-138134200D01*
X58411969Y-138134200D01*
X58158031Y-138134200D01*
X58158026Y-138134200D01*
X57907217Y-138173923D01*
X57665703Y-138252397D01*
X57439442Y-138367684D01*
X57234011Y-138516937D01*
X57234006Y-138516941D01*
X57102681Y-138648267D01*
X57041358Y-138681752D01*
X56971666Y-138676768D01*
X56927319Y-138648267D01*
X56795993Y-138516941D01*
X56795988Y-138516937D01*
X56590557Y-138367684D01*
X56590556Y-138367683D01*
X56590554Y-138367682D01*
X56472660Y-138307612D01*
X56364296Y-138252397D01*
X56122782Y-138173923D01*
X55871974Y-138134200D01*
X55871969Y-138134200D01*
X55618031Y-138134200D01*
X55618026Y-138134200D01*
X55367217Y-138173923D01*
X55125703Y-138252397D01*
X54899442Y-138367684D01*
X54694011Y-138516937D01*
X54694006Y-138516941D01*
X54562681Y-138648267D01*
X54501358Y-138681752D01*
X54431666Y-138676768D01*
X54387319Y-138648267D01*
X54255993Y-138516941D01*
X54255988Y-138516937D01*
X54050557Y-138367684D01*
X54050556Y-138367683D01*
X54050554Y-138367682D01*
X53932660Y-138307612D01*
X53824296Y-138252397D01*
X53582782Y-138173923D01*
X53331974Y-138134200D01*
X53331969Y-138134200D01*
X53078031Y-138134200D01*
X53078026Y-138134200D01*
X52827217Y-138173923D01*
X52585703Y-138252397D01*
X52359442Y-138367684D01*
X52154011Y-138516937D01*
X52154006Y-138516941D01*
X52022681Y-138648267D01*
X51961358Y-138681752D01*
X51891666Y-138676768D01*
X51847319Y-138648267D01*
X51715993Y-138516941D01*
X51715988Y-138516937D01*
X51510557Y-138367684D01*
X51510556Y-138367683D01*
X51510554Y-138367682D01*
X51392660Y-138307612D01*
X51284296Y-138252397D01*
X51042782Y-138173923D01*
X50791974Y-138134200D01*
X50791969Y-138134200D01*
X50538031Y-138134200D01*
X50538026Y-138134200D01*
X50287217Y-138173923D01*
X50045703Y-138252397D01*
X49819442Y-138367684D01*
X49614011Y-138516937D01*
X49614006Y-138516941D01*
X49434441Y-138696506D01*
X49434437Y-138696511D01*
X49285184Y-138901942D01*
X49169897Y-139128203D01*
X49091423Y-139369717D01*
X49051700Y-139620525D01*
X49051700Y-140874474D01*
X49091423Y-141125282D01*
X49169897Y-141366796D01*
X49285184Y-141593057D01*
X49434437Y-141798488D01*
X49434441Y-141798493D01*
X49614006Y-141978058D01*
X49614011Y-141978062D01*
X49758367Y-142082942D01*
X49819446Y-142127318D01*
X49963620Y-142200778D01*
X50045703Y-142242602D01*
X50045705Y-142242602D01*
X50045708Y-142242604D01*
X50160896Y-142280031D01*
X50252418Y-142309769D01*
X50310093Y-142349207D01*
X50337291Y-142413566D01*
X50325376Y-142482412D01*
X50278132Y-142533888D01*
X50214099Y-142551700D01*
X47970474Y-142551700D01*
X47903435Y-142532015D01*
X47857680Y-142479211D01*
X47847736Y-142410053D01*
X47876761Y-142346497D01*
X47882793Y-142340019D01*
X47937918Y-142284894D01*
X48014773Y-142208039D01*
X48155448Y-142014416D01*
X48264103Y-141801170D01*
X48338061Y-141573551D01*
X48358953Y-141441635D01*
X48375500Y-141337171D01*
X48375500Y-141097828D01*
X48355644Y-140972470D01*
X48338061Y-140861449D01*
X48264103Y-140633830D01*
X48264101Y-140633827D01*
X48264101Y-140633825D01*
X48169162Y-140447500D01*
X48155448Y-140420584D01*
X48137476Y-140395847D01*
X48014778Y-140226967D01*
X48014774Y-140226962D01*
X47845537Y-140057725D01*
X47845532Y-140057721D01*
X47651919Y-139917054D01*
X47651918Y-139917053D01*
X47651916Y-139917052D01*
X47544794Y-139862470D01*
X47438674Y-139808398D01*
X47211051Y-139734439D01*
X46974671Y-139697000D01*
X46974666Y-139697000D01*
X46735334Y-139697000D01*
X46735329Y-139697000D01*
X46498948Y-139734439D01*
X46271325Y-139808398D01*
X46058080Y-139917054D01*
X45864467Y-140057721D01*
X45864462Y-140057725D01*
X45695225Y-140226962D01*
X45672618Y-140258079D01*
X45617288Y-140300744D01*
X45547674Y-140306723D01*
X45485879Y-140274117D01*
X45451522Y-140213278D01*
X45448300Y-140185193D01*
X45448300Y-135151267D01*
X45467985Y-135084228D01*
X45484614Y-135063591D01*
X47474819Y-133073385D01*
X47536142Y-133039901D01*
X47605834Y-133044885D01*
X47661767Y-133086757D01*
X47686184Y-133152221D01*
X47686500Y-133161067D01*
X47686500Y-133360961D01*
X47725910Y-133609785D01*
X47803760Y-133849383D01*
X47918132Y-134073848D01*
X48066201Y-134277649D01*
X48066205Y-134277654D01*
X48244345Y-134455794D01*
X48244350Y-134455798D01*
X48288973Y-134488218D01*
X48448155Y-134603870D01*
X48591184Y-134676747D01*
X48672616Y-134718239D01*
X48672618Y-134718239D01*
X48672621Y-134718241D01*
X48912215Y-134796090D01*
X49161038Y-134835500D01*
X49161039Y-134835500D01*
X49412961Y-134835500D01*
X49412962Y-134835500D01*
X49661785Y-134796090D01*
X49901379Y-134718241D01*
X50125845Y-134603870D01*
X50329656Y-134455793D01*
X50507793Y-134277656D01*
X50655870Y-134073845D01*
X50770241Y-133849379D01*
X50848090Y-133609785D01*
X50887500Y-133360962D01*
X50887500Y-133109038D01*
X50848090Y-132860215D01*
X50770241Y-132620621D01*
X50770239Y-132620618D01*
X50770239Y-132620616D01*
X50695168Y-132473282D01*
X50655870Y-132396155D01*
X50614578Y-132339321D01*
X50542325Y-132239872D01*
X50507798Y-132192350D01*
X50507794Y-132192345D01*
X50329654Y-132014205D01*
X50329649Y-132014201D01*
X50125848Y-131866132D01*
X50125847Y-131866131D01*
X50125845Y-131866130D01*
X50032362Y-131818498D01*
X49901383Y-131751760D01*
X49712016Y-131690231D01*
X49654341Y-131650793D01*
X49627143Y-131586434D01*
X49639058Y-131517588D01*
X49686302Y-131466112D01*
X49750335Y-131448300D01*
X55842700Y-131448300D01*
X55909739Y-131467985D01*
X55955494Y-131520789D01*
X55966700Y-131572300D01*
X55966700Y-132383704D01*
X55963833Y-132395994D01*
X55964856Y-132405008D01*
X55956112Y-132429101D01*
X55953906Y-132438561D01*
X55952116Y-132442188D01*
X55920031Y-132497763D01*
X55895563Y-132556832D01*
X55893756Y-132560497D01*
X55887944Y-132566812D01*
X55870231Y-132593321D01*
X55357962Y-133105590D01*
X55340925Y-133042007D01*
X55275099Y-132927993D01*
X55182007Y-132834901D01*
X55067993Y-132769075D01*
X55004409Y-132752037D01*
X55636716Y-132119728D01*
X55582550Y-132080375D01*
X55393217Y-131983904D01*
X55191129Y-131918242D01*
X54981246Y-131885000D01*
X54768754Y-131885000D01*
X54558872Y-131918242D01*
X54558869Y-131918242D01*
X54356782Y-131983904D01*
X54167439Y-132080380D01*
X54113282Y-132119727D01*
X54113282Y-132119728D01*
X54745591Y-132752037D01*
X54682007Y-132769075D01*
X54567993Y-132834901D01*
X54474901Y-132927993D01*
X54409075Y-133042007D01*
X54392037Y-133105591D01*
X53759728Y-132473282D01*
X53759727Y-132473282D01*
X53720380Y-132527439D01*
X53623904Y-132716782D01*
X53558242Y-132918869D01*
X53558242Y-132918872D01*
X53525000Y-133128753D01*
X53525000Y-133341246D01*
X53558242Y-133551127D01*
X53558242Y-133551130D01*
X53623904Y-133753217D01*
X53720375Y-133942550D01*
X53759728Y-133996716D01*
X54392037Y-133364408D01*
X54409075Y-133427993D01*
X54474901Y-133542007D01*
X54567993Y-133635099D01*
X54682007Y-133700925D01*
X54745590Y-133717962D01*
X54113282Y-134350269D01*
X54113282Y-134350270D01*
X54167449Y-134389624D01*
X54356782Y-134486095D01*
X54558870Y-134551757D01*
X54768754Y-134585000D01*
X54981246Y-134585000D01*
X55191127Y-134551757D01*
X55191130Y-134551757D01*
X55393217Y-134486095D01*
X55582554Y-134389622D01*
X55636716Y-134350270D01*
X55636717Y-134350270D01*
X55004408Y-133717962D01*
X55067993Y-133700925D01*
X55182007Y-133635099D01*
X55275099Y-133542007D01*
X55340925Y-133427993D01*
X55357962Y-133364408D01*
X55870232Y-133876678D01*
X55897111Y-133916905D01*
X55907734Y-133942550D01*
X55920031Y-133972237D01*
X55920033Y-133972240D01*
X55920036Y-133972247D01*
X56029048Y-134161063D01*
X56161782Y-134334043D01*
X56161790Y-134334052D01*
X56315948Y-134488210D01*
X56315956Y-134488217D01*
X56488936Y-134620951D01*
X56677759Y-134729967D01*
X56677774Y-134729974D01*
X56764583Y-134765931D01*
X56879203Y-134813408D01*
X57089810Y-134869841D01*
X57251939Y-134891185D01*
X57305981Y-134898300D01*
X57305982Y-134898300D01*
X57524019Y-134898300D01*
X57567252Y-134892608D01*
X57740190Y-134869841D01*
X57950797Y-134813408D01*
X58152237Y-134729969D01*
X58341063Y-134620951D01*
X58514043Y-134488218D01*
X58514047Y-134488213D01*
X58514052Y-134488210D01*
X58597319Y-134404943D01*
X58658642Y-134371458D01*
X58728334Y-134376442D01*
X58772681Y-134404943D01*
X58855948Y-134488210D01*
X58855956Y-134488217D01*
X59028936Y-134620951D01*
X59217759Y-134729967D01*
X59217774Y-134729974D01*
X59304583Y-134765931D01*
X59419203Y-134813408D01*
X59629810Y-134869841D01*
X59791939Y-134891185D01*
X59845981Y-134898300D01*
X59845982Y-134898300D01*
X60064019Y-134898300D01*
X60107252Y-134892608D01*
X60280190Y-134869841D01*
X60490797Y-134813408D01*
X60692237Y-134729969D01*
X60881063Y-134620951D01*
X61054043Y-134488218D01*
X61054047Y-134488213D01*
X61054052Y-134488210D01*
X61137319Y-134404943D01*
X61198642Y-134371458D01*
X61268334Y-134376442D01*
X61312681Y-134404943D01*
X61395948Y-134488210D01*
X61395956Y-134488217D01*
X61568936Y-134620951D01*
X61757759Y-134729967D01*
X61757774Y-134729974D01*
X61844583Y-134765931D01*
X61959203Y-134813408D01*
X62169810Y-134869841D01*
X62331939Y-134891185D01*
X62385981Y-134898300D01*
X62385982Y-134898300D01*
X62604019Y-134898300D01*
X62647252Y-134892608D01*
X62820190Y-134869841D01*
X63030797Y-134813408D01*
X63232237Y-134729969D01*
X63421063Y-134620951D01*
X63594043Y-134488218D01*
X63594047Y-134488213D01*
X63594052Y-134488210D01*
X63677319Y-134404943D01*
X63738642Y-134371458D01*
X63808334Y-134376442D01*
X63852681Y-134404943D01*
X63935948Y-134488210D01*
X63935956Y-134488217D01*
X64108936Y-134620951D01*
X64297759Y-134729967D01*
X64297774Y-134729974D01*
X64384583Y-134765931D01*
X64499203Y-134813408D01*
X64709810Y-134869841D01*
X64871939Y-134891185D01*
X64925981Y-134898300D01*
X64925982Y-134898300D01*
X65144019Y-134898300D01*
X65187252Y-134892608D01*
X65360190Y-134869841D01*
X65570797Y-134813408D01*
X65772237Y-134729969D01*
X65961063Y-134620951D01*
X66134043Y-134488218D01*
X66134047Y-134488213D01*
X66134052Y-134488210D01*
X66217319Y-134404943D01*
X66278642Y-134371458D01*
X66348334Y-134376442D01*
X66392681Y-134404943D01*
X66475948Y-134488210D01*
X66475956Y-134488217D01*
X66648936Y-134620951D01*
X66837759Y-134729967D01*
X66837774Y-134729974D01*
X66924583Y-134765931D01*
X67039203Y-134813408D01*
X67249810Y-134869841D01*
X67411939Y-134891185D01*
X67465981Y-134898300D01*
X67465982Y-134898300D01*
X67684019Y-134898300D01*
X67727252Y-134892608D01*
X67900190Y-134869841D01*
X68110797Y-134813408D01*
X68312237Y-134729969D01*
X68501063Y-134620951D01*
X68674043Y-134488218D01*
X68674047Y-134488213D01*
X68674052Y-134488210D01*
X68757319Y-134404943D01*
X68818642Y-134371458D01*
X68888334Y-134376442D01*
X68932681Y-134404943D01*
X69015948Y-134488210D01*
X69015956Y-134488217D01*
X69188936Y-134620951D01*
X69377759Y-134729967D01*
X69377774Y-134729974D01*
X69464583Y-134765931D01*
X69579203Y-134813408D01*
X69789810Y-134869841D01*
X69951939Y-134891185D01*
X70005981Y-134898300D01*
X70005982Y-134898300D01*
X70224019Y-134898300D01*
X70267252Y-134892608D01*
X70440190Y-134869841D01*
X70650797Y-134813408D01*
X70852237Y-134729969D01*
X71041063Y-134620951D01*
X71041069Y-134620945D01*
X71044438Y-134618696D01*
X71045259Y-134619924D01*
X71104664Y-134596957D01*
X71173110Y-134610994D01*
X71202666Y-134632846D01*
X71294707Y-134724887D01*
X71449890Y-134822394D01*
X71622879Y-134882926D01*
X71622882Y-134882926D01*
X71622884Y-134882927D01*
X71714828Y-134893286D01*
X71759322Y-134898299D01*
X71759325Y-134898300D01*
X71759328Y-134898300D01*
X73550675Y-134898300D01*
X73550676Y-134898299D01*
X73618896Y-134890613D01*
X73687115Y-134882927D01*
X73687116Y-134882926D01*
X73687121Y-134882926D01*
X73860110Y-134822394D01*
X74015293Y-134724887D01*
X74144887Y-134595293D01*
X74242394Y-134440110D01*
X74302926Y-134267121D01*
X74318300Y-134130672D01*
X74318300Y-133109038D01*
X76642500Y-133109038D01*
X76642500Y-133360961D01*
X76681910Y-133609785D01*
X76759760Y-133849383D01*
X76874132Y-134073848D01*
X77022201Y-134277649D01*
X77022205Y-134277654D01*
X77200345Y-134455794D01*
X77200350Y-134455798D01*
X77244973Y-134488218D01*
X77404155Y-134603870D01*
X77547184Y-134676747D01*
X77628616Y-134718239D01*
X77628618Y-134718239D01*
X77628621Y-134718241D01*
X77868215Y-134796090D01*
X78117038Y-134835500D01*
X78117039Y-134835500D01*
X78368961Y-134835500D01*
X78368962Y-134835500D01*
X78617785Y-134796090D01*
X78857379Y-134718241D01*
X79081845Y-134603870D01*
X79285656Y-134455793D01*
X79463793Y-134277656D01*
X79611870Y-134073845D01*
X79726241Y-133849379D01*
X79804090Y-133609785D01*
X79843500Y-133360962D01*
X79843500Y-133109038D01*
X79804090Y-132860215D01*
X79726241Y-132620621D01*
X79726239Y-132620618D01*
X79726239Y-132620616D01*
X79651168Y-132473282D01*
X79611870Y-132396155D01*
X79471451Y-132202884D01*
X79463798Y-132192350D01*
X79463794Y-132192345D01*
X79285654Y-132014205D01*
X79285649Y-132014201D01*
X79081848Y-131866132D01*
X79081847Y-131866131D01*
X79081845Y-131866130D01*
X78988362Y-131818498D01*
X78857383Y-131751760D01*
X78617785Y-131673910D01*
X78451709Y-131647606D01*
X78368962Y-131634500D01*
X78117038Y-131634500D01*
X78034297Y-131647605D01*
X77868214Y-131673910D01*
X77628616Y-131751760D01*
X77404151Y-131866132D01*
X77200350Y-132014201D01*
X77200345Y-132014205D01*
X77022205Y-132192345D01*
X77022201Y-132192350D01*
X76874132Y-132396151D01*
X76759760Y-132620616D01*
X76681910Y-132860214D01*
X76642500Y-133109038D01*
X74318300Y-133109038D01*
X74318300Y-132339328D01*
X74302926Y-132202879D01*
X74242394Y-132029890D01*
X74144887Y-131874707D01*
X74015293Y-131745113D01*
X73860110Y-131647606D01*
X73860109Y-131647605D01*
X73860108Y-131647605D01*
X73860106Y-131647604D01*
X73687115Y-131587072D01*
X73626616Y-131580256D01*
X73562202Y-131553189D01*
X73522647Y-131495595D01*
X73516500Y-131457036D01*
X73516500Y-130399881D01*
X73477437Y-130203503D01*
X73477436Y-130203502D01*
X73477436Y-130203498D01*
X73400810Y-130018507D01*
X73289567Y-129852019D01*
X73147981Y-129710433D01*
X69819495Y-126381947D01*
X83665000Y-126381947D01*
X83665000Y-126618052D01*
X83701934Y-126851247D01*
X83774897Y-127075802D01*
X83882087Y-127286174D01*
X83942338Y-127369104D01*
X83942340Y-127369105D01*
X84682037Y-126629408D01*
X84699075Y-126692993D01*
X84764901Y-126807007D01*
X84857993Y-126900099D01*
X84972007Y-126965925D01*
X85035590Y-126982962D01*
X84295893Y-127722658D01*
X84378828Y-127782914D01*
X84589197Y-127890102D01*
X84813752Y-127963065D01*
X84813751Y-127963065D01*
X85046948Y-128000000D01*
X85283052Y-128000000D01*
X85516247Y-127963065D01*
X85740802Y-127890102D01*
X85951163Y-127782918D01*
X85951169Y-127782914D01*
X86034104Y-127722658D01*
X86034105Y-127722658D01*
X85294408Y-126982962D01*
X85357993Y-126965925D01*
X85472007Y-126900099D01*
X85565099Y-126807007D01*
X85630925Y-126692993D01*
X85647962Y-126629409D01*
X86387658Y-127369105D01*
X86387658Y-127369104D01*
X86447914Y-127286169D01*
X86447918Y-127286163D01*
X86555102Y-127075802D01*
X86628065Y-126851247D01*
X86665000Y-126618052D01*
X86665000Y-126381947D01*
X86628065Y-126148752D01*
X86555102Y-125924197D01*
X86447914Y-125713828D01*
X86387658Y-125630894D01*
X86387658Y-125630893D01*
X85647962Y-126370590D01*
X85630925Y-126307007D01*
X85565099Y-126192993D01*
X85472007Y-126099901D01*
X85357993Y-126034075D01*
X85294409Y-126017037D01*
X86034105Y-125277340D01*
X86034104Y-125277338D01*
X85951174Y-125217087D01*
X85740802Y-125109897D01*
X85516247Y-125036934D01*
X85516248Y-125036934D01*
X85283052Y-125000000D01*
X85046948Y-125000000D01*
X84813752Y-125036934D01*
X84589197Y-125109897D01*
X84378830Y-125217084D01*
X84295894Y-125277340D01*
X85035591Y-126017037D01*
X84972007Y-126034075D01*
X84857993Y-126099901D01*
X84764901Y-126192993D01*
X84699075Y-126307007D01*
X84682037Y-126370591D01*
X83942340Y-125630894D01*
X83882084Y-125713830D01*
X83774897Y-125924197D01*
X83701934Y-126148752D01*
X83665000Y-126381947D01*
X69819495Y-126381947D01*
X67034714Y-123597166D01*
X65147984Y-121710435D01*
X65147983Y-121710434D01*
X65064737Y-121654811D01*
X64981493Y-121599190D01*
X64796502Y-121522564D01*
X64796496Y-121522562D01*
X64600118Y-121483500D01*
X64600116Y-121483500D01*
X43600117Y-121483500D01*
X43399884Y-121483500D01*
X43399882Y-121483500D01*
X43203503Y-121522562D01*
X43203497Y-121522564D01*
X43018508Y-121599189D01*
X42852016Y-121710434D01*
X42852015Y-121710435D01*
X38228181Y-126334270D01*
X38166858Y-126367755D01*
X38097166Y-126362771D01*
X38041233Y-126320899D01*
X38016816Y-126255435D01*
X38016500Y-126246589D01*
X38016500Y-124972410D01*
X38036185Y-124905371D01*
X38052819Y-124884729D01*
X41789562Y-121147987D01*
X41789563Y-121147986D01*
X41789563Y-121147985D01*
X41789567Y-121147982D01*
X41900810Y-120981493D01*
X41977436Y-120796502D01*
X42016500Y-120600117D01*
X42016500Y-120399884D01*
X42016500Y-117626414D01*
X42036185Y-117559375D01*
X42052819Y-117538733D01*
X42230557Y-117360995D01*
X42379818Y-117155554D01*
X42495104Y-116929292D01*
X42573576Y-116687782D01*
X42613300Y-116436974D01*
X42613300Y-116183025D01*
X42573576Y-115932217D01*
X42495102Y-115690703D01*
X42453278Y-115608620D01*
X42379818Y-115464446D01*
X42360748Y-115438199D01*
X42230562Y-115259011D01*
X42230558Y-115259006D01*
X42050993Y-115079441D01*
X42050988Y-115079437D01*
X41845557Y-114930184D01*
X41845556Y-114930183D01*
X41845554Y-114930182D01*
X41774895Y-114894179D01*
X41619296Y-114814897D01*
X41377782Y-114736423D01*
X41126974Y-114696700D01*
X41126969Y-114696700D01*
X40873031Y-114696700D01*
X40873026Y-114696700D01*
X40622217Y-114736423D01*
X40380703Y-114814897D01*
X40154442Y-114930184D01*
X39949011Y-115079437D01*
X39949006Y-115079441D01*
X39769441Y-115259006D01*
X39769437Y-115259011D01*
X39620184Y-115464442D01*
X39504897Y-115690703D01*
X39426423Y-115932217D01*
X39386700Y-116183025D01*
X39386700Y-116436974D01*
X39426423Y-116687782D01*
X39504897Y-116929296D01*
X39620184Y-117155557D01*
X39769437Y-117360988D01*
X39769441Y-117360993D01*
X39947181Y-117538733D01*
X39980666Y-117600056D01*
X39983500Y-117626414D01*
X39983500Y-120027589D01*
X39963815Y-120094628D01*
X39947181Y-120115270D01*
X36728181Y-123334270D01*
X36666858Y-123367755D01*
X36597166Y-123362771D01*
X36541233Y-123320899D01*
X36516816Y-123255435D01*
X36516500Y-123246589D01*
X36516500Y-110472410D01*
X36536185Y-110405371D01*
X36552819Y-110384729D01*
X39384729Y-107552819D01*
X39411656Y-107538115D01*
X39437475Y-107521523D01*
X39443675Y-107520631D01*
X39446052Y-107519334D01*
X39472410Y-107516500D01*
X39615084Y-107516500D01*
X39682123Y-107536185D01*
X39727878Y-107588989D01*
X39737822Y-107658147D01*
X39715402Y-107713385D01*
X39620184Y-107844442D01*
X39504897Y-108070703D01*
X39426423Y-108312217D01*
X39386700Y-108563025D01*
X39386700Y-108816974D01*
X39426423Y-109067782D01*
X39504897Y-109309296D01*
X39620184Y-109535557D01*
X39769437Y-109740988D01*
X39769441Y-109740993D01*
X39949006Y-109920558D01*
X39949011Y-109920562D01*
X40128199Y-110050748D01*
X40154446Y-110069818D01*
X40298620Y-110143278D01*
X40380703Y-110185102D01*
X40380705Y-110185102D01*
X40380708Y-110185104D01*
X40510161Y-110227166D01*
X40622217Y-110263576D01*
X40873026Y-110303300D01*
X40873031Y-110303300D01*
X41126974Y-110303300D01*
X41377782Y-110263576D01*
X41619292Y-110185104D01*
X41845554Y-110069818D01*
X42050995Y-109920557D01*
X42228733Y-109742819D01*
X42290056Y-109709334D01*
X42316414Y-109706500D01*
X61910118Y-109706500D01*
X62042238Y-109680218D01*
X62106502Y-109667436D01*
X62291493Y-109590810D01*
X62457981Y-109479567D01*
X63884729Y-108052819D01*
X63946052Y-108019334D01*
X63972410Y-108016500D01*
X79850118Y-108016500D01*
X79982238Y-107990218D01*
X80046502Y-107977436D01*
X80231493Y-107900810D01*
X80397981Y-107789567D01*
X81539567Y-106647981D01*
X81650811Y-106481493D01*
X81727436Y-106296502D01*
X81761380Y-106125856D01*
X81766500Y-106100118D01*
X81766500Y-101890500D01*
X81786185Y-101823461D01*
X81838989Y-101777706D01*
X81890500Y-101766500D01*
X85095100Y-101766500D01*
X85162139Y-101786185D01*
X85207894Y-101838989D01*
X85219100Y-101890500D01*
X85219100Y-102085716D01*
X85219100Y-102085718D01*
X85219099Y-102085718D01*
X85246117Y-102221537D01*
X85248500Y-102245729D01*
X85248500Y-103059269D01*
X85247828Y-103061554D01*
X85248415Y-103063865D01*
X85238033Y-103094912D01*
X85228815Y-103126308D01*
X85226779Y-103128570D01*
X85226259Y-103130128D01*
X85211075Y-103146030D01*
X85202174Y-103155927D01*
X85201059Y-103156822D01*
X85132919Y-103209109D01*
X85120338Y-103221689D01*
X85115084Y-103225912D01*
X85088752Y-103236776D01*
X85063762Y-103250421D01*
X85056878Y-103249928D01*
X85050496Y-103252562D01*
X85022473Y-103247466D01*
X84994071Y-103245434D01*
X84985471Y-103240738D01*
X84981754Y-103240062D01*
X84978259Y-103236799D01*
X84963098Y-103228520D01*
X84867089Y-103156647D01*
X84867086Y-103156645D01*
X84732379Y-103106403D01*
X84732372Y-103106401D01*
X84672844Y-103100000D01*
X83975000Y-103100000D01*
X83975000Y-104124722D01*
X83898694Y-104080667D01*
X83784244Y-104050000D01*
X83665756Y-104050000D01*
X83551306Y-104080667D01*
X83475000Y-104124722D01*
X83475000Y-103100000D01*
X82777155Y-103100000D01*
X82717627Y-103106401D01*
X82717620Y-103106403D01*
X82582913Y-103156645D01*
X82582906Y-103156649D01*
X82467812Y-103242809D01*
X82467809Y-103242812D01*
X82381649Y-103357906D01*
X82381645Y-103357913D01*
X82331403Y-103492620D01*
X82331401Y-103492627D01*
X82325000Y-103552155D01*
X82325000Y-104250000D01*
X83349722Y-104250000D01*
X83305667Y-104326306D01*
X83275000Y-104440756D01*
X83275000Y-104559244D01*
X83305667Y-104673694D01*
X83349722Y-104750000D01*
X82325000Y-104750000D01*
X82325000Y-105447844D01*
X82331401Y-105507372D01*
X82331403Y-105507379D01*
X82381645Y-105642086D01*
X82381649Y-105642093D01*
X82467809Y-105757187D01*
X82467812Y-105757190D01*
X82582906Y-105843350D01*
X82582913Y-105843354D01*
X82717620Y-105893596D01*
X82717627Y-105893598D01*
X82777155Y-105899999D01*
X82777172Y-105900000D01*
X83475000Y-105900000D01*
X83475000Y-104875277D01*
X83551306Y-104919333D01*
X83665756Y-104950000D01*
X83784244Y-104950000D01*
X83898694Y-104919333D01*
X83975000Y-104875277D01*
X83975000Y-105900000D01*
X84672828Y-105900000D01*
X84672844Y-105899999D01*
X84732372Y-105893598D01*
X84732379Y-105893596D01*
X84867086Y-105843354D01*
X84867088Y-105843353D01*
X84963100Y-105771479D01*
X85028564Y-105747062D01*
X85096837Y-105761913D01*
X85125092Y-105783065D01*
X85132913Y-105790886D01*
X85132919Y-105790891D01*
X85311099Y-105927613D01*
X85311106Y-105927617D01*
X85505593Y-106039905D01*
X85505598Y-106039907D01*
X85505601Y-106039909D01*
X85713096Y-106125856D01*
X85930035Y-106183985D01*
X86152704Y-106213300D01*
X86152711Y-106213300D01*
X86377289Y-106213300D01*
X86377296Y-106213300D01*
X86599965Y-106183985D01*
X86816904Y-106125856D01*
X87024399Y-106039909D01*
X87218901Y-105927613D01*
X87397081Y-105790891D01*
X87555891Y-105632081D01*
X87692613Y-105453901D01*
X87804909Y-105259399D01*
X87890856Y-105051904D01*
X87948985Y-104834965D01*
X87978300Y-104612296D01*
X87978300Y-104387704D01*
X87948985Y-104165035D01*
X87890856Y-103948096D01*
X87804909Y-103740601D01*
X87804907Y-103740598D01*
X87804905Y-103740593D01*
X87692617Y-103546106D01*
X87692613Y-103546099D01*
X87577603Y-103396215D01*
X87555892Y-103367920D01*
X87555886Y-103367913D01*
X87397090Y-103209117D01*
X87397081Y-103209109D01*
X87330013Y-103157645D01*
X87288810Y-103101217D01*
X87281500Y-103059270D01*
X87281500Y-101914881D01*
X87254483Y-101779061D01*
X87252100Y-101754869D01*
X87252100Y-101489010D01*
X87271785Y-101421971D01*
X87324589Y-101376216D01*
X87393747Y-101366272D01*
X87457303Y-101395297D01*
X87463781Y-101401329D01*
X88447181Y-102384729D01*
X88480666Y-102446052D01*
X88483500Y-102472410D01*
X88483500Y-123134884D01*
X88483500Y-123335116D01*
X88483500Y-123335118D01*
X88483499Y-123335118D01*
X88522562Y-123531496D01*
X88522564Y-123531502D01*
X88599189Y-123716491D01*
X88710434Y-123882983D01*
X88710435Y-123882984D01*
X90915381Y-126087929D01*
X90948866Y-126149252D01*
X90951700Y-126175610D01*
X90951700Y-127545678D01*
X90967072Y-127682115D01*
X91027604Y-127855106D01*
X91027605Y-127855108D01*
X91027606Y-127855110D01*
X91125113Y-128010293D01*
X91254707Y-128139887D01*
X91409890Y-128237394D01*
X91582879Y-128297926D01*
X91582882Y-128297926D01*
X91582884Y-128297927D01*
X91674828Y-128308286D01*
X91719322Y-128313299D01*
X91719325Y-128313300D01*
X91719328Y-128313300D01*
X93810675Y-128313300D01*
X93810676Y-128313299D01*
X93878896Y-128305613D01*
X93947115Y-128297927D01*
X93947116Y-128297926D01*
X93947121Y-128297926D01*
X94120110Y-128237394D01*
X94275293Y-128139887D01*
X94404887Y-128010293D01*
X94502394Y-127855110D01*
X94562926Y-127682121D01*
X94578300Y-127545672D01*
X94578300Y-125454328D01*
X94562926Y-125317879D01*
X94502394Y-125144890D01*
X94404887Y-124989707D01*
X94275293Y-124860113D01*
X94120110Y-124762606D01*
X94120109Y-124762605D01*
X94120108Y-124762605D01*
X94120106Y-124762604D01*
X93947115Y-124702072D01*
X93810678Y-124686700D01*
X93810672Y-124686700D01*
X92440611Y-124686700D01*
X92373572Y-124667015D01*
X92352930Y-124650381D01*
X90552819Y-122850270D01*
X90519334Y-122788947D01*
X90516500Y-122762589D01*
X90516500Y-101899888D01*
X90516499Y-101899880D01*
X90516120Y-101897976D01*
X90516122Y-101897975D01*
X90516115Y-101897952D01*
X90477437Y-101703505D01*
X90477436Y-101703498D01*
X90400810Y-101518507D01*
X90289567Y-101352018D01*
X90289565Y-101352016D01*
X90289563Y-101352013D01*
X90289562Y-101352012D01*
X87397984Y-98460435D01*
X87397983Y-98460434D01*
X87314737Y-98404811D01*
X87231493Y-98349190D01*
X87046502Y-98272564D01*
X87046496Y-98272562D01*
X86850118Y-98233500D01*
X86850116Y-98233500D01*
X78350117Y-98233500D01*
X78149884Y-98233500D01*
X78149882Y-98233500D01*
X77953503Y-98272562D01*
X77953497Y-98272564D01*
X77768508Y-98349189D01*
X77602016Y-98460434D01*
X77602015Y-98460435D01*
X73615271Y-102447181D01*
X73553948Y-102480666D01*
X73527590Y-102483500D01*
X61899882Y-102483500D01*
X61703503Y-102522562D01*
X61703497Y-102522564D01*
X61518508Y-102599189D01*
X61352016Y-102710434D01*
X61352015Y-102710435D01*
X58615271Y-105447181D01*
X58553948Y-105480666D01*
X58527590Y-105483500D01*
X49967931Y-105483500D01*
X49900892Y-105463815D01*
X49855137Y-105411011D01*
X49845193Y-105341853D01*
X49874218Y-105278297D01*
X49911636Y-105249015D01*
X49936833Y-105236175D01*
X50125845Y-105139870D01*
X50329656Y-104991793D01*
X50507793Y-104813656D01*
X50655870Y-104609845D01*
X50770241Y-104385379D01*
X50848090Y-104145785D01*
X50887500Y-103896962D01*
X50887500Y-103645038D01*
X50848090Y-103396215D01*
X50770241Y-103156621D01*
X50770239Y-103156618D01*
X50770239Y-103156616D01*
X50728747Y-103075184D01*
X50655870Y-102932155D01*
X50589401Y-102840668D01*
X50507798Y-102728350D01*
X50507794Y-102728345D01*
X50329654Y-102550205D01*
X50329649Y-102550201D01*
X50125848Y-102402132D01*
X50125847Y-102402131D01*
X50125845Y-102402130D01*
X50055747Y-102366413D01*
X49901383Y-102287760D01*
X49661785Y-102209910D01*
X49412962Y-102170500D01*
X49161038Y-102170500D01*
X49036626Y-102190205D01*
X48912214Y-102209910D01*
X48672616Y-102287760D01*
X48448151Y-102402132D01*
X48244350Y-102550201D01*
X48244345Y-102550205D01*
X48066205Y-102728345D01*
X48066201Y-102728350D01*
X47918132Y-102932151D01*
X47803760Y-103156616D01*
X47725910Y-103396214D01*
X47686500Y-103645038D01*
X47686500Y-103896961D01*
X47725910Y-104145785D01*
X47803760Y-104385383D01*
X47918132Y-104609848D01*
X48066201Y-104813649D01*
X48066205Y-104813654D01*
X48244345Y-104991794D01*
X48244350Y-104991798D01*
X48327085Y-105051908D01*
X48448155Y-105139870D01*
X48626079Y-105230526D01*
X48662364Y-105249015D01*
X48713160Y-105296990D01*
X48729955Y-105364811D01*
X48707418Y-105430946D01*
X48652702Y-105474397D01*
X48606069Y-105483500D01*
X38899882Y-105483500D01*
X38883591Y-105486740D01*
X38867300Y-105489981D01*
X38703505Y-105522562D01*
X38703497Y-105522564D01*
X38563699Y-105580471D01*
X38563698Y-105580471D01*
X38518508Y-105599188D01*
X38518505Y-105599190D01*
X38352022Y-105710430D01*
X38352014Y-105710436D01*
X35499427Y-108563025D01*
X34852019Y-109210433D01*
X34781226Y-109281226D01*
X34710433Y-109352018D01*
X34599189Y-109518508D01*
X34522564Y-109703497D01*
X34522562Y-109703503D01*
X34483500Y-109899881D01*
X34483500Y-109899884D01*
X34483500Y-156899884D01*
X34483500Y-157100116D01*
X34483500Y-157100118D01*
X34483499Y-157100118D01*
X33531455Y-157100118D01*
X33684799Y-114930184D01*
X33718104Y-105771479D01*
X33749551Y-97123549D01*
X33769479Y-97056582D01*
X33822449Y-97011019D01*
X33873550Y-97000000D01*
X96626452Y-97000000D01*
X96693491Y-97019685D01*
G37*
%TD.AperFunction*%
%TD*%
M02*
