M48
; DRILL file {KiCad 9.0.6} date 2025-11-19T16:18:54-0800
; FORMAT={-:-/ absolute / inch / decimal}
; #@! TF.CreationDate,2025-11-19T16:18:54-08:00
; #@! TF.GenerationSoftware,Kicad,Pcbnew,9.0.6
; #@! TF.FileFunction,MixedPlating,1,2
FMAT,2
INCH
; #@! TA.AperFunction,Plated,PTH,ComponentDrill
T1C0.0315
; #@! TA.AperFunction,Plated,PTH,ComponentDrill
T2C0.0354
; #@! TA.AperFunction,Plated,PTH,ComponentDrill
T3C0.0394
; #@! TA.AperFunction,NonPlated,NPTH,ComponentDrill
T4C0.0984
; #@! TA.AperFunction,NonPlated,NPTH,ComponentDrill
T5C0.1000
; #@! TA.AperFunction,NonPlated,NPTH,ComponentDrill
T6C0.1063
%
G90
G05
T1
X1.6142Y-4.2791
X1.6142Y-4.5791
T2
X3.2963Y-4.1142
X3.3963Y-4.1142
T3
X1.9947Y-5.5097
X1.9947Y-6.3097
X2.0947Y-5.5097
X2.0947Y-6.3097
X2.1604Y-5.2455
X2.1947Y-5.5097
X2.1947Y-6.3097
X2.2604Y-5.2455
X2.2947Y-5.5097
X2.2947Y-6.3097
X2.3604Y-5.2455
X2.3947Y-5.5097
X2.3947Y-6.3097
X2.4604Y-5.2455
X2.4947Y-5.5097
X2.4947Y-6.3097
X2.5604Y-5.2455
X2.5947Y-5.5097
X2.5947Y-6.3097
X2.6604Y-5.2455
X2.6947Y-5.5097
X2.6947Y-6.3097
X2.7604Y-5.2455
X2.7947Y-5.5097
X2.7947Y-6.3097
X2.8604Y-5.2455
X2.8947Y-5.5097
X2.8947Y-6.3097
X2.9947Y-5.5097
X2.9947Y-6.3097
X3.0947Y-5.5097
X3.0947Y-6.3097
X3.1947Y-5.5097
X3.2947Y-5.5097
X3.353Y-4.9803
X3.3947Y-5.5097
X3.4947Y-5.5097
X3.6522Y-4.9803
T4
X3.6447Y-5.5597
X3.6447Y-6.2597
T5
X1.8447Y-5.5597
X1.8447Y-6.2597
T6
X1.9404Y-4.0855
X1.9404Y-5.2455
X3.0804Y-4.0855
X3.0804Y-5.2455
M30
