%TF.GenerationSoftware,KiCad,Pcbnew,9.0.6*%
%TF.CreationDate,2025-11-20T18:32:29-08:00*%
%TF.ProjectId,pcb_test,7063625f-7465-4737-942e-6b696361645f,rev?*%
%TF.SameCoordinates,Original*%
%TF.FileFunction,Copper,L2,Bot*%
%TF.FilePolarity,Positive*%
%FSLAX46Y46*%
G04 Gerber Fmt 4.6, Leading zero omitted, Abs format (unit mm)*
G04 Created by KiCad (PCBNEW 9.0.6) date 2025-11-20 18:32:29*
%MOMM*%
%LPD*%
G01*
G04 APERTURE LIST*
%TA.AperFunction,ComponentPad*%
%ADD10C,1.700000*%
%TD*%
%TA.AperFunction,ComponentPad*%
%ADD11R,1.700000X1.700000*%
%TD*%
%TA.AperFunction,ComponentPad*%
%ADD12O,1.600000X2.600000*%
%TD*%
%TA.AperFunction,ComponentPad*%
%ADD13R,1.600000X2.600000*%
%TD*%
%TA.AperFunction,WasherPad*%
%ADD14C,3.200000*%
%TD*%
%TA.AperFunction,ComponentPad*%
%ADD15C,1.600000*%
%TD*%
%TA.AperFunction,ComponentPad*%
%ADD16C,1.800000*%
%TD*%
%TA.AperFunction,ComponentPad*%
%ADD17R,1.800000X1.800000*%
%TD*%
%TA.AperFunction,ComponentPad*%
%ADD18C,2.000000*%
%TD*%
%TA.AperFunction,ComponentPad*%
%ADD19R,2.000000X2.000000*%
%TD*%
%TA.AperFunction,Conductor*%
%ADD20C,0.406400*%
%TD*%
%TA.AperFunction,Conductor*%
%ADD21C,1.270000*%
%TD*%
G04 APERTURE END LIST*
D10*
%TO.P,REF\u002A\u002A,8*%
%TO.N,GND*%
X74811800Y-133235000D03*
%TO.P,REF\u002A\u002A,7*%
%TO.N,3.3V*%
X72271800Y-133235000D03*
%TO.P,REF\u002A\u002A,6*%
%TO.N,N/C*%
X69731800Y-133235000D03*
%TO.P,REF\u002A\u002A,5*%
X67191800Y-133235000D03*
%TO.P,REF\u002A\u002A,4*%
%TO.N,Net-(D1-A)*%
X64651800Y-133235000D03*
%TO.P,REF\u002A\u002A,3*%
%TO.N,N/C*%
X62111800Y-133235000D03*
%TO.P,REF\u002A\u002A,2*%
%TO.N,Net-(DISP1-clk)*%
X59571800Y-133235000D03*
D11*
%TO.P,REF\u002A\u002A,1*%
%TO.N,N/C*%
X57031800Y-133235000D03*
%TD*%
D12*
%TO.P,esp32,28*%
%TO.N,N/C*%
X51081800Y-159967500D03*
%TO.P,esp32,27*%
X53621800Y-159967500D03*
%TO.P,esp32,26*%
X56161800Y-159967500D03*
%TO.P,esp32,25*%
X58701800Y-159967500D03*
%TO.P,esp32,24*%
X61241800Y-159967500D03*
%TO.P,esp32,23*%
X63781800Y-159967500D03*
%TO.P,esp32,22*%
X66321800Y-159967500D03*
%TO.P,esp32,21*%
X68861800Y-159967500D03*
%TO.P,esp32,20*%
X71401800Y-159967500D03*
%TO.P,esp32,19*%
%TO.N,Net-(D1-A)*%
X73941800Y-159967500D03*
%TO.P,esp32,18*%
%TO.N,Net-(DISP1-clk)*%
X76481800Y-159967500D03*
%TO.P,esp32,17*%
%TO.N,N/C*%
X79021800Y-159967500D03*
%TO.P,esp32,16*%
X79021800Y-140247500D03*
%TO.P,esp32,15*%
X76481800Y-140247500D03*
%TO.P,esp32,14*%
X73941800Y-140247500D03*
%TO.P,esp32,13*%
X71401800Y-140247500D03*
%TO.P,esp32,12*%
X68861800Y-140247500D03*
%TO.P,esp32,11*%
X66321800Y-140247500D03*
%TO.P,esp32,10*%
X63781800Y-140247500D03*
%TO.P,esp32,9*%
X61241800Y-140247500D03*
%TO.P,esp32,8*%
X58701800Y-140247500D03*
%TO.P,esp32,7*%
X56161800Y-140247500D03*
%TO.P,esp32,6*%
X53621800Y-140247500D03*
%TO.P,esp32,5*%
X51081800Y-140247500D03*
%TO.P,esp32,4*%
%TO.N,GND*%
X48541800Y-140247500D03*
%TO.P,esp32,3*%
%TO.N,N/C*%
X46001800Y-140247500D03*
%TO.P,esp32,2*%
%TO.N,3.3V*%
X43461800Y-140247500D03*
D13*
%TO.P,esp32,1*%
%TO.N,N/C*%
X40921800Y-140247500D03*
D14*
%TO.P,esp32,*%
%TO.N,*%
X37111800Y-158997500D03*
X37111800Y-141217500D03*
%TD*%
D15*
%TO.P,REF\u002A\u002A,2*%
%TO.N,N/C*%
X88686800Y-108690000D03*
%TO.P,REF\u002A\u002A,1*%
X88686800Y-116310000D03*
%TD*%
D16*
%TO.P,LED,2*%
%TO.N,N/C*%
X43421800Y-104500000D03*
D17*
%TO.P,LED,1*%
%TO.N,GND*%
X45961800Y-104500000D03*
%TD*%
D18*
%TO.P,BUZ,2*%
%TO.N,GND*%
X44521800Y-126500000D03*
D19*
%TO.P,BUZ,1*%
%TO.N,N/C*%
X36921800Y-126500000D03*
%TD*%
D20*
%TO.N,*%
X95186800Y-111000000D02*
X95186800Y-155250000D01*
X95186800Y-155250000D02*
X84686800Y-165750000D01*
X63436800Y-165750000D02*
X61241800Y-163555000D01*
X67876800Y-108690000D02*
X66186800Y-107000000D01*
X92186800Y-128500000D02*
X92186800Y-152250000D01*
X44436800Y-100250000D02*
X43451200Y-101235600D01*
X63781800Y-162595000D02*
X65686800Y-164500000D01*
X64186800Y-121250000D02*
X84936800Y-121250000D01*
X55686800Y-103500000D02*
X67686800Y-103500000D01*
X43421800Y-104500000D02*
X43186800Y-104265000D01*
X67686800Y-103500000D02*
X70686800Y-106500000D01*
X84686800Y-165750000D02*
X63436800Y-165750000D01*
X88686800Y-108690000D02*
X67876800Y-108690000D01*
X43451200Y-101235600D02*
X43451200Y-101985600D01*
X79021800Y-159165000D02*
X79021800Y-160267500D01*
X50936800Y-107000000D02*
X48936800Y-105000000D01*
X81436800Y-156750000D02*
X79021800Y-159165000D01*
X48936800Y-105000000D02*
X48936800Y-101250000D01*
X65686800Y-164500000D02*
X82936800Y-164500000D01*
X50936800Y-98750000D02*
X55686800Y-103500000D01*
X40186800Y-102000000D02*
X43436800Y-98750000D01*
X43421800Y-102015000D02*
X43421800Y-104500000D01*
X57186800Y-128250000D02*
X64186800Y-121250000D01*
X63781800Y-160595000D02*
X63781800Y-162595000D01*
X93686800Y-125500000D02*
X88686800Y-120500000D01*
X93686800Y-153750000D02*
X93686800Y-125500000D01*
X66186800Y-107000000D02*
X50936800Y-107000000D01*
X84936800Y-121250000D02*
X92186800Y-128500000D01*
X36921800Y-126500000D02*
X40186800Y-123235000D01*
X88686800Y-120500000D02*
X88686800Y-116310000D01*
X43451200Y-101985600D02*
X43421800Y-102015000D01*
X92186800Y-152250000D02*
X87686800Y-156750000D01*
X47936800Y-100250000D02*
X44436800Y-100250000D01*
X43436800Y-98750000D02*
X50936800Y-98750000D01*
X40186800Y-123235000D02*
X40186800Y-102000000D01*
X48936800Y-101250000D02*
X47936800Y-100250000D01*
X87686800Y-156750000D02*
X81436800Y-156750000D01*
X61241800Y-163555000D02*
X61241800Y-160267500D01*
X70686800Y-106500000D02*
X90686800Y-106500000D01*
X57186800Y-133500000D02*
X57186800Y-128250000D01*
X82936800Y-164500000D02*
X93686800Y-153750000D01*
X90686800Y-106500000D02*
X95186800Y-111000000D01*
D21*
%TO.N,GND*%
X48715800Y-136500000D02*
X47686800Y-135471000D01*
X47686800Y-135471000D02*
X47686800Y-129665000D01*
X48541800Y-136674000D02*
X48541800Y-139947500D01*
X74811800Y-133235000D02*
X74811800Y-135125000D01*
X47686800Y-129665000D02*
X44521800Y-126500000D01*
X74811800Y-135125000D02*
X73436800Y-136500000D01*
X44521800Y-108665000D02*
X45961800Y-107225000D01*
X73436800Y-136500000D02*
X48715800Y-136500000D01*
X44521800Y-126500000D02*
X44521800Y-108665000D01*
X45961800Y-107225000D02*
X45961800Y-104500000D01*
X48715800Y-136500000D02*
X48541800Y-136674000D01*
D20*
%TO.N,Net-(D1-A)*%
X88436800Y-151750000D02*
X88436800Y-130000000D01*
X71686800Y-125000000D02*
X64651800Y-132035000D01*
X88436800Y-130000000D02*
X83436800Y-125000000D01*
X83436800Y-125000000D02*
X71686800Y-125000000D01*
X78936800Y-153250000D02*
X86936800Y-153250000D01*
X64651800Y-132035000D02*
X64651800Y-133235000D01*
X73941800Y-160267500D02*
X73941800Y-158245000D01*
X64651800Y-133465000D02*
X64686800Y-133500000D01*
X73941800Y-158245000D02*
X78936800Y-153250000D01*
X86936800Y-153250000D02*
X88436800Y-151750000D01*
%TO.N,Net-(DISP1-clk)*%
X76481800Y-158705000D02*
X76481800Y-160267500D01*
X59571800Y-130115000D02*
X66686800Y-123000000D01*
X66686800Y-123000000D02*
X84186800Y-123000000D01*
X80436800Y-154750000D02*
X76481800Y-158705000D01*
X90436800Y-129250000D02*
X90436800Y-151750000D01*
X84186800Y-123000000D02*
X90436800Y-129250000D01*
X59571800Y-133235000D02*
X59571800Y-130115000D01*
X90436800Y-151750000D02*
X87436800Y-154750000D01*
X87436800Y-154750000D02*
X80436800Y-154750000D01*
D21*
%TO.N,3.3V*%
X81186800Y-130000000D02*
X73186800Y-130000000D01*
X45786648Y-144000000D02*
X83686800Y-144000000D01*
X73186800Y-130000000D02*
X72271800Y-130915000D01*
X83686800Y-144000000D02*
X85686800Y-142000000D01*
X85686800Y-142000000D02*
X85686800Y-134500000D01*
X85686800Y-134500000D02*
X81186800Y-130000000D01*
X43461800Y-141675152D02*
X45786648Y-144000000D01*
X72271800Y-130915000D02*
X72271800Y-133184000D01*
X43461800Y-139947500D02*
X43461800Y-141675152D01*
%TD*%
M02*
