M48
; DRILL file {KiCad 9.0.6} date 2025-11-20T18:32:35-0800
; FORMAT={-:-/ absolute / inch / decimal}
; #@! TF.CreationDate,2025-11-20T18:32:35-08:00
; #@! TF.GenerationSoftware,Kicad,Pcbnew,9.0.6
; #@! TF.FileFunction,MixedPlating,1,2
FMAT,2
INCH
; #@! TA.AperFunction,Plated,PTH,ComponentDrill
T1C0.0315
; #@! TA.AperFunction,Plated,PTH,ComponentDrill
T2C0.0354
; #@! TA.AperFunction,Plated,PTH,ComponentDrill
T3C0.0394
; #@! TA.AperFunction,NonPlated,NPTH,ComponentDrill
T4C0.0984
; #@! TA.AperFunction,NonPlated,NPTH,ComponentDrill
T5C0.1000
; #@! TA.AperFunction,NonPlated,NPTH,ComponentDrill
T6C0.1063
%
G90
G05
T1
X3.4916Y-4.2791
X3.4916Y-4.5791
T2
X1.7095Y-4.1142
X1.8095Y-4.1142
T3
X1.4536Y-4.9803
X1.6111Y-5.5097
X1.7111Y-5.5097
X1.7528Y-4.9803
X1.8111Y-5.5097
X1.9111Y-5.5097
X2.0111Y-5.5097
X2.0111Y-6.3097
X2.1111Y-5.5097
X2.1111Y-6.3097
X2.2111Y-5.5097
X2.2111Y-6.3097
X2.2453Y-5.2455
X2.3111Y-5.5097
X2.3111Y-6.3097
X2.3453Y-5.2455
X2.4111Y-5.5097
X2.4111Y-6.3097
X2.4453Y-5.2455
X2.5111Y-5.5097
X2.5111Y-6.3097
X2.5453Y-5.2455
X2.6111Y-5.5097
X2.6111Y-6.3097
X2.6453Y-5.2455
X2.7111Y-5.5097
X2.7111Y-6.3097
X2.7453Y-5.2455
X2.8111Y-5.5097
X2.8111Y-6.3097
X2.8453Y-5.2455
X2.9111Y-5.5097
X2.9111Y-6.3097
X2.9453Y-5.2455
X3.0111Y-5.5097
X3.0111Y-6.3097
X3.1111Y-5.5097
X3.1111Y-6.3097
T4
X1.4611Y-5.5597
X1.4611Y-6.2597
T5
X3.2611Y-5.5597
X3.2611Y-6.2597
T6
X2.0253Y-4.0855
X2.0253Y-5.2455
X3.1653Y-4.0855
X3.1653Y-5.2455
M30
