M48
; DRILL file {KiCad 9.0.6} date 2025-11-19T13:45:03-0800
; FORMAT={-:-/ absolute / metric / decimal}
; #@! TF.CreationDate,2025-11-19T13:45:03-08:00
; #@! TF.GenerationSoftware,Kicad,Pcbnew,9.0.6
; #@! TF.FileFunction,MixedPlating,1,2
FMAT,2
METRIC
; #@! TA.AperFunction,Plated,PTH,ComponentDrill
T1C0.800
; #@! TA.AperFunction,Plated,PTH,ComponentDrill
T2C0.900
; #@! TA.AperFunction,Plated,PTH,ComponentDrill
T3C1.000
; #@! TA.AperFunction,NonPlated,NPTH,ComponentDrill
T4C2.500
; #@! TA.AperFunction,NonPlated,NPTH,ComponentDrill
T5C2.540
; #@! TA.AperFunction,NonPlated,NPTH,ComponentDrill
T6C2.700
%
G90
G05
T1
X41.0Y-108.69
X41.0Y-116.31
T2
X83.725Y-104.5
X86.265Y-104.5
T3
X50.665Y-139.947
X50.665Y-160.267
X53.205Y-139.947
X53.205Y-160.267
X54.875Y-133.235
X55.745Y-139.947
X55.745Y-160.267
X57.415Y-133.235
X58.285Y-139.947
X58.285Y-160.267
X59.955Y-133.235
X60.825Y-139.947
X60.825Y-160.267
X62.495Y-133.235
X63.365Y-139.947
X63.365Y-160.267
X65.035Y-133.235
X65.905Y-139.947
X65.905Y-160.267
X67.575Y-133.235
X68.445Y-139.947
X68.445Y-160.267
X70.115Y-133.235
X70.985Y-139.947
X70.985Y-160.267
X72.655Y-133.235
X73.525Y-139.947
X73.525Y-160.267
X76.065Y-139.947
X76.065Y-160.267
X78.605Y-139.947
X78.605Y-160.267
X81.145Y-139.947
X83.685Y-139.947
X85.165Y-126.5
X86.225Y-139.947
X88.765Y-139.947
X92.765Y-126.5
T4
X92.575Y-141.218
X92.575Y-158.998
T5
X46.855Y-141.218
X46.855Y-158.998
T6
X49.287Y-103.771
X49.287Y-133.235
X78.243Y-103.771
X78.243Y-133.235
M30
