999
Created by JSCAD
  0
SECTION
  2
HEADER
  9
$ACADVER
  1
AC1027
  9
$ACADMAINTVER
 70
8
  9
$DWGCODEPAGE
  3
ANSI_1252
  9
$LASTSAVEDBY
  1
unknown
  9
$REQUIREDVERSIONS
160
0
  9
$INSBASE
 10
0.0
 20
0.0
 30
0.0
  9
$EXTMIN
 10
1e+20
 20
1e+20
 30
1e+20
  9
$EXTMAX
 10
-1e+20
 20
-1e+20
 30
-1e+20
  9
$LIMMIN
 10
0.0
 20
0.0
  9
$LIMMAX
 10
12.0
 20
9.0
  9
$ORTHOMODE
 70
0
  9
$REGENMODE
 70
1
  9
$FILLMODE
 70
1
  9
$QTEXTMODE
 70
0
  9
$MIRRTEXT
 70
0
  9
$LTSCALE
 40
1.0
  9
$ATTMODE
 70
1
  9
$TEXTSIZE
 40
0.2
  9
$TRACEWID
 40
0.05
  9
$TEXTSTYLE
  7
Notes
  9
$CLAYER
  8
0
  9
$CELTYPE
  6
ByLayer
  9
$CECOLOR
 62
256
  9
$CELTSCALE
 40
1.0
  9
$DISPSILH
 70
0
  9
$DIMSCALE
 40
1.0
  9
$DIMASZ
 40
3.0
  9
$DIMEXO
 40
1.5
  9
$DIMDLI
 40
6.0
  9
$DIMRND
 40
0.0
  9
$DIMDLE
 40
0.0
  9
$DIMEXE
 40
3.0
  9
$DIMTP
 40
0.0
  9
$DIMTM
 40
0.0
  9
$DIMTXT
 40
3.0
  9
$DIMCEN
 40
3.0
  9
$DIMTSZ
 40
0.0
  9
$DIMTOL
 70
0
  9
$DIMLIM
 70
0
  9
$DIMTIH
 70
0
  9
$DIMTOH
 70
0
  9
$DIMSE1
 70
0
  9
$DIMSE2
 70
0
  9
$DIMTAD
 70
1
  9
$DIMZIN
 70
3
  9
$DIMBLK
  1

  9
$DIMASO
 70
1
  9
$DIMSHO
 70
1
  9
$DIMPOST
  1

  9
$DIMAPOST
  1

  9
$DIMALT
 70
0
  9
$DIMALTD
 70
2
  9
$DIMALTF
 40
25.4
  9
$DIMLFAC
 40
1.0
  9
$DIMTOFL
 70
0
  9
$DIMTVP
 40
0.0
  9
$DIMTIX
 70
0
  9
$DIMSOXD
 70
0
  9
$DIMSAH
 70
0
  9
$DIMBLK1
  1

  9
$DIMBLK2
  1

  9
$DIMSTYLE
  2
Civil-Metric
  9
$DIMCLRD
 70
0
  9
$DIMCLRE
 70
0
  9
$DIMCLRT
 70
0
  9
$DIMTFAC
 40
1.0
  9
$DIMGAP
 40
2.0
  9
$DIMJUST
 70
0
  9
$DIMSD1
 70
0
  9
$DIMSD2
 70
0
  9
$DIMTOLJ
 70
1
  9
$DIMTZIN
 70
0
  9
$DIMALTZ
 70
0
  9
$DIMALTTZ
 70
0
  9
$DIMUPT
 70
0
  9
$DIMDEC
 70
2
  9
$DIMTDEC
 70
2
  9
$DIMALTU
 70
2
  9
$DIMALTTD
 70
2
  9
$DIMTXSTY
  7
Standard
  9
$DIMAUNIT
 70
0
  9
$DIMADEC
 70
2
  9
$DIMALTRND
 40
0.0
  9
$DIMAZIN
 70
2
  9
$DIMDSEP
 70
46
  9
$DIMATFIT
 70
3
  9
$DIMFRAC
 70
1
  9
$DIMLDRBLK
  1

  9
$DIMLUNIT
 70
2
  9
$DIMLWD
 70
-2
  9
$DIMLWE
 70
-2
  9
$DIMTMOVE
 70
0
  9
$DIMFXL
 40
1.0
  9
$DIMFXLON
 70
0
  9
$DIMJOGANG
 40
0.785398163397
  9
$DIMTFILL
 70
0
  9
$DIMTFILLCLR
 70
0
  9
$DIMARCSYM
 70
0
  9
$DIMLTYPE
  6

  9
$DIMLTEX1
  6

  9
$DIMLTEX2
  6

  9
$DIMTXTDIRECTION
 70
0
  9
$LUNITS
 70
2
  9
$LUPREC
 70
4
  9
$SKETCHINC
 40
0.1
  9
$FILLETRAD
 40
0.0
  9
$AUNITS
 70
4
  9
$AUPREC
 70
5
  9
$MENU
  1
.
  9
$ELEVATION
 40
0.0
  9
$PELEVATION
 40
0.0
  9
$THICKNESS
 40
0.0
  9
$LIMCHECK
 70
0
  9
$CHAMFERA
 40
0.0
  9
$CHAMFERB
 40
0.0
  9
$CHAMFERC
 40
0.0
  9
$CHAMFERD
 40
0.0
  9
$SKPOLY
 70
0
  9
$TDCREATE
 40
2457986.69756
  9
$TDUCREATE
 40
2455631.2632
  9
$TDUPDATE
 40
2457986.69756
  9
$TDUUPDATE
 40
2456436.43179
  9
$TDINDWG
 40
0.0003490741
  9
$TDUSRTIMER
 40
0.0003487153
  9
$USRTIMER
 70
1
  9
$ANGBASE
 50
0.0
  9
$ANGDIR
 70
0
  9
$PDMODE
 70
0
  9
$PDSIZE
 40
0.0
  9
$PLINEWID
 40
0.0
  9
$SPLFRAME
 70
0
  9
$SPLINETYPE
 70
6
  9
$SPLINESEGS
 70
8
  9
$HANDSEED
  5
5C7
  9
$SURFTAB1
 70
6
  9
$SURFTAB2
 70
6
  9
$SURFTYPE
 70
6
  9
$SURFU
 70
6
  9
$SURFV
 70
6
  9
$UCSBASE
  2

  9
$UCSNAME
  2

  9
$UCSORG
 10
0.0
 20
0.0
 30
0.0
  9
$UCSXDIR
 10
1.0
 20
0.0
 30
0.0
  9
$UCSYDIR
 10
0.0
 20
1.0
 30
0.0
  9
$UCSORTHOREF
  2

  9
$UCSORTHOVIEW
 70
0
  9
$UCSORGTOP
 10
0.0
 20
0.0
 30
0.0
  9
$UCSORGBOTTOM
 10
0.0
 20
0.0
 30
0.0
  9
$UCSORGLEFT
 10
0.0
 20
0.0
 30
0.0
  9
$UCSORGRIGHT
 10
0.0
 20
0.0
 30
0.0
  9
$UCSORGFRONT
 10
0.0
 20
0.0
 30
0.0
  9
$UCSORGBACK
 10
0.0
 20
0.0
 30
0.0
  9
$PUCSBASE
  2

  9
$PUCSNAME
  2

  9
$PUCSORG
 10
0.0
 20
0.0
 30
0.0
  9
$PUCSXDIR
 10
1.0
 20
0.0
 30
0.0
  9
$PUCSYDIR
 10
0.0
 20
1.0
 30
0.0
  9
$PUCSORTHOREF
  2

  9
$PUCSORTHOVIEW
 70
0
  9
$PUCSORGTOP
 10
0.0
 20
0.0
 30
0.0
  9
$PUCSORGBOTTOM
 10
0.0
 20
0.0
 30
0.0
  9
$PUCSORGLEFT
 10
0.0
 20
0.0
 30
0.0
  9
$PUCSORGRIGHT
 10
0.0
 20
0.0
 30
0.0
  9
$PUCSORGFRONT
 10
0.0
 20
0.0
 30
0.0
  9
$PUCSORGBACK
 10
0.0
 20
0.0
 30
0.0
  9
$USERI1
 70
0
  9
$USERI2
 70
0
  9
$USERI3
 70
0
  9
$USERI4
 70
0
  9
$USERI5
 70
0
  9
$USERR1
 40
0.0
  9
$USERR2
 40
0.0
  9
$USERR3
 40
0.0
  9
$USERR4
 40
0.0
  9
$USERR5
 40
0.0
  9
$WORLDVIEW
 70
1
  9
$SHADEDGE
 70
3
  9
$SHADEDIF
 70
70
  9
$TILEMODE
 70
1
  9
$MAXACTVP
 70
64
  9
$PINSBASE
 10
0.0
 20
0.0
 30
0.0
  9
$PLIMCHECK
 70
0
  9
$PEXTMIN
 10
0.628866766397
 20
0.799999952316
 30
0.0
  9
$PEXTMAX
 10
9.02886638493
 20
7.19999957085
 30
0.0
  9
$PLIMMIN
 10
-0.700541819174
 20
-0.228100386192
  9
$PLIMMAX
 10
10.2994579405
 20
8.27189937351
  9
$UNITMODE
 70
0
  9
$VISRETAIN
 70
1
  9
$PLINEGEN
 70
0
  9
$PSLTSCALE
 70
1
  9
$TREEDEPTH
 70
3020
  9
$CMLSTYLE
  2
Standard
  9
$CMLJUST
 70
0
  9
$CMLSCALE
 40
1.0
  9
$PROXYGRAPHICS
 70
1
  9
$MEASUREMENT
 70
1
  9
$CELWEIGHT
370
-1
  9
$ENDCAPS
280
0
  9
$JOINSTYLE
280
0
  9
$LWDISPLAY
290
0
  9
$INSUNITS
 70
4
  9
$HYPERLINKBASE
  1

  9
$STYLESHEET
  1

  9
$XEDIT
290
1
  9
$CEPSNTYPE
380
0
  9
$PSTYLEMODE
290
1
  9
$FINGERPRINTGUID
  2
{39DB1BDD-BC6C-46D3-A333-DFCC0DC4782D}
  9
$VERSIONGUID
  2
{69EEBB2D-7039-498F-9366-3F994E4A07E7}
  9
$EXTNAMES
290
1
  9
$PSVPSCALE
 40
0.0
  9
$OLESTARTUP
290
0
  9
$SORTENTS
280
127
  9
$INDEXCTL
280
0
  9
$HIDETEXT
280
1
  9
$XCLIPFRAME
280
0
  9
$HALOGAP
280
0
  9
$OBSCOLOR
 70
257
  9
$OBSLTYPE
280
0
  9
$INTERSECTIONDISPLAY
280
0
  9
$INTERSECTIONCOLOR
 70
257
  9
$DIMASSOC
280
2
  9
$PROJECTNAME
  1

  9
$CAMERADISPLAY
290
0
  9
$LENSLENGTH
 40
50.0
  9
$CAMERAHEIGHT
 40
0.0
  9
$STEPSPERSEC
 40
2.0
  9
$STEPSIZE
 40
6.0
  9
$3DDWFPREC
 40
2.0
  9
$PSOLWIDTH
 40
0.25
  9
$PSOLHEIGHT
 40
4.0
  9
$LOFTANG1
 40
1.57079632679
  9
$LOFTANG2
 40
1.57079632679
  9
$LOFTMAG1
 40
0.0
  9
$LOFTMAG2
 40
0.0
  9
$LOFTPARAM
 70
7
  9
$LOFTNORMALS
280
1
  9
$LATITUDE
 40
37.795
  9
$LONGITUDE
 40
-122.394
  9
$NORTHDIRECTION
 40
0.0
  9
$TIMEZONE
 70
-8000
  9
$LIGHTGLYPHDISPLAY
280
1
  9
$TILEMODELIGHTSYNCH
280
1
  9
$CMATERIAL
347
96
  9
$SOLIDHIST
280
1
  9
$SHOWHIST
280
1
  9
$DWFFRAME
280
2
  9
$DGNFRAME
280
0
  9
$REALWORLDSCALE
290
1
  9
$INTERFERECOLOR
 62
1
  9
$INTERFEREOBJVS
345
A3
  9
$INTERFEREVPVS
346
A0
  9
$CSHADOW
280
0
  9
$SHADOWPLANELOCATION
 40
0.0
  0
ENDSEC
  0
SECTION
  2
CLASSES
  0
CLASS
  1
ACDBDICTIONARYWDFLT
  2
AcDbDictionaryWithDefault
  3
ObjectDBX Classes
 90
0
 91
1
280
0
281
0
  0
CLASS
  1
DICTIONARYVAR
  2
AcDbDictionaryVar
  3
ObjectDBX Classes
 90
0
 91
15
280
0
281
0
  0
CLASS
  1
TABLESTYLE
  2
AcDbTableStyle
  3
ObjectDBX Classes
 90
4095
 91
1
280
0
281
0
  0
CLASS
  1
MATERIAL
  2
AcDbMaterial
  3
ObjectDBX Classes
 90
1153
 91
3
280
0
281
0
  0
CLASS
  1
VISUALSTYLE
  2
AcDbVisualStyle
  3
ObjectDBX Classes
 90
4095
 91
26
280
0
281
0
  0
CLASS
  1
SCALE
  2
AcDbScale
  3
ObjectDBX Classes
 90
1153
 91
17
280
0
281
0
  0
CLASS
  1
MLEADERSTYLE
  2
AcDbMLeaderStyle
  3
ACDB_MLEADERSTYLE_CLASS
 90
4095
 91
3
280
0
281
0
  0
CLASS
  1
CELLSTYLEMAP
  2
AcDbCellStyleMap
  3
ObjectDBX Classes
 90
1152
 91
2
280
0
281
0
  0
CLASS
  1
EXACXREFPANELOBJECT
  2
ExAcXREFPanelObject
  3
EXAC_ESW
 90
1025
 91
0
280
0
281
0
  0
CLASS
  1
NPOCOLLECTION
  2
AcDbImpNonPersistentObjectsCollection
  3
ObjectDBX Classes
 90
1153
 91
0
280
0
281
0
  0
CLASS
  1
LAYER_INDEX
  2
AcDbLayerIndex
  3
ObjectDBX Classes
 90
0
 91
0
280
0
281
0
  0
CLASS
  1
SPATIAL_INDEX
  2
AcDbSpatialIndex
  3
ObjectDBX Classes
 90
0
 91
0
280
0
281
0
  0
CLASS
  1
IDBUFFER
  2
AcDbIdBuffer
  3
ObjectDBX Classes
 90
0
 91
0
280
0
281
0
  0
CLASS
  1
DIMASSOC
  2
AcDbDimAssoc
  3
"AcDbDimAssoc|Product Desc:     AcDim ARX App For Dimension|Company:          Autodesk, Inc.|WEB Address:      www.autodesk.com"
 90
0
 91
0
280
0
281
0
  0
CLASS
  1
ACDBSECTIONVIEWSTYLE
  2
AcDbSectionViewStyle
  3
ObjectDBX Classes
 90
1025
 91
1
280
0
281
0
  0
CLASS
  1
ACDBDETAILVIEWSTYLE
  2
AcDbDetailViewStyle
  3
ObjectDBX Classes
 90
1025
 91
1
280
0
281
0
  0
CLASS
  1
IMAGEDEF
  2
AcDbRasterImageDef
  3
ISM
 90
0
 91
1
280
0
281
0
  0
CLASS
  1
RASTERVARIABLES
  2
AcDbRasterVariables
  3
ISM
 90
0
 91
1
280
0
281
0
  0
CLASS
  1
IMAGEDEF_REACTOR
  2
AcDbRasterImageDefReactor
  3
ISM
 90
1
 91
1
280
0
281
0
  0
CLASS
  1
IMAGE
  2
AcDbRasterImage
  3
ISM
 90
2175
 91
1
280
0
281
1
  0
CLASS
  1
PDFDEFINITION
  2
AcDbPdfDefinition
  3
ObjectDBX Classes
 90
1153
 91
1
280
0
281
0
  0
CLASS
  1
PDFUNDERLAY
  2
AcDbPdfReference
  3
ObjectDBX Classes
 90
4095
 91
1
280
0
281
1
  0
CLASS
  1
DWFDEFINITION
  2
AcDbDwfDefinition
  3
ObjectDBX Classes
 90
1153
 91
2
280
0
281
0
  0
CLASS
  1
DWFUNDERLAY
  2
AcDbDwfReference
  3
ObjectDBX Classes
 90
1153
 91
1
280
0
281
1
  0
CLASS
  1
DGNDEFINITION
  2
AcDbDgnDefinition
  3
ObjectDBX Classes
 90
1153
 91
2
280
0
281
0
  0
CLASS
  1
DGNUNDERLAY
  2
AcDbDgnReference
  3
ObjectDBX Classes
 90
1153
 91
1
280
0
281
1
  0
ENDSEC
  0
SECTION
  2
TABLES
  0
TABLE
  2
VPORT
  5
8
330
0
100
AcDbSymbolTable
 70
0
  0
ENDTAB
  0
TABLE
  2
LTYPE
  5
5F
330
0
100
AcDbSymbolTable
 70
7
  0
LTYPE
  5
14
330
5F
100
AcDbSymbolTableRecord
100
AcDbLinetypeTableRecord
  2
ByBlock
 70
0
  3

 72
65
 73
0
 40
0.0
  0
LTYPE
  5
15
330
5F
100
AcDbSymbolTableRecord
100
AcDbLinetypeTableRecord
  2
ByLayer
 70
0
  3

 72
65
 73
0
 40
0.0
  0
LTYPE
  5
16
330
5F
100
AcDbSymbolTableRecord
100
AcDbLinetypeTableRecord
  2
Continuous
 70
0
  3
Solid line
 72
65
 73
0
 40
0.0
  0
LTYPE
  5
1B1
330
5F
100
AcDbSymbolTableRecord
100
AcDbLinetypeTableRecord
  2
CENTER
 70
0
  3
Center ____ _ ____ _ ____ _ ____ _ ____ _ ____
 72
65
 73
4
 40
2.0
 49
1.25
 74
0
 49
-0.25
 74
0
 49
0.25
 74
0
 49
-0.25
 74
0
  0
LTYPE
  5
1B2
330
5F
100
AcDbSymbolTableRecord
100
AcDbLinetypeTableRecord
  2
DASHED
 70
0
  3
Dashed __ __ __ __ __ __ __ __ __ __ __ __ __ _
 72
65
 73
2
 40
0.75
 49
0.5
 74
0
 49
-0.25
 74
0
  0
LTYPE
  5
1B3
330
5F
100
AcDbSymbolTableRecord
100
AcDbLinetypeTableRecord
  2
PHANTOM
 70
0
  3
Phantom ______  __  __  ______  __  __  ______
 72
65
 73
6
 40
2.5
 49
1.25
 74
0
 49
-0.25
 74
0
 49
0.25
 74
0
 49
-0.25
 74
0
 49
0.25
 74
0
 49
-0.25
 74
0
  0
LTYPE
  5
39E
330
5F
100
AcDbSymbolTableRecord
100
AcDbLinetypeTableRecord
  2
HIDDEN
 70
0
  3
Hidden __ __ __ __ __ __ __ __ __ __ __ __ __ __
 72
65
 73
2
 40
9.525
 49
6.35
 74
0
 49
-3.175
 74
0
  0
ENDTAB
  0
TABLE
  2
LAYER
  5
2
330
0
100
AcDbSymbolTable
 70
3
  0
LAYER
  5
10
330
2
100
AcDbSymbolTableRecord
100
AcDbLayerTableRecord
  2
0
 70
0
  6
Continuous
370
-3
390
F
347
98
348
0
  0
LAYER
  5
1B4
330
2
100
AcDbSymbolTableRecord
100
AcDbLayerTableRecord
  2
View Port
 70
0
  6
Continuous
290
0
370
-3
390
F
347
98
348
0
  0
LAYER
  5
21D
330
2
100
AcDbSymbolTableRecord
100
AcDbLayerTableRecord
  2
Defpoints
 70
0
  6
Continuous
290
0
370
-3
390
F
347
98
348
0
  0
ENDTAB
  0
TABLE
  2
STYLE
  5
3
330
0
100
AcDbSymbolTable
 70
3
  0
STYLE
  5
11
330
3
100
AcDbSymbolTableRecord
100
AcDbTextStyleTableRecord
  2
Standard
 70
0
 40
0.0
 41
1.0
 50
0.0
 71
0
 42
0.2
  3
arial.ttf
  4

  0
STYLE
  5
DC
330
3
100
AcDbSymbolTableRecord
100
AcDbTextStyleTableRecord
  2
Annotative
 70
0
 40
0.0
 41
1.0
 50
0.0
 71
0
 42
0.2
  3
arial.ttf
  4

  0
STYLE
  5
178
330
3
100
AcDbSymbolTableRecord
100
AcDbTextStyleTableRecord
  2
Notes
 70
0
 40
3.0
 41
1.0
 50
0.0
 71
0
 42
0.2
  3
arial.ttf
  4

  0
ENDTAB
  0
TABLE
  2
VIEW
  5
6
330
0
100
AcDbSymbolTable
 70
0
  0
ENDTAB
  0
TABLE
  2
UCS
  5
7
330
0
100
AcDbSymbolTable
 70
0
  0
ENDTAB
  0
TABLE
  2
APPID
  5
9
330
0
100
AcDbSymbolTable
 70
12
  0
APPID
  5
12
330
9
100
AcDbSymbolTableRecord
100
AcDbRegAppTableRecord
  2
ACAD
 70
0
  0
APPID
  5
DD
330
9
100
AcDbSymbolTableRecord
100
AcDbRegAppTableRecord
  2
AcadAnnoPO
 70
0
  0
APPID
  5
DE
330
9
100
AcDbSymbolTableRecord
100
AcDbRegAppTableRecord
  2
AcadAnnotative
 70
0
  0
APPID
  5
DF
330
9
100
AcDbSymbolTableRecord
100
AcDbRegAppTableRecord
  2
ACAD_DSTYLE_DIMJAG
 70
0
  0
APPID
  5
E0
330
9
100
AcDbSymbolTableRecord
100
AcDbRegAppTableRecord
  2
ACAD_DSTYLE_DIMTALN
 70
0
  0
APPID
  5
107
330
9
100
AcDbSymbolTableRecord
100
AcDbRegAppTableRecord
  2
ACAD_MLEADERVER
 70
0
  0
APPID
  5
1B5
330
9
100
AcDbSymbolTableRecord
100
AcDbRegAppTableRecord
  2
AcAecLayerStandard
 70
0
  0
APPID
  5
1BA
330
9
100
AcDbSymbolTableRecord
100
AcDbRegAppTableRecord
  2
ACAD_EXEMPT_FROM_CAD_STANDARDS
 70
0
  0
APPID
  5
237
330
9
100
AcDbSymbolTableRecord
100
AcDbRegAppTableRecord
  2
ACAD_DSTYLE_DIMBREAK
 70
0
  0
APPID
  5
28E
330
9
100
AcDbSymbolTableRecord
100
AcDbRegAppTableRecord
  2
ACAD_PSEXT
 70
0
  0
APPID
  5
4B0
330
9
100
AcDbSymbolTableRecord
100
AcDbRegAppTableRecord
  2
ACAD_NAV_VCDISPLAY
 70
0
  0
APPID
  5
4E3
330
9
100
AcDbSymbolTableRecord
100
AcDbRegAppTableRecord
  2
HATCHBACKGROUNDCOLOR
 70
0
  0
ENDTAB
  0
TABLE
  2
DIMSTYLE
  5
A
330
0
100
AcDbSymbolTable
 70
3
100
AcDbDimStyleTable
 71
3
340
242
340
27
340
E1
  0
DIMSTYLE
105
27
330
A
100
AcDbSymbolTableRecord
100
AcDbDimStyleTableRecord
  2
Standard
 70
0
 41
3.0
 42
2.0
 43
9.0
 44
5.0
140
3.0
141
2.0
147
2.0
340
11
1001
ACAD_DSTYLE_DIMJAG
1070
388
1040
38.0
1001
ACAD_DSTYLE_DIMBREAK
1070
391
1040
90.0
1001
ACAD_DSTYLE_DIMTALN
1070
392
1070
0
  0
DIMSTYLE
105
E1
330
A
100
AcDbSymbolTableRecord
100
AcDbDimStyleTableRecord
  2
Annotative
 70
0
 40
0.0
 41
3.0
 42
2.5
 43
10.0
 44
5.0
140
3.0
141
2.0
147
2.0
340
11
1001
AcadAnnotative
1000
AnnotativeData
1002
{
1070
1
1070
1
1002
}
1001
ACAD_DSTYLE_DIMJAG
1070
388
1040
38.0
1001
ACAD_DSTYLE_DIMBREAK
1070
391
1040
90.0
1001
ACAD_DSTYLE_DIMTALN
1070
392
1070
0
  0
DIMSTYLE
105
242
330
A
100
AcDbSymbolTableRecord
100
AcDbDimStyleTableRecord
  2
Civil-Metric
 70
0
 41
3.0
 42
1.5
 43
6.0
 44
3.0
 73
0
 74
0
 77
1
 78
3
 79
2
140
3.0
141
3.0
147
2.0
179
2
271
2
272
2
276
1
340
11
1001
ACAD_DSTYLE_DIMBREAK
1070
391
1040
3.0
1001
ACAD_DSTYLE_DIMJAG
1070
388
1040
38.0
1001
ACAD_DSTYLE_DIMTALN
1070
392
1070
0
  0
ENDTAB
  0
TABLE
  2
BLOCK_RECORD
  5
1
330
0
100
AcDbSymbolTable
 70
4
  0
BLOCK_RECORD
  5
1F
330
1
100
AcDbSymbolTableRecord
100
AcDbBlockTableRecord
  2
*Model_Space
340
530
 70
0
280
1
281
0
  0
BLOCK_RECORD
  5
58
330
1
100
AcDbSymbolTableRecord
100
AcDbBlockTableRecord
  2
*Paper_Space
340
531
 70
0
280
1
281
0
  0
BLOCK_RECORD
  5
238
330
1
100
AcDbSymbolTableRecord
100
AcDbBlockTableRecord
  2
_ArchTick
340
0
 70
0
280
1
281
0
  0
BLOCK_RECORD
  5
23C
330
1
100
AcDbSymbolTableRecord
100
AcDbBlockTableRecord
  2
_Open30
340
0
 70
0
280
1
281
0
  0
ENDTAB
  0
ENDSEC
  0
SECTION
  2
BLOCKS
  0
BLOCK
  5
23A
330
238
100
AcDbEntity
  8
0
100
AcDbBlockBegin
  2
_ArchTick
 70
0
 10
0.0
 20
0.0
 30
0.0
  3
_ArchTick
  1

  0
ENDBLK
  5
23B
330
238
100
AcDbEntity
  8
0
100
AcDbBlockEnd
  0
BLOCK
  5
20
330
1F
100
AcDbEntity
  8
0
100
AcDbBlockBegin
  2
*Model_Space
 70
0
 10
0.0
 20
0.0
 30
0.0
  3
*Model_Space
  1

  0
ENDBLK
  5
21
330
1F
100
AcDbEntity
  8
0
100
AcDbBlockEnd
  0
BLOCK
  5
5A
330
58
100
AcDbEntity
 67
1
  8
0
100
AcDbBlockBegin
  2
*Paper_Space
 70
0
 10
0.0
 20
0.0
 30
0.0
  3
*Paper_Space
  1

  0
ENDBLK
  5
5B
330
58
100
AcDbEntity
 67
1
  8
0
100
AcDbBlockEnd
  0
BLOCK
  5
240
330
23C
100
AcDbEntity
  8
0
100
AcDbBlockBegin
  2
_Open30
 70
0
 10
0.0
 20
0.0
 30
0.0
  3
_Open30
  1

  0
ENDBLK
  5
241
330
23C
100
AcDbEntity
  8
0
100
AcDbBlockEnd
  0
ENDSEC
  0
SECTION
  2
ENTITIES
  0
LWPOLYLINE
  5
CAD00001
  100
AcDbEntity
  3
CAD00001
  8
0
  67
0
  62
8
  100
AcDbPolyline
  90
2
  70
0
  10
42.82142857142857
  20
52.25
  10
42.82142857142857
  20
47.75
  0
LWPOLYLINE
  5
CAD00002
  100
AcDbEntity
  3
CAD00002
  8
0
  67
0
  62
8
  100
AcDbPolyline
  90
2
  70
0
  10
42.82142857142857
  20
52.25
  10
45.60714285714286
  20
52.25
  0
LWPOLYLINE
  5
CAD00003
  100
AcDbEntity
  3
CAD00003
  8
0
  67
0
  62
8
  100
AcDbPolyline
  90
2
  70
0
  10
42.82142857142857
  20
50.107142857142854
  10
44.535714285714285
  20
50.107142857142854
  0
LWPOLYLINE
  5
CAD00004
  100
AcDbEntity
  3
CAD00004
  8
0
  67
0
  62
8
  100
AcDbPolyline
  90
2
  70
0
  10
46.67857142857143
  20
50.75
  10
46.67857142857143
  20
47.75
  0
LWPOLYLINE
  5
CAD00005
  100
AcDbEntity
  3
CAD00005
  8
0
  67
0
  62
8
  100
AcDbPolyline
  90
5
  70
0
  10
46.67857142857143
  20
49.464285714285715
  10
46.892857142857146
  20
50.107142857142854
  10
47.32142857142857
  20
50.535714285714285
  10
47.75
  20
50.75
  10
48.392857142857146
  20
50.75
  0
LWPOLYLINE
  5
CAD00006
  100
AcDbEntity
  3
CAD00006
  8
0
  67
0
  62
8
  100
AcDbPolyline
  90
17
  70
1
  10
50.32142857142857
  20
50.75
  10
49.892857142857146
  20
50.535714285714285
  10
49.464285714285715
  20
50.107142857142854
  10
49.25
  20
49.464285714285715
  10
49.25
  20
49.035714285714285
  10
49.464285714285715
  20
48.392857142857146
  10
49.892857142857146
  20
47.964285714285715
  10
50.32142857142857
  20
47.75
  10
50.964285714285715
  20
47.75
  10
51.39285714285714
  20
47.964285714285715
  10
51.82142857142857
  20
48.392857142857146
  10
52.035714285714285
  20
49.035714285714285
  10
52.035714285714285
  20
49.464285714285715
  10
51.82142857142857
  20
50.107142857142854
  10
51.39285714285714
  20
50.535714285714285
  10
50.964285714285715
  20
50.75
  10
50.32142857142857
  20
50.75
  0
LWPOLYLINE
  5
CAD00007
  100
AcDbEntity
  3
CAD00007
  8
0
  67
0
  62
8
  100
AcDbPolyline
  90
2
  70
0
  10
53.535714285714285
  20
50.75
  10
53.535714285714285
  20
47.75
  0
LWPOLYLINE
  5
CAD00008
  100
AcDbEntity
  3
CAD00008
  8
0
  67
0
  62
8
  100
AcDbPolyline
  90
7
  70
0
  10
53.535714285714285
  20
49.892857142857146
  10
54.17857142857143
  20
50.535714285714285
  10
54.60714285714286
  20
50.75
  10
55.25
  20
50.75
  10
55.67857142857143
  20
50.535714285714285
  10
55.89285714285714
  20
49.892857142857146
  10
55.89285714285714
  20
47.75
  0
LWPOLYLINE
  5
CAD00009
  100
AcDbEntity
  3
CAD00009
  8
0
  67
0
  62
8
  100
AcDbPolyline
  90
5
  70
0
  10
57.82142857142857
  20
52.25
  10
57.82142857142857
  20
48.607142857142854
  10
58.035714285714285
  20
47.964285714285715
  10
58.464285714285715
  20
47.75
  10
58.89285714285714
  20
47.75
  0
LWPOLYLINE
  5
CAD0000A
  100
AcDbEntity
  3
CAD0000A
  8
0
  67
0
  62
8
  100
AcDbPolyline
  90
2
  70
0
  10
57.17857142857143
  20
50.75
  10
58.67857142857143
  20
50.75
  0
LWPOLYLINE
  5
CAD0000B
  100
AcDbEntity
  3
CAD0000B
  8
0
  67
0
  62
250
  100
AcDbPolyline
  90
25
  70
1
  10
73.2998046875
  20
3.400390625
  10
73.2998046875
  20
0
  10
96.599609375
  20
0
  10
96.599609375
  20
3.400390625
  10
96.599609375
  20
26.7001953125
  10
100
  20
26.7001953125
  10
100
  20
73.2998046875
  10
96.599609375
  20
73.2998046875
  10
96.599609375
  20
96.599609375
  10
96.599609375
  20
100
  10
73.2998046875
  20
100
  10
73.2998046875
  20
96.599609375
  10
26.7001953125
  20
96.599609375
  10
26.7001953125
  20
100
  10
3.400390625
  20
100
  10
3.400390625
  20
96.599609375
  10
3.400390625
  20
73.2998046875
  10
0
  20
73.2998046875
  10
0
  20
26.7001953125
  10
3.400390625
  20
26.7001953125
  10
3.400390625
  20
3.400390625
  10
3.400390625
  20
0
  10
26.7001953125
  20
0
  10
26.7001953125
  20
3.400390625
  10
73.2998046875
  20
3.400390625
  0
LWPOLYLINE
  5
CAD0000C
  100
AcDbEntity
  3
CAD0000C
  8
0
  67
0
  62
8
  100
AcDbPolyline
  90
2
  70
0
  10
146.46428571428572
  20
52.25
  10
146.46428571428572
  20
47.75
  0
LWPOLYLINE
  5
CAD0000D
  100
AcDbEntity
  3
CAD0000D
  8
0
  67
0
  62
8
  100
AcDbPolyline
  90
9
  70
0
  10
146.46428571428572
  20
52.25
  10
148.39285714285714
  20
52.25
  10
149.03571428571428
  20
52.035714285714285
  10
149.25
  20
51.82142857142857
  10
149.46428571428572
  20
51.392857142857146
  10
149.46428571428572
  20
50.964285714285715
  10
149.25
  20
50.535714285714285
  10
149.03571428571428
  20
50.32142857142857
  10
148.39285714285714
  20
50.107142857142854
  0
LWPOLYLINE
  5
CAD0000E
  100
AcDbEntity
  3
CAD0000E
  8
0
  67
0
  62
8
  100
AcDbPolyline
  90
10
  70
0
  10
146.46428571428572
  20
50.107142857142854
  10
148.39285714285714
  20
50.107142857142854
  10
149.03571428571428
  20
49.892857142857146
  10
149.25
  20
49.67857142857143
  10
149.46428571428572
  20
49.25
  10
149.46428571428572
  20
48.607142857142854
  10
149.25
  20
48.17857142857143
  10
149.03571428571428
  20
47.964285714285715
  10
148.39285714285714
  20
47.75
  10
146.46428571428572
  20
47.75
  0
LWPOLYLINE
  5
CAD0000F
  100
AcDbEntity
  3
CAD0000F
  8
0
  67
0
  62
8
  100
AcDbPolyline
  90
2
  70
0
  10
153.32142857142858
  20
50.75
  10
153.32142857142858
  20
47.75
  0
LWPOLYLINE
  5
CAD00010
  100
AcDbEntity
  3
CAD00010
  8
0
  67
0
  62
8
  100
AcDbPolyline
  90
14
  70
0
  10
153.32142857142858
  20
50.107142857142854
  10
152.89285714285714
  20
50.535714285714285
  10
152.46428571428572
  20
50.75
  10
151.82142857142858
  20
50.75
  10
151.39285714285714
  20
50.535714285714285
  10
150.96428571428572
  20
50.107142857142854
  10
150.75
  20
49.464285714285715
  10
150.75
  20
49.035714285714285
  10
150.96428571428572
  20
48.392857142857146
  10
151.39285714285714
  20
47.964285714285715
  10
151.82142857142858
  20
47.75
  10
152.46428571428572
  20
47.75
  10
152.89285714285714
  20
47.964285714285715
  10
153.32142857142858
  20
48.392857142857146
  0
LWPOLYLINE
  5
CAD00011
  100
AcDbEntity
  3
CAD00011
  8
0
  67
0
  62
8
  100
AcDbPolyline
  90
14
  70
0
  10
157.39285714285714
  20
50.107142857142854
  10
156.96428571428572
  20
50.535714285714285
  10
156.53571428571428
  20
50.75
  10
155.89285714285714
  20
50.75
  10
155.46428571428572
  20
50.535714285714285
  10
155.03571428571428
  20
50.107142857142854
  10
154.82142857142858
  20
49.464285714285715
  10
154.82142857142858
  20
49.035714285714285
  10
155.03571428571428
  20
48.392857142857146
  10
155.46428571428572
  20
47.964285714285715
  10
155.89285714285714
  20
47.75
  10
156.53571428571428
  20
47.75
  10
156.96428571428572
  20
47.964285714285715
  10
157.39285714285714
  20
48.392857142857146
  0
LWPOLYLINE
  5
CAD00012
  100
AcDbEntity
  3
CAD00012
  8
0
  67
0
  62
8
  100
AcDbPolyline
  90
2
  70
0
  10
158.89285714285714
  20
52.25
  10
158.89285714285714
  20
47.75
  0
LWPOLYLINE
  5
CAD00013
  100
AcDbEntity
  3
CAD00013
  8
0
  67
0
  62
8
  100
AcDbPolyline
  90
2
  70
0
  10
161.03571428571428
  20
50.75
  10
158.89285714285714
  20
48.607142857142854
  0
LWPOLYLINE
  5
CAD00014
  100
AcDbEntity
  3
CAD00014
  8
0
  67
0
  62
8
  100
AcDbPolyline
  90
2
  70
0
  10
159.75
  20
49.464285714285715
  10
161.25
  20
47.75
  0
LWPOLYLINE
  5
CAD00015
  100
AcDbEntity
  3
CAD00015
  8
0
  67
0
  62
250
  100
AcDbPolyline
  90
25
  70
1
  10
176.2998046875
  20
3.400390625
  10
176.2998046875
  20
0
  10
199.599609375
  20
0
  10
199.599609375
  20
3.400390625
  10
199.599609375
  20
26.7001953125
  10
203
  20
26.7001953125
  10
203
  20
73.2998046875
  10
199.599609375
  20
73.2998046875
  10
199.599609375
  20
96.599609375
  10
199.599609375
  20
100
  10
176.2998046875
  20
100
  10
176.2998046875
  20
96.599609375
  10
129.7001953125
  20
96.599609375
  10
129.7001953125
  20
100
  10
106.400390625
  20
100
  10
106.400390625
  20
96.599609375
  10
106.400390625
  20
73.2998046875
  10
103
  20
73.2998046875
  10
103
  20
26.7001953125
  10
106.400390625
  20
26.7001953125
  10
106.400390625
  20
3.400390625
  10
106.400390625
  20
0
  10
129.7001953125
  20
0
  10
129.7001953125
  20
3.400390625
  10
176.2998046875
  20
3.400390625
  0
LWPOLYLINE
  5
CAD00016
  100
AcDbEntity
  3
CAD00016
  8
0
  67
0
  62
8
  100
AcDbPolyline
  90
2
  70
0
  10
45.17857142857143
  20
155.25
  10
45.17857142857143
  20
150.75
  0
LWPOLYLINE
  5
CAD00017
  100
AcDbEntity
  3
CAD00017
  8
0
  67
0
  62
8
  100
AcDbPolyline
  90
2
  70
0
  10
45.17857142857143
  20
150.75
  10
47.75
  20
150.75
  0
LWPOLYLINE
  5
CAD00018
  100
AcDbEntity
  3
CAD00018
  8
0
  67
0
  62
8
  100
AcDbPolyline
  90
17
  70
0
  10
48.60714285714286
  20
152.46428571428572
  10
51.17857142857143
  20
152.46428571428572
  10
51.17857142857143
  20
152.89285714285714
  10
50.964285714285715
  20
153.32142857142858
  10
50.75
  20
153.53571428571428
  10
50.32142857142857
  20
153.75
  10
49.67857142857143
  20
153.75
  10
49.25
  20
153.53571428571428
  10
48.82142857142857
  20
153.10714285714286
  10
48.60714285714286
  20
152.46428571428572
  10
48.60714285714286
  20
152.03571428571428
  10
48.82142857142857
  20
151.39285714285714
  10
49.25
  20
150.96428571428572
  10
49.67857142857143
  20
150.75
  10
50.32142857142857
  20
150.75
  10
50.75
  20
150.96428571428572
  10
51.17857142857143
  20
151.39285714285714
  0
LWPOLYLINE
  5
CAD00019
  100
AcDbEntity
  3
CAD00019
  8
0
  67
0
  62
8
  100
AcDbPolyline
  90
5
  70
0
  10
53.964285714285715
  20
155.25
  10
53.535714285714285
  20
155.25
  10
53.107142857142854
  20
155.03571428571428
  10
52.892857142857146
  20
154.39285714285714
  10
52.892857142857146
  20
150.75
  0
LWPOLYLINE
  5
CAD0001A
  100
AcDbEntity
  3
CAD0001A
  8
0
  67
0
  62
8
  100
AcDbPolyline
  90
2
  70
0
  10
52.25
  20
153.75
  10
53.75
  20
153.75
  0
LWPOLYLINE
  5
CAD0001B
  100
AcDbEntity
  3
CAD0001B
  8
0
  67
0
  62
8
  100
AcDbPolyline
  90
5
  70
0
  10
55.464285714285715
  20
155.25
  10
55.464285714285715
  20
151.60714285714286
  10
55.67857142857143
  20
150.96428571428572
  10
56.107142857142854
  20
150.75
  10
56.535714285714285
  20
150.75
  0
LWPOLYLINE
  5
CAD0001C
  100
AcDbEntity
  3
CAD0001C
  8
0
  67
0
  62
8
  100
AcDbPolyline
  90
2
  70
0
  10
54.82142857142857
  20
153.75
  10
56.32142857142857
  20
153.75
  0
LWPOLYLINE
  5
CAD0001D
  100
AcDbEntity
  3
CAD0001D
  8
0
  67
0
  62
250
  100
AcDbPolyline
  90
29
  70
1
  10
73.2998046875
  20
106.400390625
  10
73.2998046875
  20
103
  10
96.599609375
  20
103
  10
100
  20
103
  10
100
  20
106.400390625
  10
100
  20
129.7001953125
  10
96.599609375
  20
129.7001953125
  10
96.599609375
  20
176.2998046875
  10
100
  20
176.2998046875
  10
100
  20
199.599609375
  10
100
  20
203
  10
96.599609375
  20
203
  10
73.2998046875
  20
203
  10
73.2998046875
  20
199.599609375
  10
26.7001953125
  20
199.599609375
  10
26.7001953125
  20
203
  10
3.400390625
  20
203
  10
0
  20
203
  10
0
  20
199.599609375
  10
0
  20
176.2998046875
  10
3.400390625
  20
176.2998046875
  10
3.400390625
  20
129.7001953125
  10
0
  20
129.7001953125
  10
0
  20
106.400390625
  10
0
  20
103
  10
3.400390625
  20
103
  10
26.7001953125
  20
103
  10
26.7001953125
  20
106.400390625
  10
73.2998046875
  20
106.400390625
  0
LWPOLYLINE
  5
CAD0001E
  100
AcDbEntity
  3
CAD0001E
  8
0
  67
0
  62
8
  100
AcDbPolyline
  90
2
  70
0
  10
146.03571428571428
  20
154.39285714285714
  10
146.03571428571428
  20
149.89285714285714
  0
LWPOLYLINE
  5
CAD0001F
  100
AcDbEntity
  3
CAD0001F
  8
0
  67
0
  62
8
  100
AcDbPolyline
  90
10
  70
0
  10
146.03571428571428
  20
154.39285714285714
  10
147.96428571428572
  20
154.39285714285714
  10
148.60714285714286
  20
154.17857142857142
  10
148.82142857142858
  20
153.96428571428572
  10
149.03571428571428
  20
153.53571428571428
  10
149.03571428571428
  20
153.10714285714286
  10
148.82142857142858
  20
152.67857142857142
  10
148.60714285714286
  20
152.46428571428572
  10
147.96428571428572
  20
152.25
  10
146.03571428571428
  20
152.25
  0
LWPOLYLINE
  5
CAD00020
  100
AcDbEntity
  3
CAD00020
  8
0
  67
0
  62
8
  100
AcDbPolyline
  90
2
  70
0
  10
147.53571428571428
  20
152.25
  10
149.03571428571428
  20
149.89285714285714
  0
LWPOLYLINE
  5
CAD00021
  100
AcDbEntity
  3
CAD00021
  8
0
  67
0
  62
8
  100
AcDbPolyline
  90
5
  70
1
  10
150.32142857142858
  20
154.39285714285714
  10
150.53571428571428
  20
154.17857142857142
  10
150.75
  20
154.39285714285714
  10
150.53571428571428
  20
154.60714285714286
  10
150.32142857142858
  20
154.39285714285714
  0
LWPOLYLINE
  5
CAD00022
  100
AcDbEntity
  3
CAD00022
  8
0
  67
0
  62
8
  100
AcDbPolyline
  90
2
  70
0
  10
150.53571428571428
  20
152.89285714285714
  10
150.53571428571428
  20
149.89285714285714
  0
LWPOLYLINE
  5
CAD00023
  100
AcDbEntity
  3
CAD00023
  8
0
  67
0
  62
8
  100
AcDbPolyline
  90
7
  70
0
  10
154.60714285714286
  20
152.89285714285714
  10
154.60714285714286
  20
149.46428571428572
  10
154.39285714285714
  20
148.82142857142858
  10
154.17857142857142
  20
148.60714285714286
  10
153.75
  20
148.39285714285714
  10
153.10714285714286
  20
148.39285714285714
  10
152.67857142857142
  20
148.60714285714286
  0
LWPOLYLINE
  5
CAD00024
  100
AcDbEntity
  3
CAD00024
  8
0
  67
0
  62
8
  100
AcDbPolyline
  90
14
  70
0
  10
154.60714285714286
  20
152.25
  10
154.17857142857142
  20
152.67857142857142
  10
153.75
  20
152.89285714285714
  10
153.10714285714286
  20
152.89285714285714
  10
152.67857142857142
  20
152.67857142857142
  10
152.25
  20
152.25
  10
152.03571428571428
  20
151.60714285714286
  10
152.03571428571428
  20
151.17857142857142
  10
152.25
  20
150.53571428571428
  10
152.67857142857142
  20
150.10714285714286
  10
153.10714285714286
  20
149.89285714285714
  10
153.75
  20
149.89285714285714
  10
154.17857142857142
  20
150.10714285714286
  10
154.60714285714286
  20
150.53571428571428
  0
LWPOLYLINE
  5
CAD00025
  100
AcDbEntity
  3
CAD00025
  8
0
  67
0
  62
8
  100
AcDbPolyline
  90
2
  70
0
  10
156.32142857142858
  20
154.39285714285714
  10
156.32142857142858
  20
149.89285714285714
  0
LWPOLYLINE
  5
CAD00026
  100
AcDbEntity
  3
CAD00026
  8
0
  67
0
  62
8
  100
AcDbPolyline
  90
7
  70
0
  10
156.32142857142858
  20
152.03571428571428
  10
156.96428571428572
  20
152.67857142857142
  10
157.39285714285714
  20
152.89285714285714
  10
158.03571428571428
  20
152.89285714285714
  10
158.46428571428572
  20
152.67857142857142
  10
158.67857142857142
  20
152.03571428571428
  10
158.67857142857142
  20
149.89285714285714
  0
LWPOLYLINE
  5
CAD00027
  100
AcDbEntity
  3
CAD00027
  8
0
  67
0
  62
8
  100
AcDbPolyline
  90
5
  70
0
  10
160.60714285714286
  20
154.39285714285714
  10
160.60714285714286
  20
150.75
  10
160.82142857142858
  20
150.10714285714286
  10
161.25
  20
149.89285714285714
  10
161.67857142857142
  20
149.89285714285714
  0
LWPOLYLINE
  5
CAD00028
  100
AcDbEntity
  3
CAD00028
  8
0
  67
0
  62
8
  100
AcDbPolyline
  90
2
  70
0
  10
159.96428571428572
  20
152.89285714285714
  10
161.46428571428572
  20
152.89285714285714
  0
LWPOLYLINE
  5
CAD00029
  100
AcDbEntity
  3
CAD00029
  8
0
  67
0
  62
250
  100
AcDbPolyline
  90
29
  70
1
  10
176.2998046875
  20
106.400390625
  10
176.2998046875
  20
103
  10
199.599609375
  20
103
  10
203
  20
103
  10
203
  20
106.400390625
  10
203
  20
129.7001953125
  10
199.599609375
  20
129.7001953125
  10
199.599609375
  20
176.2998046875
  10
203
  20
176.2998046875
  10
203
  20
199.599609375
  10
203
  20
203
  10
199.599609375
  20
203
  10
176.2998046875
  20
203
  10
176.2998046875
  20
199.599609375
  10
129.7001953125
  20
199.599609375
  10
129.7001953125
  20
203
  10
106.400390625
  20
203
  10
103
  20
203
  10
103
  20
199.599609375
  10
103
  20
176.2998046875
  10
106.400390625
  20
176.2998046875
  10
106.400390625
  20
129.7001953125
  10
103
  20
129.7001953125
  10
103
  20
106.400390625
  10
103
  20
103
  10
106.400390625
  20
103
  10
129.7001953125
  20
103
  10
129.7001953125
  20
106.400390625
  10
176.2998046875
  20
106.400390625
  0
LWPOLYLINE
  5
CAD0002A
  100
AcDbEntity
  3
CAD0002A
  8
0
  67
0
  62
8
  100
AcDbPolyline
  90
2
  70
0
  10
39.60714285714286
  20
258.25
  10
39.60714285714286
  20
253.75
  0
LWPOLYLINE
  5
CAD0002B
  100
AcDbEntity
  3
CAD0002B
  8
0
  67
0
  62
8
  100
AcDbPolyline
  90
9
  70
0
  10
39.60714285714286
  20
258.25
  10
41.53571428571429
  20
258.25
  10
42.17857142857143
  20
258.0357142857143
  10
42.392857142857146
  20
257.82142857142856
  10
42.60714285714286
  20
257.39285714285717
  10
42.60714285714286
  20
256.9642857142857
  10
42.392857142857146
  20
256.5357142857143
  10
42.17857142857143
  20
256.32142857142856
  10
41.53571428571429
  20
256.10714285714283
  0
LWPOLYLINE
  5
CAD0002C
  100
AcDbEntity
  3
CAD0002C
  8
0
  67
0
  62
8
  100
AcDbPolyline
  90
10
  70
0
  10
39.60714285714286
  20
256.10714285714283
  10
41.53571428571429
  20
256.10714285714283
  10
42.17857142857143
  20
255.89285714285714
  10
42.392857142857146
  20
255.67857142857142
  10
42.60714285714286
  20
255.25
  10
42.60714285714286
  20
254.60714285714286
  10
42.392857142857146
  20
254.17857142857142
  10
42.17857142857143
  20
253.96428571428572
  10
41.53571428571429
  20
253.75
  10
39.60714285714286
  20
253.75
  0
LWPOLYLINE
  5
CAD0002D
  100
AcDbEntity
  3
CAD0002D
  8
0
  67
0
  62
8
  100
AcDbPolyline
  90
17
  70
1
  10
44.964285714285715
  20
256.75
  10
44.535714285714285
  20
256.5357142857143
  10
44.10714285714286
  20
256.10714285714283
  10
43.892857142857146
  20
255.46428571428572
  10
43.892857142857146
  20
255.03571428571428
  10
44.10714285714286
  20
254.39285714285714
  10
44.535714285714285
  20
253.96428571428572
  10
44.964285714285715
  20
253.75
  10
45.60714285714286
  20
253.75
  10
46.035714285714285
  20
253.96428571428572
  10
46.464285714285715
  20
254.39285714285714
  10
46.67857142857143
  20
255.03571428571428
  10
46.67857142857143
  20
255.46428571428572
  10
46.464285714285715
  20
256.10714285714283
  10
46.035714285714285
  20
256.5357142857143
  10
45.60714285714286
  20
256.75
  10
44.964285714285715
  20
256.75
  0
LWPOLYLINE
  5
CAD0002E
  100
AcDbEntity
  3
CAD0002E
  8
0
  67
0
  62
8
  100
AcDbPolyline
  90
5
  70
0
  10
48.392857142857146
  20
258.25
  10
48.392857142857146
  20
254.60714285714286
  10
48.60714285714286
  20
253.96428571428572
  10
49.035714285714285
  20
253.75
  10
49.464285714285715
  20
253.75
  0
LWPOLYLINE
  5
CAD0002F
  100
AcDbEntity
  3
CAD0002F
  8
0
  67
0
  62
8
  100
AcDbPolyline
  90
2
  70
0
  10
47.75
  20
256.75
  10
49.25
  20
256.75
  0
LWPOLYLINE
  5
CAD00030
  100
AcDbEntity
  3
CAD00030
  8
0
  67
0
  62
8
  100
AcDbPolyline
  90
5
  70
0
  10
50.964285714285715
  20
258.25
  10
50.964285714285715
  20
254.60714285714286
  10
51.17857142857143
  20
253.96428571428572
  10
51.60714285714286
  20
253.75
  10
52.035714285714285
  20
253.75
  0
LWPOLYLINE
  5
CAD00031
  100
AcDbEntity
  3
CAD00031
  8
0
  67
0
  62
8
  100
AcDbPolyline
  90
2
  70
0
  10
50.32142857142857
  20
256.75
  10
51.82142857142857
  20
256.75
  0
LWPOLYLINE
  5
CAD00032
  100
AcDbEntity
  3
CAD00032
  8
0
  67
0
  62
8
  100
AcDbPolyline
  90
17
  70
1
  10
54.17857142857143
  20
256.75
  10
53.75
  20
256.5357142857143
  10
53.32142857142857
  20
256.10714285714283
  10
53.10714285714286
  20
255.46428571428572
  10
53.10714285714286
  20
255.03571428571428
  10
53.32142857142857
  20
254.39285714285714
  10
53.75
  20
253.96428571428572
  10
54.17857142857143
  20
253.75
  10
54.82142857142857
  20
253.75
  10
55.25
  20
253.96428571428572
  10
55.67857142857143
  20
254.39285714285714
  10
55.892857142857146
  20
255.03571428571428
  10
55.892857142857146
  20
255.46428571428572
  10
55.67857142857143
  20
256.10714285714283
  10
55.25
  20
256.5357142857143
  10
54.82142857142857
  20
256.75
  10
54.17857142857143
  20
256.75
  0
LWPOLYLINE
  5
CAD00033
  100
AcDbEntity
  3
CAD00033
  8
0
  67
0
  62
8
  100
AcDbPolyline
  90
2
  70
0
  10
57.392857142857146
  20
256.75
  10
57.392857142857146
  20
253.75
  0
LWPOLYLINE
  5
CAD00034
  100
AcDbEntity
  3
CAD00034
  8
0
  67
0
  62
8
  100
AcDbPolyline
  90
7
  70
0
  10
57.392857142857146
  20
255.89285714285714
  10
58.035714285714285
  20
256.5357142857143
  10
58.464285714285715
  20
256.75
  10
59.107142857142854
  20
256.75
  10
59.535714285714285
  20
256.5357142857143
  10
59.75
  20
255.89285714285714
  10
59.75
  20
253.75
  0
LWPOLYLINE
  5
CAD00035
  100
AcDbEntity
  3
CAD00035
  8
0
  67
0
  62
8
  100
AcDbPolyline
  90
7
  70
0
  10
59.75
  20
255.89285714285714
  10
60.392857142857146
  20
256.5357142857143
  10
60.82142857142857
  20
256.75
  10
61.464285714285715
  20
256.75
  10
61.892857142857146
  20
256.5357142857143
  10
62.107142857142854
  20
255.89285714285714
  10
62.107142857142854
  20
253.75
  0
LWPOLYLINE
  5
CAD00036
  100
AcDbEntity
  3
CAD00036
  8
0
  67
0
  62
250
  100
AcDbPolyline
  90
21
  70
1
  10
96.599609375
  20
209.400390625
  10
96.599609375
  20
232.7001953125
  10
100
  20
232.7001953125
  10
100
  20
279.2998046875
  10
96.599609375
  20
279.2998046875
  10
96.599609375
  20
302.599609375
  10
73.2998046875
  20
302.599609375
  10
73.2998046875
  20
306
  10
26.7001953125
  20
306
  10
26.7001953125
  20
302.599609375
  10
3.400390625
  20
302.599609375
  10
3.400390625
  20
279.2998046875
  10
0
  20
279.2998046875
  10
0
  20
232.7001953125
  10
3.400390625
  20
232.7001953125
  10
3.400390625
  20
209.400390625
  10
26.7001953125
  20
209.400390625
  10
26.7001953125
  20
206
  10
73.2998046875
  20
206
  10
73.2998046875
  20
209.400390625
  10
96.599609375
  20
209.400390625
  0
LWPOLYLINE
  5
CAD00037
  100
AcDbEntity
  3
CAD00037
  8
0
  67
0
  62
8
  100
AcDbPolyline
  90
2
  70
0
  10
149.35714285714286
  20
257.5
  10
149.35714285714286
  20
253
  0
LWPOLYLINE
  5
CAD00038
  100
AcDbEntity
  3
CAD00038
  8
0
  67
0
  62
8
  100
AcDbPolyline
  90
2
  70
0
  10
147.85714285714286
  20
257.5
  10
150.85714285714286
  20
257.5
  0
LWPOLYLINE
  5
CAD00039
  100
AcDbEntity
  3
CAD00039
  8
0
  67
0
  62
8
  100
AcDbPolyline
  90
17
  70
1
  10
152.78571428571428
  20
256
  10
152.35714285714286
  20
255.78571428571428
  10
151.92857142857142
  20
255.35714285714286
  10
151.71428571428572
  20
254.71428571428572
  10
151.71428571428572
  20
254.28571428571428
  10
151.92857142857142
  20
253.64285714285714
  10
152.35714285714286
  20
253.21428571428572
  10
152.78571428571428
  20
253
  10
153.42857142857142
  20
253
  10
153.85714285714286
  20
253.21428571428572
  10
154.28571428571428
  20
253.64285714285714
  10
154.5
  20
254.28571428571428
  10
154.5
  20
254.71428571428572
  10
154.28571428571428
  20
255.35714285714286
  10
153.85714285714286
  20
255.78571428571428
  10
153.42857142857142
  20
256
  10
152.78571428571428
  20
256
  0
LWPOLYLINE
  5
CAD0003A
  100
AcDbEntity
  3
CAD0003A
  8
0
  67
0
  62
8
  100
AcDbPolyline
  90
2
  70
0
  10
156
  20
256
  10
156
  20
251.5
  0
LWPOLYLINE
  5
CAD0003B
  100
AcDbEntity
  3
CAD0003B
  8
0
  67
0
  62
8
  100
AcDbPolyline
  90
14
  70
0
  10
156
  20
255.35714285714286
  10
156.42857142857142
  20
255.78571428571428
  10
156.85714285714286
  20
256
  10
157.5
  20
256
  10
157.92857142857142
  20
255.78571428571428
  10
158.35714285714286
  20
255.35714285714286
  10
158.57142857142858
  20
254.71428571428572
  10
158.57142857142858
  20
254.28571428571428
  10
158.35714285714286
  20
253.64285714285714
  10
157.92857142857142
  20
253.21428571428572
  10
157.5
  20
253
  10
156.85714285714286
  20
253
  10
156.42857142857142
  20
253.21428571428572
  10
156
  20
253.64285714285714
  0
LWPOLYLINE
  5
CAD0003C
  100
AcDbEntity
  3
CAD0003C
  8
0
  67
0
  62
250
  100
AcDbPolyline
  90
21
  70
1
  10
199.599609375
  20
209.400390625
  10
199.599609375
  20
232.7001953125
  10
203
  20
232.7001953125
  10
203
  20
279.2998046875
  10
199.599609375
  20
279.2998046875
  10
199.599609375
  20
302.599609375
  10
176.2998046875
  20
302.599609375
  10
176.2998046875
  20
306
  10
129.7001953125
  20
306
  10
129.7001953125
  20
302.599609375
  10
106.400390625
  20
302.599609375
  10
106.400390625
  20
279.2998046875
  10
103
  20
279.2998046875
  10
103
  20
232.7001953125
  10
106.400390625
  20
232.7001953125
  10
106.400390625
  20
209.400390625
  10
129.7001953125
  20
209.400390625
  10
129.7001953125
  20
206
  10
176.2998046875
  20
206
  10
176.2998046875
  20
209.400390625
  10
199.599609375
  20
209.400390625
  0
ENDSEC
  0
SECTION
  2
OBJECTS
  0
DICTIONARY
  5
C
330
0
100
AcDbDictionary
281
1
  3
ACAD_COLOR
350
524
  3
ACAD_GROUP
350
525
  3
ACAD_LAYOUT
350
526
  3
ACAD_MATERIAL
350
527
  3
ACAD_MLEADERSTYLE
350
528
  3
ACAD_MLINESTYLE
350
529
  3
ACAD_PLOTSETTINGS
350
52A
  3
ACAD_PLOTSTYLENAME
350
52C
  3
ACAD_SCALELIST
350
52D
  3
ACAD_TABLESTYLE
350
52E
  3
ACAD_VISUALSTYLE
350
52F
  0
DICTIONARY
  5
524
330
C
100
AcDbDictionary
281
1
  0
DICTIONARY
  5
525
330
C
100
AcDbDictionary
281
1
  0
DICTIONARY
  5
526
330
C
100
AcDbDictionary
281
1
  3
Model
350
530
  3
Layout1
350
531
  0
DICTIONARY
  5
527
330
C
100
AcDbDictionary
281
1
  0
DICTIONARY
  5
528
330
C
100
AcDbDictionary
281
1
  0
DICTIONARY
  5
529
330
C
100
AcDbDictionary
281
1
  0
DICTIONARY
  5
52A
330
C
100
AcDbDictionary
281
1
  0
ACDBPLACEHOLDER
  5
52B
330
52C
  0
ACDBDICTIONARYWDFLT
  5
52C
330
C
100
AcDbDictionary
281
1
  3
Normal
350
52B
100
AcDbDictionaryWithDefault
340
52B
  0
DICTIONARY
  5
52D
330
C
100
AcDbDictionary
281
1
  0
DICTIONARY
  5
52E
330
C
100
AcDbDictionary
281
1
  0
DICTIONARY
  5
52F
330
C
100
AcDbDictionary
281
1
  0
LAYOUT
  5
530
330
526
100
AcDbPlotSettings
  1

  2
DWFx ePlot (XPS Compatible).pc3
  4
ANSI_A_(8.50_x_11.00_Inches)
  6

 40
5.8
 41
17.8
 42
5.8
 43
17.8
 44
215.9
 45
279.4
 46
0.0
 47
0.0
 48
0.0
 49
0.0
140
0.0
141
0.0
142
1.0
143
14.53
 70
11952
 72
0
 73
1
 74
0
  7

 75
0
147
0.069
148
114.98
149
300.29
100
AcDbLayout
  1
Model
 70
1
 71
0
 10
0.0
 20
0.0
 11
12.0
 21
9.0
 12
0.0
 22
0.0
 32
0.0
 14
0.0
 24
0.0
 34
0.0
 15
0.0
 25
0.0
 35
0.0
146
0.0
 13
0.0
 23
0.0
 33
0.0
 16
1.0
 26
0.0
 36
0.0
 17
0.0
 27
1.0
 37
0.0
 76
0
330
1F
  0
LAYOUT
  5
531
330
526
100
AcDbPlotSettings
  1

  2
DWFx ePlot (XPS Compatible).pc3
  4
ANSI_A_(8.50_x_11.00_Inches)
  6

 40
5.8
 41
17.8
 42
5.8
 43
17.8
 44
215.9
 45
279.4
 46
0.0
 47
0.0
 48
0.0
 49
0.0
140
0.0
141
0.0
142
1.0
143
1.0
 70
688
 72
0
 73
1
 74
5
  7
acad.ctb
 75
16
147
1.0
148
0.0
149
0.0
100
AcDbLayout
  1
Layout1
 70
1
 71
1
 10
-0.7
 20
-0.23
 11
10.3
 21
8.27
 12
0.0
 22
0.0
 32
0.0
 14
0.63
 24
0.8
 34
0.0
 15
9.0
 25
7.2
 35
0.0
146
0.0
 13
0.0
 23
0.0
 33
0.0
 16
1.0
 26
0.0
 36
0.0
 17
0.0
 27
1.0
 37
0.0
 76
0
330
58
  0
ENDSEC
  0
EOF
