%TF.GenerationSoftware,KiCad,Pcbnew,9.0.6*%
%TF.CreationDate,2025-11-19T14:22:08-08:00*%
%TF.ProjectId,pcb_test,7063625f-7465-4737-942e-6b696361645f,rev?*%
%TF.SameCoordinates,Original*%
%TF.FileFunction,Copper,L1,Top*%
%TF.FilePolarity,Positive*%
%FSLAX46Y46*%
G04 Gerber Fmt 4.6, Leading zero omitted, Abs format (unit mm)*
G04 Created by KiCad (PCBNEW 9.0.6) date 2025-11-19 14:22:08*
%MOMM*%
%LPD*%
G01*
G04 APERTURE LIST*
%ADD10C,0.150000*%
%TA.AperFunction,NonConductor*%
%ADD11C,0.150000*%
%TD*%
%TA.AperFunction,ComponentPad*%
%ADD12R,1.700000X1.700000*%
%TD*%
%TA.AperFunction,ComponentPad*%
%ADD13C,1.700000*%
%TD*%
%TA.AperFunction,WasherPad*%
%ADD14C,3.200000*%
%TD*%
%TA.AperFunction,ComponentPad*%
%ADD15R,1.600000X2.600000*%
%TD*%
%TA.AperFunction,ComponentPad*%
%ADD16O,1.600000X2.600000*%
%TD*%
%TA.AperFunction,ComponentPad*%
%ADD17C,1.600000*%
%TD*%
%TA.AperFunction,ComponentPad*%
%ADD18R,1.800000X1.800000*%
%TD*%
%TA.AperFunction,ComponentPad*%
%ADD19C,1.800000*%
%TD*%
%TA.AperFunction,ComponentPad*%
%ADD20R,2.000000X2.000000*%
%TD*%
%TA.AperFunction,ComponentPad*%
%ADD21C,2.000000*%
%TD*%
%TA.AperFunction,Conductor*%
%ADD22C,0.406400*%
%TD*%
%TA.AperFunction,Conductor*%
%ADD23C,1.270000*%
%TD*%
G04 APERTURE END LIST*
D10*
D11*
X62523810Y-116454819D02*
X62523810Y-115454819D01*
X62523810Y-115454819D02*
X62761905Y-115454819D01*
X62761905Y-115454819D02*
X62904762Y-115502438D01*
X62904762Y-115502438D02*
X63000000Y-115597676D01*
X63000000Y-115597676D02*
X63047619Y-115692914D01*
X63047619Y-115692914D02*
X63095238Y-115883390D01*
X63095238Y-115883390D02*
X63095238Y-116026247D01*
X63095238Y-116026247D02*
X63047619Y-116216723D01*
X63047619Y-116216723D02*
X63000000Y-116311961D01*
X63000000Y-116311961D02*
X62904762Y-116407200D01*
X62904762Y-116407200D02*
X62761905Y-116454819D01*
X62761905Y-116454819D02*
X62523810Y-116454819D01*
X63523810Y-116454819D02*
X63523810Y-115454819D01*
X63952381Y-116407200D02*
X64095238Y-116454819D01*
X64095238Y-116454819D02*
X64333333Y-116454819D01*
X64333333Y-116454819D02*
X64428571Y-116407200D01*
X64428571Y-116407200D02*
X64476190Y-116359580D01*
X64476190Y-116359580D02*
X64523809Y-116264342D01*
X64523809Y-116264342D02*
X64523809Y-116169104D01*
X64523809Y-116169104D02*
X64476190Y-116073866D01*
X64476190Y-116073866D02*
X64428571Y-116026247D01*
X64428571Y-116026247D02*
X64333333Y-115978628D01*
X64333333Y-115978628D02*
X64142857Y-115931009D01*
X64142857Y-115931009D02*
X64047619Y-115883390D01*
X64047619Y-115883390D02*
X64000000Y-115835771D01*
X64000000Y-115835771D02*
X63952381Y-115740533D01*
X63952381Y-115740533D02*
X63952381Y-115645295D01*
X63952381Y-115645295D02*
X64000000Y-115550057D01*
X64000000Y-115550057D02*
X64047619Y-115502438D01*
X64047619Y-115502438D02*
X64142857Y-115454819D01*
X64142857Y-115454819D02*
X64380952Y-115454819D01*
X64380952Y-115454819D02*
X64523809Y-115502438D01*
D10*
D11*
X66309524Y-151931009D02*
X66642857Y-151931009D01*
X66785714Y-152454819D02*
X66309524Y-152454819D01*
X66309524Y-152454819D02*
X66309524Y-151454819D01*
X66309524Y-151454819D02*
X66785714Y-151454819D01*
X67166667Y-152407200D02*
X67309524Y-152454819D01*
X67309524Y-152454819D02*
X67547619Y-152454819D01*
X67547619Y-152454819D02*
X67642857Y-152407200D01*
X67642857Y-152407200D02*
X67690476Y-152359580D01*
X67690476Y-152359580D02*
X67738095Y-152264342D01*
X67738095Y-152264342D02*
X67738095Y-152169104D01*
X67738095Y-152169104D02*
X67690476Y-152073866D01*
X67690476Y-152073866D02*
X67642857Y-152026247D01*
X67642857Y-152026247D02*
X67547619Y-151978628D01*
X67547619Y-151978628D02*
X67357143Y-151931009D01*
X67357143Y-151931009D02*
X67261905Y-151883390D01*
X67261905Y-151883390D02*
X67214286Y-151835771D01*
X67214286Y-151835771D02*
X67166667Y-151740533D01*
X67166667Y-151740533D02*
X67166667Y-151645295D01*
X67166667Y-151645295D02*
X67214286Y-151550057D01*
X67214286Y-151550057D02*
X67261905Y-151502438D01*
X67261905Y-151502438D02*
X67357143Y-151454819D01*
X67357143Y-151454819D02*
X67595238Y-151454819D01*
X67595238Y-151454819D02*
X67738095Y-151502438D01*
X68166667Y-152454819D02*
X68166667Y-151454819D01*
X68166667Y-151454819D02*
X68547619Y-151454819D01*
X68547619Y-151454819D02*
X68642857Y-151502438D01*
X68642857Y-151502438D02*
X68690476Y-151550057D01*
X68690476Y-151550057D02*
X68738095Y-151645295D01*
X68738095Y-151645295D02*
X68738095Y-151788152D01*
X68738095Y-151788152D02*
X68690476Y-151883390D01*
X68690476Y-151883390D02*
X68642857Y-151931009D01*
X68642857Y-151931009D02*
X68547619Y-151978628D01*
X68547619Y-151978628D02*
X68166667Y-151978628D01*
D10*
D11*
X46880952Y-113454819D02*
X46547619Y-112978628D01*
X46309524Y-113454819D02*
X46309524Y-112454819D01*
X46309524Y-112454819D02*
X46690476Y-112454819D01*
X46690476Y-112454819D02*
X46785714Y-112502438D01*
X46785714Y-112502438D02*
X46833333Y-112550057D01*
X46833333Y-112550057D02*
X46880952Y-112645295D01*
X46880952Y-112645295D02*
X46880952Y-112788152D01*
X46880952Y-112788152D02*
X46833333Y-112883390D01*
X46833333Y-112883390D02*
X46785714Y-112931009D01*
X46785714Y-112931009D02*
X46690476Y-112978628D01*
X46690476Y-112978628D02*
X46309524Y-112978628D01*
X47309524Y-112931009D02*
X47642857Y-112931009D01*
X47785714Y-113454819D02*
X47309524Y-113454819D01*
X47309524Y-113454819D02*
X47309524Y-112454819D01*
X47309524Y-112454819D02*
X47785714Y-112454819D01*
X48166667Y-113407200D02*
X48309524Y-113454819D01*
X48309524Y-113454819D02*
X48547619Y-113454819D01*
X48547619Y-113454819D02*
X48642857Y-113407200D01*
X48642857Y-113407200D02*
X48690476Y-113359580D01*
X48690476Y-113359580D02*
X48738095Y-113264342D01*
X48738095Y-113264342D02*
X48738095Y-113169104D01*
X48738095Y-113169104D02*
X48690476Y-113073866D01*
X48690476Y-113073866D02*
X48642857Y-113026247D01*
X48642857Y-113026247D02*
X48547619Y-112978628D01*
X48547619Y-112978628D02*
X48357143Y-112931009D01*
X48357143Y-112931009D02*
X48261905Y-112883390D01*
X48261905Y-112883390D02*
X48214286Y-112835771D01*
X48214286Y-112835771D02*
X48166667Y-112740533D01*
X48166667Y-112740533D02*
X48166667Y-112645295D01*
X48166667Y-112645295D02*
X48214286Y-112550057D01*
X48214286Y-112550057D02*
X48261905Y-112502438D01*
X48261905Y-112502438D02*
X48357143Y-112454819D01*
X48357143Y-112454819D02*
X48595238Y-112454819D01*
X48595238Y-112454819D02*
X48738095Y-112502438D01*
D10*
D11*
X93954819Y-105142857D02*
X93954819Y-105619047D01*
X93954819Y-105619047D02*
X92954819Y-105619047D01*
X93431009Y-104809523D02*
X93431009Y-104476190D01*
X93954819Y-104333333D02*
X93954819Y-104809523D01*
X93954819Y-104809523D02*
X92954819Y-104809523D01*
X92954819Y-104809523D02*
X92954819Y-104333333D01*
X93954819Y-103904761D02*
X92954819Y-103904761D01*
X92954819Y-103904761D02*
X92954819Y-103666666D01*
X92954819Y-103666666D02*
X93002438Y-103523809D01*
X93002438Y-103523809D02*
X93097676Y-103428571D01*
X93097676Y-103428571D02*
X93192914Y-103380952D01*
X93192914Y-103380952D02*
X93383390Y-103333333D01*
X93383390Y-103333333D02*
X93526247Y-103333333D01*
X93526247Y-103333333D02*
X93716723Y-103380952D01*
X93716723Y-103380952D02*
X93811961Y-103428571D01*
X93811961Y-103428571D02*
X93907200Y-103523809D01*
X93907200Y-103523809D02*
X93954819Y-103666666D01*
X93954819Y-103666666D02*
X93954819Y-103904761D01*
D10*
D11*
X88071428Y-130931009D02*
X88214285Y-130978628D01*
X88214285Y-130978628D02*
X88261904Y-131026247D01*
X88261904Y-131026247D02*
X88309523Y-131121485D01*
X88309523Y-131121485D02*
X88309523Y-131264342D01*
X88309523Y-131264342D02*
X88261904Y-131359580D01*
X88261904Y-131359580D02*
X88214285Y-131407200D01*
X88214285Y-131407200D02*
X88119047Y-131454819D01*
X88119047Y-131454819D02*
X87738095Y-131454819D01*
X87738095Y-131454819D02*
X87738095Y-130454819D01*
X87738095Y-130454819D02*
X88071428Y-130454819D01*
X88071428Y-130454819D02*
X88166666Y-130502438D01*
X88166666Y-130502438D02*
X88214285Y-130550057D01*
X88214285Y-130550057D02*
X88261904Y-130645295D01*
X88261904Y-130645295D02*
X88261904Y-130740533D01*
X88261904Y-130740533D02*
X88214285Y-130835771D01*
X88214285Y-130835771D02*
X88166666Y-130883390D01*
X88166666Y-130883390D02*
X88071428Y-130931009D01*
X88071428Y-130931009D02*
X87738095Y-130931009D01*
X88738095Y-130454819D02*
X88738095Y-131264342D01*
X88738095Y-131264342D02*
X88785714Y-131359580D01*
X88785714Y-131359580D02*
X88833333Y-131407200D01*
X88833333Y-131407200D02*
X88928571Y-131454819D01*
X88928571Y-131454819D02*
X89119047Y-131454819D01*
X89119047Y-131454819D02*
X89214285Y-131407200D01*
X89214285Y-131407200D02*
X89261904Y-131359580D01*
X89261904Y-131359580D02*
X89309523Y-131264342D01*
X89309523Y-131264342D02*
X89309523Y-130454819D01*
X89690476Y-130454819D02*
X90357142Y-130454819D01*
X90357142Y-130454819D02*
X89690476Y-131454819D01*
X89690476Y-131454819D02*
X90357142Y-131454819D01*
D12*
%TO.P,REF\u002A\u002A,1*%
%TO.N,N/C*%
X72655000Y-133235000D03*
D13*
%TO.P,REF\u002A\u002A,2*%
%TO.N,Net-(DISP1-clk)*%
X70115000Y-133235000D03*
%TO.P,REF\u002A\u002A,3*%
%TO.N,N/C*%
X67575000Y-133235000D03*
%TO.P,REF\u002A\u002A,4*%
%TO.N,Net-(D1-A)*%
X65035000Y-133235000D03*
%TO.P,REF\u002A\u002A,5*%
%TO.N,N/C*%
X62495000Y-133235000D03*
%TO.P,REF\u002A\u002A,6*%
X59955000Y-133235000D03*
%TO.P,REF\u002A\u002A,7*%
%TO.N,3.3V*%
X57415000Y-133235000D03*
%TO.P,REF\u002A\u002A,8*%
%TO.N,GND*%
X54875000Y-133235000D03*
%TD*%
D14*
%TO.P,esp32,*%
%TO.N,*%
X92575000Y-141217500D03*
X92575000Y-158997500D03*
D15*
%TO.P,esp32,1*%
%TO.N,N/C*%
X88765000Y-140247500D03*
D16*
%TO.P,esp32,2*%
%TO.N,3.3V*%
X86225000Y-140247500D03*
%TO.P,esp32,3*%
%TO.N,N/C*%
X83685000Y-140247500D03*
%TO.P,esp32,4*%
%TO.N,GND*%
X81145000Y-140247500D03*
%TO.P,esp32,5*%
%TO.N,N/C*%
X78605000Y-140247500D03*
%TO.P,esp32,6*%
X76065000Y-140247500D03*
%TO.P,esp32,7*%
X73525000Y-140247500D03*
%TO.P,esp32,8*%
X70985000Y-140247500D03*
%TO.P,esp32,9*%
X68445000Y-140247500D03*
%TO.P,esp32,10*%
X65905000Y-140247500D03*
%TO.P,esp32,11*%
X63365000Y-140247500D03*
%TO.P,esp32,12*%
X60825000Y-140247500D03*
%TO.P,esp32,13*%
X58285000Y-140247500D03*
%TO.P,esp32,14*%
X55745000Y-140247500D03*
%TO.P,esp32,15*%
X53205000Y-140247500D03*
%TO.P,esp32,16*%
X50665000Y-140247500D03*
%TO.P,esp32,17*%
X50665000Y-159967500D03*
%TO.P,esp32,18*%
%TO.N,Net-(DISP1-clk)*%
X53205000Y-159967500D03*
%TO.P,esp32,19*%
%TO.N,Net-(D1-A)*%
X55745000Y-159967500D03*
%TO.P,esp32,20*%
%TO.N,N/C*%
X58285000Y-159967500D03*
%TO.P,esp32,21*%
X60825000Y-159967500D03*
%TO.P,esp32,22*%
X63365000Y-159967500D03*
%TO.P,esp32,23*%
X65905000Y-159967500D03*
%TO.P,esp32,24*%
X68445000Y-159967500D03*
%TO.P,esp32,25*%
X70985000Y-159967500D03*
%TO.P,esp32,26*%
X73525000Y-159967500D03*
%TO.P,esp32,27*%
X76065000Y-159967500D03*
%TO.P,esp32,28*%
X78605000Y-159967500D03*
%TD*%
D17*
%TO.P,REF\u002A\u002A,1*%
%TO.N,N/C*%
X41000000Y-116310000D03*
%TO.P,REF\u002A\u002A,2*%
X41000000Y-108690000D03*
%TD*%
D18*
%TO.P,LED,1*%
%TO.N,GND*%
X83725000Y-104500000D03*
D19*
%TO.P,LED,2*%
%TO.N,N/C*%
X86265000Y-104500000D03*
%TD*%
D20*
%TO.P,BUZ,1*%
%TO.N,N/C*%
X92765000Y-126500000D03*
D21*
%TO.P,BUZ,2*%
%TO.N,GND*%
X85165000Y-126500000D03*
%TD*%
D22*
%TO.N,Net-(DISP1-clk)*%
X53205000Y-158705000D02*
X53205000Y-160267500D01*
X43000000Y-155000000D02*
X49500000Y-155000000D01*
X60500000Y-124000000D02*
X44000000Y-124000000D01*
X44000000Y-124000000D02*
X40000000Y-128000000D01*
X69735000Y-133235000D02*
X60500000Y-124000000D01*
X40000000Y-128000000D02*
X40000000Y-152000000D01*
X40000000Y-152000000D02*
X43000000Y-155000000D01*
X49500000Y-155000000D02*
X53205000Y-158705000D01*
X70115000Y-133235000D02*
X69735000Y-133235000D01*
%TO.N,Net-(D1-A)*%
X65035000Y-132035000D02*
X65035000Y-133235000D01*
X44500000Y-125500000D02*
X58500000Y-125500000D01*
X41000000Y-129000000D02*
X44500000Y-125500000D01*
X58500000Y-125500000D02*
X65035000Y-132035000D01*
X44000000Y-154000000D02*
X41000000Y-151000000D01*
X55745000Y-158245000D02*
X51500000Y-154000000D01*
X41000000Y-151000000D02*
X41000000Y-129000000D01*
X55745000Y-160267500D02*
X55745000Y-158245000D01*
X51500000Y-154000000D02*
X44000000Y-154000000D01*
%TO.N,*%
X39000000Y-153150886D02*
X41662914Y-155813800D01*
X65212500Y-163500000D02*
X68445000Y-160267500D01*
X81000000Y-102500000D02*
X81000000Y-104500000D01*
X41662914Y-155813800D02*
X47313800Y-155813800D01*
X61500000Y-106000000D02*
X58810000Y-108690000D01*
X79500000Y-106000000D02*
X61500000Y-106000000D01*
X37500000Y-153500000D02*
X37500000Y-124000000D01*
X86500000Y-102500000D02*
X86235600Y-102235600D01*
X89500000Y-123235000D02*
X89500000Y-103000000D01*
X41000000Y-120500000D02*
X41000000Y-116310000D01*
X86500000Y-104265000D02*
X86500000Y-102500000D01*
X85235600Y-102235600D02*
X84500000Y-101500000D01*
X37500000Y-124000000D02*
X41000000Y-120500000D01*
X75000000Y-103500000D02*
X62000000Y-103500000D01*
X86265000Y-104500000D02*
X86500000Y-104265000D01*
X46405000Y-162405000D02*
X37500000Y-153500000D01*
X65905000Y-160595000D02*
X65905000Y-161095000D01*
X36500000Y-154000000D02*
X46000000Y-163500000D01*
X65905000Y-161095000D02*
X64595000Y-162405000D01*
X50665000Y-159165000D02*
X50665000Y-160267500D01*
X39000000Y-106500000D02*
X36500000Y-109000000D01*
X86235600Y-102235600D02*
X85235600Y-102235600D01*
X46000000Y-163500000D02*
X65212500Y-163500000D01*
X47313800Y-155813800D02*
X50665000Y-159165000D01*
X92765000Y-126500000D02*
X89500000Y-123235000D01*
X58810000Y-108690000D02*
X41000000Y-108690000D01*
X59000000Y-106500000D02*
X39000000Y-106500000D01*
X64595000Y-162405000D02*
X46405000Y-162405000D01*
X39000000Y-127000000D02*
X39000000Y-153150886D01*
X72500000Y-133000000D02*
X62000000Y-122500000D01*
X89500000Y-103000000D02*
X87000000Y-100500000D01*
X43500000Y-122500000D02*
X39000000Y-127000000D01*
X62000000Y-103500000D02*
X59000000Y-106500000D01*
X81000000Y-104500000D02*
X79500000Y-106000000D01*
X78000000Y-100500000D02*
X75000000Y-103500000D01*
X36500000Y-109000000D02*
X36500000Y-154000000D01*
X82000000Y-101500000D02*
X81000000Y-102500000D01*
X87000000Y-100500000D02*
X78000000Y-100500000D01*
X84500000Y-101500000D02*
X82000000Y-101500000D01*
X72500000Y-133500000D02*
X72500000Y-133000000D01*
X62000000Y-122500000D02*
X43500000Y-122500000D01*
D23*
%TO.N,GND*%
X83500000Y-107000000D02*
X83500000Y-106127169D01*
X84322600Y-105097600D02*
X83725000Y-104500000D01*
X80971000Y-136500000D02*
X82000000Y-135471000D01*
X82000000Y-135471000D02*
X82000000Y-129665000D01*
X81145000Y-136674000D02*
X81145000Y-139947500D01*
X54875000Y-133235000D02*
X54875000Y-135125000D01*
X82000000Y-129665000D02*
X85165000Y-126500000D01*
X54875000Y-135125000D02*
X56250000Y-136500000D01*
X85165000Y-108665000D02*
X83500000Y-107000000D01*
X56250000Y-136500000D02*
X80971000Y-136500000D01*
X85165000Y-126500000D02*
X85165000Y-108665000D01*
X83500000Y-106127169D02*
X84322600Y-105304569D01*
X84322600Y-105304569D02*
X84322600Y-105097600D01*
X80971000Y-136500000D02*
X81145000Y-136674000D01*
D22*
%TO.N,Net-(D1-A)*%
X65035000Y-133465000D02*
X65000000Y-133500000D01*
D23*
%TO.N,3.3V*%
X48500000Y-130000000D02*
X56500000Y-130000000D01*
X83900152Y-144000000D02*
X46000000Y-144000000D01*
X56500000Y-130000000D02*
X57415000Y-130915000D01*
X46000000Y-144000000D02*
X44000000Y-142000000D01*
X44000000Y-142000000D02*
X44000000Y-134500000D01*
X44000000Y-134500000D02*
X48500000Y-130000000D01*
X86225000Y-141675152D02*
X83900152Y-144000000D01*
X57415000Y-130915000D02*
X57415000Y-133184000D01*
X86225000Y-139947500D02*
X86225000Y-141675152D01*
%TD*%
%TA.AperFunction,Conductor*%
%TO.N,GND*%
G36*
X81395000Y-142024106D02*
G01*
X81449421Y-142015488D01*
X81644031Y-141952254D01*
X81826349Y-141859359D01*
X81991891Y-141739085D01*
X82132135Y-141598841D01*
X82193458Y-141565356D01*
X82263150Y-141570340D01*
X82319084Y-141612211D01*
X82320135Y-141613637D01*
X82454437Y-141798488D01*
X82454441Y-141798493D01*
X82634006Y-141978058D01*
X82634011Y-141978062D01*
X82778367Y-142082942D01*
X82839446Y-142127318D01*
X82983620Y-142200778D01*
X83065703Y-142242602D01*
X83065705Y-142242602D01*
X83065708Y-142242604D01*
X83180896Y-142280031D01*
X83272418Y-142309769D01*
X83330093Y-142349207D01*
X83357291Y-142413566D01*
X83345376Y-142482412D01*
X83298132Y-142533888D01*
X83234099Y-142551700D01*
X79055901Y-142551700D01*
X78988862Y-142532015D01*
X78943107Y-142479211D01*
X78933163Y-142410053D01*
X78962188Y-142346497D01*
X79017582Y-142309769D01*
X79094138Y-142284894D01*
X79224292Y-142242604D01*
X79450554Y-142127318D01*
X79655995Y-141978057D01*
X79835557Y-141798495D01*
X79835559Y-141798491D01*
X79835562Y-141798489D01*
X79969864Y-141613637D01*
X80025193Y-141570971D01*
X80094807Y-141564992D01*
X80156602Y-141597597D01*
X80157863Y-141598841D01*
X80298104Y-141739082D01*
X80463650Y-141859359D01*
X80645968Y-141952254D01*
X80840578Y-142015488D01*
X80895000Y-142024107D01*
X80895000Y-140380512D01*
X80952007Y-140413425D01*
X81079174Y-140447500D01*
X81210826Y-140447500D01*
X81337993Y-140413425D01*
X81395000Y-140380512D01*
X81395000Y-142024106D01*
G37*
%TD.AperFunction*%
%TA.AperFunction,Conductor*%
G36*
X95870837Y-99000419D02*
G01*
X95937874Y-99020112D01*
X95983622Y-99072922D01*
X95994818Y-99125344D01*
X95504139Y-164876425D01*
X95483954Y-164943316D01*
X95430810Y-164988676D01*
X95380142Y-164999500D01*
X34629177Y-164999500D01*
X34562138Y-164979815D01*
X34516383Y-164927011D01*
X34505180Y-164874575D01*
X34507852Y-164516500D01*
X34585577Y-154100118D01*
X35483499Y-154100118D01*
X35522562Y-154296496D01*
X35522564Y-154296502D01*
X35599189Y-154481491D01*
X35710434Y-154647983D01*
X35710435Y-154647984D01*
X45210433Y-164147981D01*
X45352019Y-164289567D01*
X45518507Y-164400810D01*
X45703498Y-164477436D01*
X45703502Y-164477436D01*
X45703503Y-164477437D01*
X45899881Y-164516500D01*
X45899884Y-164516500D01*
X65312618Y-164516500D01*
X65444738Y-164490218D01*
X65509002Y-164477436D01*
X65693993Y-164400810D01*
X65860481Y-164289567D01*
X68058589Y-162091457D01*
X68119910Y-162057974D01*
X68165662Y-162056667D01*
X68318031Y-162080800D01*
X68318032Y-162080800D01*
X68571974Y-162080800D01*
X68822782Y-162041076D01*
X69064292Y-161962604D01*
X69290554Y-161847318D01*
X69495995Y-161698057D01*
X69627319Y-161566733D01*
X69688642Y-161533248D01*
X69758334Y-161538232D01*
X69802681Y-161566733D01*
X69934006Y-161698058D01*
X69934011Y-161698062D01*
X70113199Y-161828248D01*
X70139446Y-161847318D01*
X70283620Y-161920778D01*
X70365703Y-161962602D01*
X70365705Y-161962602D01*
X70365708Y-161962604D01*
X70495161Y-162004666D01*
X70607217Y-162041076D01*
X70858026Y-162080800D01*
X70858031Y-162080800D01*
X71111974Y-162080800D01*
X71362782Y-162041076D01*
X71604292Y-161962604D01*
X71830554Y-161847318D01*
X72035995Y-161698057D01*
X72167319Y-161566733D01*
X72228642Y-161533248D01*
X72298334Y-161538232D01*
X72342681Y-161566733D01*
X72474006Y-161698058D01*
X72474011Y-161698062D01*
X72653199Y-161828248D01*
X72679446Y-161847318D01*
X72823620Y-161920778D01*
X72905703Y-161962602D01*
X72905705Y-161962602D01*
X72905708Y-161962604D01*
X73035161Y-162004666D01*
X73147217Y-162041076D01*
X73398026Y-162080800D01*
X73398031Y-162080800D01*
X73651974Y-162080800D01*
X73902782Y-162041076D01*
X74144292Y-161962604D01*
X74370554Y-161847318D01*
X74575995Y-161698057D01*
X74707319Y-161566733D01*
X74768642Y-161533248D01*
X74838334Y-161538232D01*
X74882681Y-161566733D01*
X75014006Y-161698058D01*
X75014011Y-161698062D01*
X75193199Y-161828248D01*
X75219446Y-161847318D01*
X75363620Y-161920778D01*
X75445703Y-161962602D01*
X75445705Y-161962602D01*
X75445708Y-161962604D01*
X75575161Y-162004666D01*
X75687217Y-162041076D01*
X75938026Y-162080800D01*
X75938031Y-162080800D01*
X76191974Y-162080800D01*
X76442782Y-162041076D01*
X76684292Y-161962604D01*
X76910554Y-161847318D01*
X77115995Y-161698057D01*
X77247319Y-161566733D01*
X77308642Y-161533248D01*
X77378334Y-161538232D01*
X77422681Y-161566733D01*
X77554006Y-161698058D01*
X77554011Y-161698062D01*
X77733199Y-161828248D01*
X77759446Y-161847318D01*
X77903620Y-161920778D01*
X77985703Y-161962602D01*
X77985705Y-161962602D01*
X77985708Y-161962604D01*
X78115161Y-162004666D01*
X78227217Y-162041076D01*
X78478026Y-162080800D01*
X78478031Y-162080800D01*
X78731974Y-162080800D01*
X78982782Y-162041076D01*
X79224292Y-161962604D01*
X79450554Y-161847318D01*
X79655995Y-161698057D01*
X79835557Y-161518495D01*
X79984818Y-161313054D01*
X80100104Y-161086792D01*
X80178576Y-160845282D01*
X80218300Y-160594474D01*
X80218300Y-159340525D01*
X80178576Y-159089717D01*
X80147021Y-158992602D01*
X80104574Y-158861965D01*
X90161700Y-158861965D01*
X90161700Y-159133034D01*
X90192045Y-159402365D01*
X90192048Y-159402379D01*
X90252363Y-159666639D01*
X90252367Y-159666651D01*
X90341889Y-159922488D01*
X90459493Y-160166695D01*
X90459495Y-160166698D01*
X90603705Y-160396208D01*
X90772706Y-160608128D01*
X90964372Y-160799794D01*
X91176292Y-160968795D01*
X91405802Y-161113005D01*
X91650015Y-161230612D01*
X91842160Y-161297846D01*
X91905848Y-161320132D01*
X91905860Y-161320136D01*
X92170120Y-161380452D01*
X92170129Y-161380453D01*
X92170134Y-161380454D01*
X92349688Y-161400684D01*
X92439466Y-161410799D01*
X92439469Y-161410800D01*
X92439472Y-161410800D01*
X92710531Y-161410800D01*
X92710532Y-161410799D01*
X92848180Y-161395290D01*
X92979865Y-161380454D01*
X92979868Y-161380453D01*
X92979880Y-161380452D01*
X93244140Y-161320136D01*
X93499985Y-161230612D01*
X93744198Y-161113005D01*
X93973708Y-160968795D01*
X94185628Y-160799794D01*
X94377294Y-160608128D01*
X94546295Y-160396208D01*
X94690505Y-160166698D01*
X94808112Y-159922485D01*
X94897636Y-159666640D01*
X94957952Y-159402380D01*
X94988300Y-159133028D01*
X94988300Y-158861972D01*
X94963454Y-158641449D01*
X94957954Y-158592634D01*
X94957953Y-158592629D01*
X94957952Y-158592620D01*
X94897636Y-158328360D01*
X94808112Y-158072515D01*
X94690505Y-157828302D01*
X94546295Y-157598792D01*
X94377294Y-157386872D01*
X94185628Y-157195206D01*
X93973708Y-157026205D01*
X93744198Y-156881995D01*
X93744195Y-156881993D01*
X93499988Y-156764389D01*
X93244151Y-156674867D01*
X93244139Y-156674863D01*
X93040195Y-156628314D01*
X92979880Y-156614548D01*
X92979877Y-156614547D01*
X92979865Y-156614545D01*
X92710534Y-156584200D01*
X92710528Y-156584200D01*
X92439472Y-156584200D01*
X92439465Y-156584200D01*
X92170134Y-156614545D01*
X92170120Y-156614548D01*
X91905860Y-156674863D01*
X91905848Y-156674867D01*
X91650011Y-156764389D01*
X91405804Y-156881993D01*
X91176293Y-157026204D01*
X90964372Y-157195205D01*
X90772705Y-157386872D01*
X90603704Y-157598793D01*
X90459493Y-157828304D01*
X90341889Y-158072511D01*
X90252367Y-158328348D01*
X90252363Y-158328360D01*
X90192048Y-158592620D01*
X90192045Y-158592634D01*
X90161700Y-158861965D01*
X80104574Y-158861965D01*
X80100104Y-158848208D01*
X80100102Y-158848205D01*
X80100102Y-158848203D01*
X80058278Y-158766120D01*
X79984818Y-158621946D01*
X79962151Y-158590747D01*
X79835562Y-158416511D01*
X79835558Y-158416506D01*
X79655993Y-158236941D01*
X79655988Y-158236937D01*
X79450557Y-158087684D01*
X79450556Y-158087683D01*
X79450554Y-158087682D01*
X79379895Y-158051679D01*
X79224296Y-157972397D01*
X78982782Y-157893923D01*
X78731974Y-157854200D01*
X78731969Y-157854200D01*
X78478031Y-157854200D01*
X78478026Y-157854200D01*
X78227217Y-157893923D01*
X77985703Y-157972397D01*
X77759442Y-158087684D01*
X77554011Y-158236937D01*
X77554006Y-158236941D01*
X77422681Y-158368267D01*
X77361358Y-158401752D01*
X77291666Y-158396768D01*
X77247319Y-158368267D01*
X77115993Y-158236941D01*
X77115988Y-158236937D01*
X76910557Y-158087684D01*
X76910556Y-158087683D01*
X76910554Y-158087682D01*
X76839895Y-158051679D01*
X76684296Y-157972397D01*
X76442782Y-157893923D01*
X76191974Y-157854200D01*
X76191969Y-157854200D01*
X75938031Y-157854200D01*
X75938026Y-157854200D01*
X75687217Y-157893923D01*
X75445703Y-157972397D01*
X75219442Y-158087684D01*
X75014011Y-158236937D01*
X75014006Y-158236941D01*
X74882681Y-158368267D01*
X74821358Y-158401752D01*
X74751666Y-158396768D01*
X74707319Y-158368267D01*
X74575993Y-158236941D01*
X74575988Y-158236937D01*
X74370557Y-158087684D01*
X74370556Y-158087683D01*
X74370554Y-158087682D01*
X74299895Y-158051679D01*
X74144296Y-157972397D01*
X73902782Y-157893923D01*
X73651974Y-157854200D01*
X73651969Y-157854200D01*
X73398031Y-157854200D01*
X73398026Y-157854200D01*
X73147217Y-157893923D01*
X72905703Y-157972397D01*
X72679442Y-158087684D01*
X72474011Y-158236937D01*
X72474006Y-158236941D01*
X72342681Y-158368267D01*
X72281358Y-158401752D01*
X72211666Y-158396768D01*
X72167319Y-158368267D01*
X72035993Y-158236941D01*
X72035988Y-158236937D01*
X71830557Y-158087684D01*
X71830556Y-158087683D01*
X71830554Y-158087682D01*
X71759895Y-158051679D01*
X71604296Y-157972397D01*
X71362782Y-157893923D01*
X71111974Y-157854200D01*
X71111969Y-157854200D01*
X70858031Y-157854200D01*
X70858026Y-157854200D01*
X70607217Y-157893923D01*
X70365703Y-157972397D01*
X70139442Y-158087684D01*
X69934011Y-158236937D01*
X69934006Y-158236941D01*
X69802681Y-158368267D01*
X69741358Y-158401752D01*
X69671666Y-158396768D01*
X69627319Y-158368267D01*
X69495993Y-158236941D01*
X69495988Y-158236937D01*
X69290557Y-158087684D01*
X69290556Y-158087683D01*
X69290554Y-158087682D01*
X69219895Y-158051679D01*
X69064296Y-157972397D01*
X68822782Y-157893923D01*
X68571974Y-157854200D01*
X68571969Y-157854200D01*
X68318031Y-157854200D01*
X68318026Y-157854200D01*
X68067217Y-157893923D01*
X67825703Y-157972397D01*
X67599442Y-158087684D01*
X67394011Y-158236937D01*
X67394006Y-158236941D01*
X67262681Y-158368267D01*
X67201358Y-158401752D01*
X67131666Y-158396768D01*
X67087319Y-158368267D01*
X66955993Y-158236941D01*
X66955988Y-158236937D01*
X66750557Y-158087684D01*
X66750556Y-158087683D01*
X66750554Y-158087682D01*
X66679895Y-158051679D01*
X66524296Y-157972397D01*
X66282782Y-157893923D01*
X66031974Y-157854200D01*
X66031969Y-157854200D01*
X65778031Y-157854200D01*
X65778026Y-157854200D01*
X65527217Y-157893923D01*
X65285703Y-157972397D01*
X65059442Y-158087684D01*
X64854011Y-158236937D01*
X64854006Y-158236941D01*
X64722681Y-158368267D01*
X64661358Y-158401752D01*
X64591666Y-158396768D01*
X64547319Y-158368267D01*
X64415993Y-158236941D01*
X64415988Y-158236937D01*
X64210557Y-158087684D01*
X64210556Y-158087683D01*
X64210554Y-158087682D01*
X64139895Y-158051679D01*
X63984296Y-157972397D01*
X63742782Y-157893923D01*
X63491974Y-157854200D01*
X63491969Y-157854200D01*
X63238031Y-157854200D01*
X63238026Y-157854200D01*
X62987217Y-157893923D01*
X62745703Y-157972397D01*
X62519442Y-158087684D01*
X62314011Y-158236937D01*
X62314006Y-158236941D01*
X62182681Y-158368267D01*
X62121358Y-158401752D01*
X62051666Y-158396768D01*
X62007319Y-158368267D01*
X61875993Y-158236941D01*
X61875988Y-158236937D01*
X61670557Y-158087684D01*
X61670556Y-158087683D01*
X61670554Y-158087682D01*
X61599895Y-158051679D01*
X61444296Y-157972397D01*
X61202782Y-157893923D01*
X60951974Y-157854200D01*
X60951969Y-157854200D01*
X60698031Y-157854200D01*
X60698026Y-157854200D01*
X60447217Y-157893923D01*
X60205703Y-157972397D01*
X59979442Y-158087684D01*
X59774011Y-158236937D01*
X59774006Y-158236941D01*
X59642681Y-158368267D01*
X59581358Y-158401752D01*
X59511666Y-158396768D01*
X59467319Y-158368267D01*
X59335993Y-158236941D01*
X59335988Y-158236937D01*
X59130557Y-158087684D01*
X59130556Y-158087683D01*
X59130554Y-158087682D01*
X59059895Y-158051679D01*
X58904296Y-157972397D01*
X58662782Y-157893923D01*
X58411974Y-157854200D01*
X58411969Y-157854200D01*
X58158031Y-157854200D01*
X58158026Y-157854200D01*
X57907217Y-157893923D01*
X57665703Y-157972397D01*
X57439442Y-158087684D01*
X57234011Y-158236937D01*
X57234006Y-158236941D01*
X57102681Y-158368267D01*
X57094735Y-158372605D01*
X57089310Y-158379853D01*
X57064550Y-158389087D01*
X57041358Y-158401752D01*
X57032328Y-158401106D01*
X57023846Y-158404270D01*
X56998025Y-158398653D01*
X56971666Y-158396768D01*
X56962612Y-158390949D01*
X56955573Y-158389418D01*
X56927319Y-158368267D01*
X56797819Y-158238767D01*
X56764334Y-158177444D01*
X56761500Y-158151086D01*
X56761500Y-158144881D01*
X56722437Y-157948504D01*
X56722436Y-157948498D01*
X56699831Y-157893924D01*
X56672650Y-157828302D01*
X56645814Y-157763513D01*
X56645807Y-157763500D01*
X56534567Y-157597019D01*
X56534564Y-157597015D01*
X52286524Y-153348975D01*
X65416224Y-153348975D01*
X69632251Y-153348975D01*
X69632251Y-150560663D01*
X65416224Y-150560663D01*
X65416224Y-153348975D01*
X52286524Y-153348975D01*
X52147983Y-153210434D01*
X52064737Y-153154811D01*
X51981493Y-153099190D01*
X51796502Y-153022564D01*
X51796496Y-153022562D01*
X51600118Y-152983500D01*
X51600116Y-152983500D01*
X44472410Y-152983500D01*
X44405371Y-152963815D01*
X44384729Y-152947181D01*
X42052819Y-150615271D01*
X42038115Y-150588343D01*
X42021523Y-150562525D01*
X42020631Y-150556324D01*
X42019334Y-150553948D01*
X42016500Y-150527590D01*
X42016500Y-129472410D01*
X42036185Y-129405371D01*
X42052819Y-129384729D01*
X44884729Y-126552819D01*
X44946052Y-126519334D01*
X44972410Y-126516500D01*
X58027590Y-126516500D01*
X58094629Y-126536185D01*
X58115271Y-126552819D01*
X62960715Y-131398263D01*
X62994200Y-131459586D01*
X62989216Y-131529278D01*
X62947344Y-131585211D01*
X62881880Y-131609628D01*
X62840943Y-131605719D01*
X62820195Y-131600160D01*
X62820190Y-131600159D01*
X62604019Y-131571700D01*
X62604018Y-131571700D01*
X62385982Y-131571700D01*
X62385981Y-131571700D01*
X62169813Y-131600158D01*
X61959202Y-131656592D01*
X61757774Y-131740025D01*
X61757759Y-131740032D01*
X61568936Y-131849048D01*
X61395956Y-131981782D01*
X61312681Y-132065057D01*
X61251358Y-132098542D01*
X61181666Y-132093558D01*
X61137319Y-132065057D01*
X61054052Y-131981790D01*
X61054043Y-131981782D01*
X60881063Y-131849048D01*
X60692240Y-131740032D01*
X60692225Y-131740025D01*
X60490797Y-131656592D01*
X60300940Y-131605719D01*
X60280190Y-131600159D01*
X60280189Y-131600158D01*
X60280186Y-131600158D01*
X60064019Y-131571700D01*
X60064018Y-131571700D01*
X59845982Y-131571700D01*
X59845981Y-131571700D01*
X59629813Y-131600158D01*
X59419202Y-131656592D01*
X59217774Y-131740025D01*
X59217752Y-131740036D01*
X59049299Y-131837292D01*
X58981399Y-131853765D01*
X58915372Y-131830912D01*
X58872182Y-131775991D01*
X58863300Y-131729905D01*
X58863300Y-130801016D01*
X58827638Y-130575856D01*
X58827637Y-130575852D01*
X58827637Y-130575851D01*
X58758699Y-130363684D01*
X58757637Y-130359918D01*
X58653696Y-130155924D01*
X58519701Y-129971496D01*
X57443504Y-128895298D01*
X57443503Y-128895297D01*
X57443502Y-128895296D01*
X57443497Y-128895292D01*
X57259078Y-128761305D01*
X57259077Y-128761304D01*
X57259075Y-128761303D01*
X57195643Y-128728982D01*
X57055958Y-128657809D01*
X56839144Y-128587362D01*
X56613984Y-128551700D01*
X48386016Y-128551700D01*
X48273436Y-128569531D01*
X48160855Y-128587362D01*
X47944041Y-128657809D01*
X47740921Y-128761305D01*
X47556502Y-128895292D01*
X47556497Y-128895296D01*
X42895296Y-133556497D01*
X42895292Y-133556502D01*
X42761305Y-133740921D01*
X42706043Y-133849379D01*
X42657809Y-133944041D01*
X42597167Y-134130678D01*
X42587362Y-134160856D01*
X42551700Y-134386016D01*
X42551700Y-142113984D01*
X42553812Y-142127318D01*
X42587362Y-142339145D01*
X42587362Y-142339148D01*
X42611543Y-142413566D01*
X42633912Y-142482412D01*
X42639901Y-142500842D01*
X42657809Y-142555958D01*
X42761305Y-142759078D01*
X42895292Y-142943497D01*
X42895296Y-142943502D01*
X45056497Y-145104703D01*
X45056502Y-145104707D01*
X45217362Y-145221577D01*
X45240925Y-145238697D01*
X45370353Y-145304644D01*
X45444041Y-145342190D01*
X45444043Y-145342190D01*
X45444046Y-145342192D01*
X45660856Y-145412638D01*
X45886016Y-145448300D01*
X45886017Y-145448300D01*
X84014135Y-145448300D01*
X84014136Y-145448300D01*
X84239296Y-145412638D01*
X84456106Y-145342192D01*
X84659227Y-145238697D01*
X84843656Y-145104702D01*
X87329702Y-142618656D01*
X87463697Y-142434227D01*
X87501210Y-142360601D01*
X87549182Y-142309807D01*
X87617003Y-142293011D01*
X87652648Y-142299855D01*
X87764926Y-142339144D01*
X87782882Y-142345427D01*
X87886308Y-142357079D01*
X87919322Y-142360799D01*
X87919325Y-142360800D01*
X87919328Y-142360800D01*
X89610675Y-142360800D01*
X89610676Y-142360799D01*
X89691837Y-142351655D01*
X89747115Y-142345427D01*
X89747116Y-142345426D01*
X89747121Y-142345426D01*
X89920110Y-142284894D01*
X90075293Y-142187387D01*
X90146253Y-142116427D01*
X90207576Y-142082942D01*
X90277268Y-142087926D01*
X90333201Y-142129798D01*
X90345654Y-142150306D01*
X90459493Y-142386695D01*
X90459495Y-142386698D01*
X90603705Y-142616208D01*
X90772706Y-142828128D01*
X90964372Y-143019794D01*
X91176292Y-143188795D01*
X91405802Y-143333005D01*
X91405804Y-143333006D01*
X91652311Y-143451718D01*
X91704170Y-143498540D01*
X91722483Y-143565968D01*
X91701435Y-143632591D01*
X91647709Y-143677260D01*
X91598509Y-143687438D01*
X87000000Y-143687438D01*
X87000000Y-156187438D01*
X95000000Y-156187438D01*
X95000000Y-143687438D01*
X93551491Y-143687438D01*
X93484452Y-143667753D01*
X93438697Y-143614949D01*
X93428753Y-143545791D01*
X93457778Y-143482235D01*
X93497689Y-143451718D01*
X93597507Y-143403647D01*
X93744198Y-143333005D01*
X93973708Y-143188795D01*
X94185628Y-143019794D01*
X94377294Y-142828128D01*
X94546295Y-142616208D01*
X94690505Y-142386698D01*
X94808112Y-142142485D01*
X94897636Y-141886640D01*
X94957952Y-141622380D01*
X94960745Y-141597597D01*
X94972790Y-141490680D01*
X94988300Y-141353028D01*
X94988300Y-141081972D01*
X94963454Y-140861449D01*
X94957954Y-140812634D01*
X94957953Y-140812629D01*
X94957952Y-140812620D01*
X94897636Y-140548360D01*
X94808112Y-140292515D01*
X94690505Y-140048302D01*
X94546295Y-139818792D01*
X94377294Y-139606872D01*
X94185628Y-139415206D01*
X93973708Y-139246205D01*
X93744198Y-139101995D01*
X93744195Y-139101993D01*
X93499988Y-138984389D01*
X93244151Y-138894867D01*
X93244139Y-138894863D01*
X93040195Y-138848314D01*
X92979880Y-138834548D01*
X92979877Y-138834547D01*
X92979865Y-138834545D01*
X92710534Y-138804200D01*
X92710528Y-138804200D01*
X92439472Y-138804200D01*
X92439465Y-138804200D01*
X92170134Y-138834545D01*
X92170120Y-138834548D01*
X91905860Y-138894863D01*
X91905848Y-138894867D01*
X91650011Y-138984389D01*
X91405804Y-139101993D01*
X91176293Y-139246204D01*
X90964372Y-139415205D01*
X90772705Y-139606872D01*
X90603704Y-139818793D01*
X90603419Y-139819195D01*
X90603323Y-139819269D01*
X90601536Y-139821512D01*
X90601011Y-139821093D01*
X90548564Y-139862470D01*
X90479021Y-139869219D01*
X90416869Y-139837299D01*
X90381841Y-139776845D01*
X90378300Y-139747424D01*
X90378300Y-138901825D01*
X90378299Y-138901821D01*
X90376154Y-138882787D01*
X90373286Y-138857328D01*
X90362927Y-138765384D01*
X90362926Y-138765382D01*
X90362926Y-138765379D01*
X90302394Y-138592390D01*
X90204887Y-138437207D01*
X90075293Y-138307613D01*
X89920110Y-138210106D01*
X89920109Y-138210105D01*
X89920108Y-138210105D01*
X89920106Y-138210104D01*
X89747115Y-138149572D01*
X89610678Y-138134200D01*
X89610672Y-138134200D01*
X87919328Y-138134200D01*
X87919321Y-138134200D01*
X87782884Y-138149572D01*
X87609893Y-138210104D01*
X87609891Y-138210105D01*
X87454708Y-138307612D01*
X87333148Y-138429172D01*
X87271825Y-138462656D01*
X87202133Y-138457672D01*
X87172582Y-138441809D01*
X87070553Y-138367681D01*
X86844296Y-138252397D01*
X86602782Y-138173923D01*
X86351974Y-138134200D01*
X86351969Y-138134200D01*
X86098031Y-138134200D01*
X86098026Y-138134200D01*
X85847217Y-138173923D01*
X85605703Y-138252397D01*
X85379442Y-138367684D01*
X85174011Y-138516937D01*
X85174006Y-138516941D01*
X85042681Y-138648267D01*
X84981358Y-138681752D01*
X84911666Y-138676768D01*
X84867319Y-138648267D01*
X84735993Y-138516941D01*
X84735988Y-138516937D01*
X84530557Y-138367684D01*
X84530556Y-138367683D01*
X84530554Y-138367682D01*
X84412660Y-138307612D01*
X84304296Y-138252397D01*
X84062782Y-138173923D01*
X83811974Y-138134200D01*
X83811969Y-138134200D01*
X83558031Y-138134200D01*
X83558026Y-138134200D01*
X83307217Y-138173923D01*
X83065703Y-138252397D01*
X82839442Y-138367684D01*
X82634011Y-138516937D01*
X82634006Y-138516941D01*
X82454441Y-138696506D01*
X82320135Y-138881363D01*
X82264805Y-138924028D01*
X82195192Y-138930007D01*
X82133397Y-138897401D01*
X82132136Y-138896158D01*
X81991895Y-138755917D01*
X81826349Y-138635640D01*
X81644029Y-138542744D01*
X81449413Y-138479509D01*
X81395000Y-138470890D01*
X81395000Y-139514488D01*
X81337993Y-139481575D01*
X81210826Y-139447500D01*
X81079174Y-139447500D01*
X80952007Y-139481575D01*
X80895000Y-139514488D01*
X80895000Y-138470890D01*
X80840586Y-138479509D01*
X80645970Y-138542744D01*
X80463650Y-138635640D01*
X80298108Y-138755914D01*
X80157863Y-138896159D01*
X80096540Y-138929643D01*
X80026848Y-138924659D01*
X79970915Y-138882787D01*
X79969864Y-138881362D01*
X79835562Y-138696511D01*
X79835558Y-138696506D01*
X79655993Y-138516941D01*
X79655988Y-138516937D01*
X79450557Y-138367684D01*
X79450556Y-138367683D01*
X79450554Y-138367682D01*
X79332660Y-138307612D01*
X79224296Y-138252397D01*
X78982782Y-138173923D01*
X78731974Y-138134200D01*
X78731969Y-138134200D01*
X78478031Y-138134200D01*
X78478026Y-138134200D01*
X78227217Y-138173923D01*
X77985703Y-138252397D01*
X77759442Y-138367684D01*
X77554011Y-138516937D01*
X77554006Y-138516941D01*
X77422681Y-138648267D01*
X77361358Y-138681752D01*
X77291666Y-138676768D01*
X77247319Y-138648267D01*
X77115993Y-138516941D01*
X77115988Y-138516937D01*
X76910557Y-138367684D01*
X76910556Y-138367683D01*
X76910554Y-138367682D01*
X76792660Y-138307612D01*
X76684296Y-138252397D01*
X76442782Y-138173923D01*
X76191974Y-138134200D01*
X76191969Y-138134200D01*
X75938031Y-138134200D01*
X75938026Y-138134200D01*
X75687217Y-138173923D01*
X75445703Y-138252397D01*
X75219442Y-138367684D01*
X75014011Y-138516937D01*
X75014006Y-138516941D01*
X74882681Y-138648267D01*
X74821358Y-138681752D01*
X74751666Y-138676768D01*
X74707319Y-138648267D01*
X74575993Y-138516941D01*
X74575988Y-138516937D01*
X74370557Y-138367684D01*
X74370556Y-138367683D01*
X74370554Y-138367682D01*
X74252660Y-138307612D01*
X74144296Y-138252397D01*
X73902782Y-138173923D01*
X73651974Y-138134200D01*
X73651969Y-138134200D01*
X73398031Y-138134200D01*
X73398026Y-138134200D01*
X73147217Y-138173923D01*
X72905703Y-138252397D01*
X72679442Y-138367684D01*
X72474011Y-138516937D01*
X72474006Y-138516941D01*
X72342681Y-138648267D01*
X72281358Y-138681752D01*
X72211666Y-138676768D01*
X72167319Y-138648267D01*
X72035993Y-138516941D01*
X72035988Y-138516937D01*
X71830557Y-138367684D01*
X71830556Y-138367683D01*
X71830554Y-138367682D01*
X71712660Y-138307612D01*
X71604296Y-138252397D01*
X71362782Y-138173923D01*
X71111974Y-138134200D01*
X71111969Y-138134200D01*
X70858031Y-138134200D01*
X70858026Y-138134200D01*
X70607217Y-138173923D01*
X70365703Y-138252397D01*
X70139442Y-138367684D01*
X69934011Y-138516937D01*
X69934006Y-138516941D01*
X69802681Y-138648267D01*
X69741358Y-138681752D01*
X69671666Y-138676768D01*
X69627319Y-138648267D01*
X69495993Y-138516941D01*
X69495988Y-138516937D01*
X69290557Y-138367684D01*
X69290556Y-138367683D01*
X69290554Y-138367682D01*
X69172660Y-138307612D01*
X69064296Y-138252397D01*
X68822782Y-138173923D01*
X68571974Y-138134200D01*
X68571969Y-138134200D01*
X68318031Y-138134200D01*
X68318026Y-138134200D01*
X68067217Y-138173923D01*
X67825703Y-138252397D01*
X67599442Y-138367684D01*
X67394011Y-138516937D01*
X67394006Y-138516941D01*
X67262681Y-138648267D01*
X67201358Y-138681752D01*
X67131666Y-138676768D01*
X67087319Y-138648267D01*
X66955993Y-138516941D01*
X66955988Y-138516937D01*
X66750557Y-138367684D01*
X66750556Y-138367683D01*
X66750554Y-138367682D01*
X66632660Y-138307612D01*
X66524296Y-138252397D01*
X66282782Y-138173923D01*
X66031974Y-138134200D01*
X66031969Y-138134200D01*
X65778031Y-138134200D01*
X65778026Y-138134200D01*
X65527217Y-138173923D01*
X65285703Y-138252397D01*
X65059442Y-138367684D01*
X64854011Y-138516937D01*
X64854006Y-138516941D01*
X64722681Y-138648267D01*
X64661358Y-138681752D01*
X64591666Y-138676768D01*
X64547319Y-138648267D01*
X64415993Y-138516941D01*
X64415988Y-138516937D01*
X64210557Y-138367684D01*
X64210556Y-138367683D01*
X64210554Y-138367682D01*
X64092660Y-138307612D01*
X63984296Y-138252397D01*
X63742782Y-138173923D01*
X63491974Y-138134200D01*
X63491969Y-138134200D01*
X63238031Y-138134200D01*
X63238026Y-138134200D01*
X62987217Y-138173923D01*
X62745703Y-138252397D01*
X62519442Y-138367684D01*
X62314011Y-138516937D01*
X62314006Y-138516941D01*
X62182681Y-138648267D01*
X62121358Y-138681752D01*
X62051666Y-138676768D01*
X62007319Y-138648267D01*
X61875993Y-138516941D01*
X61875988Y-138516937D01*
X61670557Y-138367684D01*
X61670556Y-138367683D01*
X61670554Y-138367682D01*
X61552660Y-138307612D01*
X61444296Y-138252397D01*
X61202782Y-138173923D01*
X60951974Y-138134200D01*
X60951969Y-138134200D01*
X60698031Y-138134200D01*
X60698026Y-138134200D01*
X60447217Y-138173923D01*
X60205703Y-138252397D01*
X59979442Y-138367684D01*
X59774011Y-138516937D01*
X59774006Y-138516941D01*
X59642681Y-138648267D01*
X59581358Y-138681752D01*
X59511666Y-138676768D01*
X59467319Y-138648267D01*
X59335993Y-138516941D01*
X59335988Y-138516937D01*
X59130557Y-138367684D01*
X59130556Y-138367683D01*
X59130554Y-138367682D01*
X59012660Y-138307612D01*
X58904296Y-138252397D01*
X58662782Y-138173923D01*
X58411974Y-138134200D01*
X58411969Y-138134200D01*
X58158031Y-138134200D01*
X58158026Y-138134200D01*
X57907217Y-138173923D01*
X57665703Y-138252397D01*
X57439442Y-138367684D01*
X57234011Y-138516937D01*
X57234006Y-138516941D01*
X57102681Y-138648267D01*
X57041358Y-138681752D01*
X56971666Y-138676768D01*
X56927319Y-138648267D01*
X56795993Y-138516941D01*
X56795988Y-138516937D01*
X56590557Y-138367684D01*
X56590556Y-138367683D01*
X56590554Y-138367682D01*
X56472660Y-138307612D01*
X56364296Y-138252397D01*
X56122782Y-138173923D01*
X55871974Y-138134200D01*
X55871969Y-138134200D01*
X55618031Y-138134200D01*
X55618026Y-138134200D01*
X55367217Y-138173923D01*
X55125703Y-138252397D01*
X54899442Y-138367684D01*
X54694011Y-138516937D01*
X54694006Y-138516941D01*
X54562681Y-138648267D01*
X54501358Y-138681752D01*
X54431666Y-138676768D01*
X54387319Y-138648267D01*
X54255993Y-138516941D01*
X54255988Y-138516937D01*
X54050557Y-138367684D01*
X54050556Y-138367683D01*
X54050554Y-138367682D01*
X53932660Y-138307612D01*
X53824296Y-138252397D01*
X53582782Y-138173923D01*
X53331974Y-138134200D01*
X53331969Y-138134200D01*
X53078031Y-138134200D01*
X53078026Y-138134200D01*
X52827217Y-138173923D01*
X52585703Y-138252397D01*
X52359442Y-138367684D01*
X52154011Y-138516937D01*
X52154006Y-138516941D01*
X52022681Y-138648267D01*
X51961358Y-138681752D01*
X51891666Y-138676768D01*
X51847319Y-138648267D01*
X51715993Y-138516941D01*
X51715988Y-138516937D01*
X51510557Y-138367684D01*
X51510556Y-138367683D01*
X51510554Y-138367682D01*
X51392660Y-138307612D01*
X51284296Y-138252397D01*
X51042782Y-138173923D01*
X50791974Y-138134200D01*
X50791969Y-138134200D01*
X50538031Y-138134200D01*
X50538026Y-138134200D01*
X50287217Y-138173923D01*
X50045703Y-138252397D01*
X49819442Y-138367684D01*
X49614011Y-138516937D01*
X49614006Y-138516941D01*
X49434441Y-138696506D01*
X49434437Y-138696511D01*
X49285184Y-138901942D01*
X49169897Y-139128203D01*
X49091423Y-139369717D01*
X49051700Y-139620525D01*
X49051700Y-140874474D01*
X49091423Y-141125282D01*
X49169897Y-141366796D01*
X49285184Y-141593057D01*
X49434437Y-141798488D01*
X49434441Y-141798493D01*
X49614006Y-141978058D01*
X49614011Y-141978062D01*
X49758367Y-142082942D01*
X49819446Y-142127318D01*
X49963620Y-142200778D01*
X50045703Y-142242602D01*
X50045705Y-142242602D01*
X50045708Y-142242604D01*
X50160896Y-142280031D01*
X50252418Y-142309769D01*
X50310093Y-142349207D01*
X50337291Y-142413566D01*
X50325376Y-142482412D01*
X50278132Y-142533888D01*
X50214099Y-142551700D01*
X47970474Y-142551700D01*
X47903435Y-142532015D01*
X47857680Y-142479211D01*
X47847736Y-142410053D01*
X47876761Y-142346497D01*
X47882793Y-142340019D01*
X47937918Y-142284894D01*
X48014773Y-142208039D01*
X48155448Y-142014416D01*
X48264103Y-141801170D01*
X48338061Y-141573551D01*
X48358953Y-141441635D01*
X48375500Y-141337171D01*
X48375500Y-141097828D01*
X48355644Y-140972470D01*
X48338061Y-140861449D01*
X48264103Y-140633830D01*
X48264101Y-140633827D01*
X48264101Y-140633825D01*
X48169162Y-140447500D01*
X48155448Y-140420584D01*
X48137476Y-140395847D01*
X48014778Y-140226967D01*
X48014774Y-140226962D01*
X47845537Y-140057725D01*
X47845532Y-140057721D01*
X47651919Y-139917054D01*
X47651918Y-139917053D01*
X47651916Y-139917052D01*
X47544794Y-139862470D01*
X47438674Y-139808398D01*
X47211051Y-139734439D01*
X46974671Y-139697000D01*
X46974666Y-139697000D01*
X46735334Y-139697000D01*
X46735329Y-139697000D01*
X46498948Y-139734439D01*
X46271325Y-139808398D01*
X46058080Y-139917054D01*
X45864467Y-140057721D01*
X45864462Y-140057725D01*
X45695225Y-140226962D01*
X45672618Y-140258079D01*
X45617288Y-140300744D01*
X45547674Y-140306723D01*
X45485879Y-140274117D01*
X45451522Y-140213278D01*
X45448300Y-140185193D01*
X45448300Y-135151267D01*
X45467985Y-135084228D01*
X45484614Y-135063591D01*
X47474819Y-133073385D01*
X47536142Y-133039901D01*
X47605834Y-133044885D01*
X47661767Y-133086757D01*
X47686184Y-133152221D01*
X47686500Y-133161067D01*
X47686500Y-133360961D01*
X47725910Y-133609785D01*
X47803760Y-133849383D01*
X47918132Y-134073848D01*
X48066201Y-134277649D01*
X48066205Y-134277654D01*
X48244345Y-134455794D01*
X48244350Y-134455798D01*
X48288973Y-134488218D01*
X48448155Y-134603870D01*
X48591184Y-134676747D01*
X48672616Y-134718239D01*
X48672618Y-134718239D01*
X48672621Y-134718241D01*
X48912215Y-134796090D01*
X49161038Y-134835500D01*
X49161039Y-134835500D01*
X49412961Y-134835500D01*
X49412962Y-134835500D01*
X49661785Y-134796090D01*
X49901379Y-134718241D01*
X50125845Y-134603870D01*
X50329656Y-134455793D01*
X50507793Y-134277656D01*
X50655870Y-134073845D01*
X50770241Y-133849379D01*
X50848090Y-133609785D01*
X50887500Y-133360962D01*
X50887500Y-133109038D01*
X50848090Y-132860215D01*
X50770241Y-132620621D01*
X50770239Y-132620618D01*
X50770239Y-132620616D01*
X50695168Y-132473282D01*
X50655870Y-132396155D01*
X50614578Y-132339321D01*
X50542325Y-132239872D01*
X50507798Y-132192350D01*
X50507794Y-132192345D01*
X50329654Y-132014205D01*
X50329649Y-132014201D01*
X50125848Y-131866132D01*
X50125847Y-131866131D01*
X50125845Y-131866130D01*
X50055747Y-131830413D01*
X49901383Y-131751760D01*
X49712016Y-131690231D01*
X49654341Y-131650793D01*
X49627143Y-131586434D01*
X49639058Y-131517588D01*
X49686302Y-131466112D01*
X49750335Y-131448300D01*
X55842700Y-131448300D01*
X55909739Y-131467985D01*
X55955494Y-131520789D01*
X55966700Y-131572300D01*
X55966700Y-132383704D01*
X55963833Y-132395994D01*
X55964856Y-132405008D01*
X55956112Y-132429101D01*
X55953906Y-132438561D01*
X55952116Y-132442188D01*
X55920031Y-132497763D01*
X55895563Y-132556832D01*
X55893756Y-132560497D01*
X55887944Y-132566812D01*
X55870231Y-132593321D01*
X55357962Y-133105590D01*
X55340925Y-133042007D01*
X55275099Y-132927993D01*
X55182007Y-132834901D01*
X55067993Y-132769075D01*
X55004409Y-132752037D01*
X55636716Y-132119728D01*
X55582550Y-132080375D01*
X55393217Y-131983904D01*
X55191129Y-131918242D01*
X54981246Y-131885000D01*
X54768754Y-131885000D01*
X54558872Y-131918242D01*
X54558869Y-131918242D01*
X54356782Y-131983904D01*
X54167439Y-132080380D01*
X54113282Y-132119727D01*
X54113282Y-132119728D01*
X54745591Y-132752037D01*
X54682007Y-132769075D01*
X54567993Y-132834901D01*
X54474901Y-132927993D01*
X54409075Y-133042007D01*
X54392037Y-133105591D01*
X53759728Y-132473282D01*
X53759727Y-132473282D01*
X53720380Y-132527439D01*
X53623904Y-132716782D01*
X53558242Y-132918869D01*
X53558242Y-132918872D01*
X53525000Y-133128753D01*
X53525000Y-133341246D01*
X53558242Y-133551127D01*
X53558242Y-133551130D01*
X53623904Y-133753217D01*
X53720375Y-133942550D01*
X53759728Y-133996716D01*
X54392037Y-133364408D01*
X54409075Y-133427993D01*
X54474901Y-133542007D01*
X54567993Y-133635099D01*
X54682007Y-133700925D01*
X54745590Y-133717962D01*
X54113282Y-134350269D01*
X54113282Y-134350270D01*
X54167449Y-134389624D01*
X54356782Y-134486095D01*
X54558870Y-134551757D01*
X54768754Y-134585000D01*
X54981246Y-134585000D01*
X55191127Y-134551757D01*
X55191130Y-134551757D01*
X55393217Y-134486095D01*
X55582554Y-134389622D01*
X55636716Y-134350270D01*
X55636717Y-134350270D01*
X55004408Y-133717962D01*
X55067993Y-133700925D01*
X55182007Y-133635099D01*
X55275099Y-133542007D01*
X55340925Y-133427993D01*
X55357962Y-133364408D01*
X55870232Y-133876678D01*
X55897111Y-133916905D01*
X55907734Y-133942550D01*
X55920031Y-133972237D01*
X55920033Y-133972240D01*
X55920036Y-133972247D01*
X56029048Y-134161063D01*
X56161782Y-134334043D01*
X56161790Y-134334052D01*
X56315948Y-134488210D01*
X56315956Y-134488217D01*
X56488936Y-134620951D01*
X56677759Y-134729967D01*
X56677774Y-134729974D01*
X56764583Y-134765931D01*
X56879203Y-134813408D01*
X57089810Y-134869841D01*
X57251939Y-134891185D01*
X57305981Y-134898300D01*
X57305982Y-134898300D01*
X57524019Y-134898300D01*
X57567252Y-134892608D01*
X57740190Y-134869841D01*
X57950797Y-134813408D01*
X58152237Y-134729969D01*
X58341063Y-134620951D01*
X58514043Y-134488218D01*
X58514047Y-134488213D01*
X58514052Y-134488210D01*
X58597319Y-134404943D01*
X58658642Y-134371458D01*
X58728334Y-134376442D01*
X58772681Y-134404943D01*
X58855948Y-134488210D01*
X58855956Y-134488217D01*
X59028936Y-134620951D01*
X59217759Y-134729967D01*
X59217774Y-134729974D01*
X59304583Y-134765931D01*
X59419203Y-134813408D01*
X59629810Y-134869841D01*
X59791939Y-134891185D01*
X59845981Y-134898300D01*
X59845982Y-134898300D01*
X60064019Y-134898300D01*
X60107252Y-134892608D01*
X60280190Y-134869841D01*
X60490797Y-134813408D01*
X60692237Y-134729969D01*
X60881063Y-134620951D01*
X61054043Y-134488218D01*
X61054047Y-134488213D01*
X61054052Y-134488210D01*
X61137319Y-134404943D01*
X61198642Y-134371458D01*
X61268334Y-134376442D01*
X61312681Y-134404943D01*
X61395948Y-134488210D01*
X61395956Y-134488217D01*
X61568936Y-134620951D01*
X61757759Y-134729967D01*
X61757774Y-134729974D01*
X61844583Y-134765931D01*
X61959203Y-134813408D01*
X62169810Y-134869841D01*
X62331939Y-134891185D01*
X62385981Y-134898300D01*
X62385982Y-134898300D01*
X62604019Y-134898300D01*
X62647252Y-134892608D01*
X62820190Y-134869841D01*
X63030797Y-134813408D01*
X63232237Y-134729969D01*
X63421063Y-134620951D01*
X63594043Y-134488218D01*
X63594047Y-134488213D01*
X63594052Y-134488210D01*
X63677319Y-134404943D01*
X63738642Y-134371458D01*
X63808334Y-134376442D01*
X63852681Y-134404943D01*
X63935948Y-134488210D01*
X63935956Y-134488217D01*
X64108936Y-134620951D01*
X64297759Y-134729967D01*
X64297774Y-134729974D01*
X64384583Y-134765931D01*
X64499203Y-134813408D01*
X64709810Y-134869841D01*
X64871939Y-134891185D01*
X64925981Y-134898300D01*
X64925982Y-134898300D01*
X65144019Y-134898300D01*
X65187252Y-134892608D01*
X65360190Y-134869841D01*
X65570797Y-134813408D01*
X65772237Y-134729969D01*
X65961063Y-134620951D01*
X66134043Y-134488218D01*
X66134047Y-134488213D01*
X66134052Y-134488210D01*
X66217319Y-134404943D01*
X66278642Y-134371458D01*
X66348334Y-134376442D01*
X66392681Y-134404943D01*
X66475948Y-134488210D01*
X66475956Y-134488217D01*
X66648936Y-134620951D01*
X66837759Y-134729967D01*
X66837774Y-134729974D01*
X66924583Y-134765931D01*
X67039203Y-134813408D01*
X67249810Y-134869841D01*
X67411939Y-134891185D01*
X67465981Y-134898300D01*
X67465982Y-134898300D01*
X67684019Y-134898300D01*
X67727252Y-134892608D01*
X67900190Y-134869841D01*
X68110797Y-134813408D01*
X68312237Y-134729969D01*
X68501063Y-134620951D01*
X68674043Y-134488218D01*
X68674047Y-134488213D01*
X68674052Y-134488210D01*
X68757319Y-134404943D01*
X68818642Y-134371458D01*
X68888334Y-134376442D01*
X68932681Y-134404943D01*
X69015948Y-134488210D01*
X69015956Y-134488217D01*
X69188936Y-134620951D01*
X69377759Y-134729967D01*
X69377774Y-134729974D01*
X69464583Y-134765931D01*
X69579203Y-134813408D01*
X69789810Y-134869841D01*
X69951939Y-134891185D01*
X70005981Y-134898300D01*
X70005982Y-134898300D01*
X70224019Y-134898300D01*
X70267252Y-134892608D01*
X70440190Y-134869841D01*
X70650797Y-134813408D01*
X70852237Y-134729969D01*
X71041063Y-134620951D01*
X71041069Y-134620945D01*
X71044438Y-134618696D01*
X71045259Y-134619924D01*
X71104664Y-134596957D01*
X71173110Y-134610994D01*
X71202666Y-134632846D01*
X71294707Y-134724887D01*
X71449890Y-134822394D01*
X71622879Y-134882926D01*
X71622882Y-134882926D01*
X71622884Y-134882927D01*
X71714828Y-134893286D01*
X71759322Y-134898299D01*
X71759325Y-134898300D01*
X71759328Y-134898300D01*
X73550675Y-134898300D01*
X73550676Y-134898299D01*
X73618896Y-134890613D01*
X73687115Y-134882927D01*
X73687116Y-134882926D01*
X73687121Y-134882926D01*
X73860110Y-134822394D01*
X74015293Y-134724887D01*
X74144887Y-134595293D01*
X74242394Y-134440110D01*
X74302926Y-134267121D01*
X74318300Y-134130672D01*
X74318300Y-133109038D01*
X76642500Y-133109038D01*
X76642500Y-133360961D01*
X76681910Y-133609785D01*
X76759760Y-133849383D01*
X76874132Y-134073848D01*
X77022201Y-134277649D01*
X77022205Y-134277654D01*
X77200345Y-134455794D01*
X77200350Y-134455798D01*
X77244973Y-134488218D01*
X77404155Y-134603870D01*
X77547184Y-134676747D01*
X77628616Y-134718239D01*
X77628618Y-134718239D01*
X77628621Y-134718241D01*
X77868215Y-134796090D01*
X78117038Y-134835500D01*
X78117039Y-134835500D01*
X78368961Y-134835500D01*
X78368962Y-134835500D01*
X78617785Y-134796090D01*
X78857379Y-134718241D01*
X79081845Y-134603870D01*
X79285656Y-134455793D01*
X79463793Y-134277656D01*
X79611870Y-134073845D01*
X79726241Y-133849379D01*
X79804090Y-133609785D01*
X79843500Y-133360962D01*
X79843500Y-133109038D01*
X79804090Y-132860215D01*
X79726241Y-132620621D01*
X79726239Y-132620618D01*
X79726239Y-132620616D01*
X79651168Y-132473282D01*
X79611870Y-132396155D01*
X79577968Y-132349493D01*
X86844795Y-132349493D01*
X91251816Y-132349493D01*
X91251816Y-129560145D01*
X86844795Y-129560145D01*
X86844795Y-132349493D01*
X79577968Y-132349493D01*
X79471451Y-132202884D01*
X79463798Y-132192350D01*
X79463794Y-132192345D01*
X79285654Y-132014205D01*
X79285649Y-132014201D01*
X79081848Y-131866132D01*
X79081847Y-131866131D01*
X79081845Y-131866130D01*
X79011747Y-131830413D01*
X78857383Y-131751760D01*
X78617785Y-131673910D01*
X78508444Y-131656592D01*
X78368962Y-131634500D01*
X78117038Y-131634500D01*
X78034297Y-131647605D01*
X77868214Y-131673910D01*
X77628616Y-131751760D01*
X77404151Y-131866132D01*
X77200350Y-132014201D01*
X77200345Y-132014205D01*
X77022205Y-132192345D01*
X77022201Y-132192350D01*
X76874132Y-132396151D01*
X76759760Y-132620616D01*
X76681910Y-132860214D01*
X76642500Y-133109038D01*
X74318300Y-133109038D01*
X74318300Y-132339328D01*
X74302926Y-132202879D01*
X74242394Y-132029890D01*
X74144887Y-131874707D01*
X74015293Y-131745113D01*
X73860110Y-131647606D01*
X73860109Y-131647605D01*
X73860108Y-131647605D01*
X73860106Y-131647604D01*
X73687115Y-131587072D01*
X73550678Y-131571700D01*
X73550672Y-131571700D01*
X72560610Y-131571700D01*
X72493571Y-131552015D01*
X72472929Y-131535381D01*
X70534013Y-129596464D01*
X67319496Y-126381947D01*
X83665000Y-126381947D01*
X83665000Y-126618052D01*
X83701934Y-126851247D01*
X83774897Y-127075802D01*
X83882087Y-127286174D01*
X83942338Y-127369104D01*
X83942340Y-127369105D01*
X84682037Y-126629408D01*
X84699075Y-126692993D01*
X84764901Y-126807007D01*
X84857993Y-126900099D01*
X84972007Y-126965925D01*
X85035590Y-126982962D01*
X84295893Y-127722658D01*
X84378828Y-127782914D01*
X84589197Y-127890102D01*
X84813752Y-127963065D01*
X84813751Y-127963065D01*
X85046948Y-128000000D01*
X85283052Y-128000000D01*
X85516247Y-127963065D01*
X85740802Y-127890102D01*
X85951163Y-127782918D01*
X85951169Y-127782914D01*
X86034104Y-127722658D01*
X86034105Y-127722658D01*
X85294408Y-126982962D01*
X85357993Y-126965925D01*
X85472007Y-126900099D01*
X85565099Y-126807007D01*
X85630925Y-126692993D01*
X85647962Y-126629409D01*
X86387658Y-127369105D01*
X86387658Y-127369104D01*
X86447914Y-127286169D01*
X86447918Y-127286163D01*
X86555102Y-127075802D01*
X86628065Y-126851247D01*
X86665000Y-126618052D01*
X86665000Y-126381947D01*
X86628065Y-126148752D01*
X86555102Y-125924197D01*
X86447914Y-125713828D01*
X86387658Y-125630894D01*
X86387658Y-125630893D01*
X85647962Y-126370590D01*
X85630925Y-126307007D01*
X85565099Y-126192993D01*
X85472007Y-126099901D01*
X85357993Y-126034075D01*
X85294409Y-126017037D01*
X86034105Y-125277340D01*
X86034104Y-125277338D01*
X85951174Y-125217087D01*
X85740802Y-125109897D01*
X85516247Y-125036934D01*
X85516248Y-125036934D01*
X85283052Y-125000000D01*
X85046948Y-125000000D01*
X84813752Y-125036934D01*
X84589197Y-125109897D01*
X84378830Y-125217084D01*
X84295894Y-125277340D01*
X85035591Y-126017037D01*
X84972007Y-126034075D01*
X84857993Y-126099901D01*
X84764901Y-126192993D01*
X84699075Y-126307007D01*
X84682037Y-126370591D01*
X83942340Y-125630894D01*
X83882084Y-125713830D01*
X83774897Y-125924197D01*
X83701934Y-126148752D01*
X83665000Y-126381947D01*
X67319496Y-126381947D01*
X62647983Y-121710434D01*
X62564737Y-121654811D01*
X62481493Y-121599190D01*
X62296502Y-121522564D01*
X62296496Y-121522562D01*
X62100118Y-121483500D01*
X62100116Y-121483500D01*
X43600116Y-121483500D01*
X43399884Y-121483500D01*
X43399882Y-121483500D01*
X43203503Y-121522562D01*
X43203497Y-121522564D01*
X43018508Y-121599189D01*
X42852016Y-121710434D01*
X42852015Y-121710435D01*
X38728181Y-125834270D01*
X38666858Y-125867755D01*
X38597166Y-125862771D01*
X38541233Y-125820899D01*
X38516816Y-125755435D01*
X38516500Y-125746589D01*
X38516500Y-124472410D01*
X38536185Y-124405371D01*
X38552819Y-124384729D01*
X41789563Y-121147985D01*
X41789566Y-121147982D01*
X41900810Y-120981493D01*
X41977436Y-120796502D01*
X42016500Y-120600116D01*
X42016500Y-117626414D01*
X42036185Y-117559375D01*
X42052819Y-117538733D01*
X42230557Y-117360995D01*
X42239290Y-117348975D01*
X61630510Y-117348975D01*
X65417965Y-117348975D01*
X65417965Y-114560663D01*
X61630510Y-114560663D01*
X61630510Y-117348975D01*
X42239290Y-117348975D01*
X42379818Y-117155554D01*
X42495104Y-116929292D01*
X42573576Y-116687782D01*
X42613300Y-116436974D01*
X42613300Y-116183025D01*
X42573576Y-115932217D01*
X42495102Y-115690703D01*
X42453278Y-115608620D01*
X42379818Y-115464446D01*
X42360748Y-115438199D01*
X42230562Y-115259011D01*
X42230558Y-115259006D01*
X42050993Y-115079441D01*
X42050988Y-115079437D01*
X41845557Y-114930184D01*
X41845556Y-114930183D01*
X41845554Y-114930182D01*
X41774895Y-114894179D01*
X41619296Y-114814897D01*
X41377782Y-114736423D01*
X41126974Y-114696700D01*
X41126969Y-114696700D01*
X40873031Y-114696700D01*
X40873026Y-114696700D01*
X40622217Y-114736423D01*
X40380703Y-114814897D01*
X40154442Y-114930184D01*
X39949011Y-115079437D01*
X39949006Y-115079441D01*
X39769441Y-115259006D01*
X39769437Y-115259011D01*
X39620184Y-115464442D01*
X39504897Y-115690703D01*
X39426423Y-115932217D01*
X39386700Y-116183025D01*
X39386700Y-116436974D01*
X39426423Y-116687782D01*
X39504897Y-116929296D01*
X39620184Y-117155557D01*
X39769437Y-117360988D01*
X39769441Y-117360993D01*
X39947181Y-117538733D01*
X39980666Y-117600056D01*
X39983500Y-117626414D01*
X39983500Y-120027590D01*
X39963815Y-120094629D01*
X39947181Y-120115271D01*
X37728181Y-122334271D01*
X37666858Y-122367756D01*
X37597166Y-122362772D01*
X37541233Y-122320900D01*
X37516816Y-122255436D01*
X37516500Y-122246590D01*
X37516500Y-114349495D01*
X45416224Y-114349495D01*
X49632251Y-114349495D01*
X49632251Y-111560663D01*
X45416224Y-111560663D01*
X45416224Y-114349495D01*
X37516500Y-114349495D01*
X37516500Y-109472410D01*
X37536185Y-109405371D01*
X37552819Y-109384729D01*
X39384729Y-107552819D01*
X39411656Y-107538115D01*
X39437475Y-107521523D01*
X39443675Y-107520631D01*
X39446052Y-107519334D01*
X39472410Y-107516500D01*
X39615084Y-107516500D01*
X39682123Y-107536185D01*
X39727878Y-107588989D01*
X39737822Y-107658147D01*
X39715402Y-107713385D01*
X39620184Y-107844442D01*
X39504897Y-108070703D01*
X39426423Y-108312217D01*
X39386700Y-108563025D01*
X39386700Y-108816974D01*
X39426423Y-109067782D01*
X39504897Y-109309296D01*
X39620184Y-109535557D01*
X39769437Y-109740988D01*
X39769441Y-109740993D01*
X39949006Y-109920558D01*
X39949011Y-109920562D01*
X40128199Y-110050748D01*
X40154446Y-110069818D01*
X40298620Y-110143278D01*
X40380703Y-110185102D01*
X40380705Y-110185102D01*
X40380708Y-110185104D01*
X40510161Y-110227166D01*
X40622217Y-110263576D01*
X40873026Y-110303300D01*
X40873031Y-110303300D01*
X41126974Y-110303300D01*
X41377782Y-110263576D01*
X41619292Y-110185104D01*
X41845554Y-110069818D01*
X42050995Y-109920557D01*
X42228733Y-109742819D01*
X42290056Y-109709334D01*
X42316414Y-109706500D01*
X58910118Y-109706500D01*
X59042238Y-109680218D01*
X59106502Y-109667436D01*
X59291493Y-109590810D01*
X59457981Y-109479567D01*
X61884729Y-107052819D01*
X61946052Y-107019334D01*
X61972410Y-107016500D01*
X79600118Y-107016500D01*
X79732238Y-106990218D01*
X79796502Y-106977436D01*
X79981493Y-106900810D01*
X80147981Y-106789567D01*
X81789567Y-105147982D01*
X81900810Y-104981493D01*
X81977436Y-104796502D01*
X82001715Y-104674446D01*
X82016500Y-104600119D01*
X82016500Y-102972410D01*
X82036185Y-102905371D01*
X82052819Y-102884729D01*
X82384729Y-102552819D01*
X82446052Y-102519334D01*
X82472410Y-102516500D01*
X84027590Y-102516500D01*
X84094629Y-102536185D01*
X84115271Y-102552819D01*
X84450771Y-102888319D01*
X84484256Y-102949642D01*
X84479272Y-103019334D01*
X84437400Y-103075267D01*
X84371936Y-103099684D01*
X84363090Y-103100000D01*
X83975000Y-103100000D01*
X83975000Y-104124722D01*
X83898694Y-104080667D01*
X83784244Y-104050000D01*
X83665756Y-104050000D01*
X83551306Y-104080667D01*
X83475000Y-104124722D01*
X83475000Y-103100000D01*
X82777155Y-103100000D01*
X82717627Y-103106401D01*
X82717620Y-103106403D01*
X82582913Y-103156645D01*
X82582906Y-103156649D01*
X82467812Y-103242809D01*
X82467809Y-103242812D01*
X82381649Y-103357906D01*
X82381645Y-103357913D01*
X82331403Y-103492620D01*
X82331401Y-103492627D01*
X82325000Y-103552155D01*
X82325000Y-104250000D01*
X83349722Y-104250000D01*
X83305667Y-104326306D01*
X83275000Y-104440756D01*
X83275000Y-104559244D01*
X83305667Y-104673694D01*
X83349722Y-104750000D01*
X82325000Y-104750000D01*
X82325000Y-105447844D01*
X82331401Y-105507372D01*
X82331403Y-105507379D01*
X82381645Y-105642086D01*
X82381649Y-105642093D01*
X82467809Y-105757187D01*
X82467812Y-105757190D01*
X82582906Y-105843350D01*
X82582913Y-105843354D01*
X82717620Y-105893596D01*
X82717627Y-105893598D01*
X82777155Y-105899999D01*
X82777172Y-105900000D01*
X83475000Y-105900000D01*
X83475000Y-104875277D01*
X83551306Y-104919333D01*
X83665756Y-104950000D01*
X83784244Y-104950000D01*
X83898694Y-104919333D01*
X83975000Y-104875277D01*
X83975000Y-105900000D01*
X84672828Y-105900000D01*
X84672844Y-105899999D01*
X84732372Y-105893598D01*
X84732379Y-105893596D01*
X84867086Y-105843354D01*
X84867088Y-105843353D01*
X84963100Y-105771479D01*
X85028564Y-105747062D01*
X85096837Y-105761913D01*
X85125092Y-105783065D01*
X85132913Y-105790886D01*
X85132919Y-105790891D01*
X85311099Y-105927613D01*
X85311106Y-105927617D01*
X85505593Y-106039905D01*
X85505598Y-106039907D01*
X85505601Y-106039909D01*
X85713096Y-106125856D01*
X85930035Y-106183985D01*
X86152704Y-106213300D01*
X86152711Y-106213300D01*
X86377289Y-106213300D01*
X86377296Y-106213300D01*
X86599965Y-106183985D01*
X86816904Y-106125856D01*
X87024399Y-106039909D01*
X87218901Y-105927613D01*
X87397081Y-105790891D01*
X87555891Y-105632081D01*
X87692613Y-105453901D01*
X87804909Y-105259399D01*
X87890856Y-105051904D01*
X87948985Y-104834965D01*
X87978300Y-104612296D01*
X87978300Y-104387704D01*
X87948985Y-104165035D01*
X87890856Y-103948096D01*
X87804909Y-103740601D01*
X87804907Y-103740598D01*
X87804905Y-103740593D01*
X87692617Y-103546106D01*
X87692613Y-103546099D01*
X87632113Y-103467254D01*
X87555892Y-103367920D01*
X87555886Y-103367913D01*
X87552819Y-103364846D01*
X87519334Y-103303523D01*
X87516500Y-103277165D01*
X87516500Y-102753410D01*
X87536185Y-102686371D01*
X87588989Y-102640616D01*
X87658147Y-102630672D01*
X87721703Y-102659697D01*
X87728181Y-102665729D01*
X88447181Y-103384729D01*
X88480666Y-103446052D01*
X88483500Y-103472410D01*
X88483500Y-123134884D01*
X88483500Y-123335116D01*
X88483500Y-123335118D01*
X88483499Y-123335118D01*
X88522562Y-123531496D01*
X88522564Y-123531502D01*
X88599189Y-123716491D01*
X88710434Y-123882983D01*
X88710435Y-123882984D01*
X90915381Y-126087929D01*
X90948866Y-126149252D01*
X90951700Y-126175610D01*
X90951700Y-127545678D01*
X90967072Y-127682115D01*
X91027604Y-127855106D01*
X91027605Y-127855108D01*
X91027606Y-127855110D01*
X91125113Y-128010293D01*
X91254707Y-128139887D01*
X91409890Y-128237394D01*
X91582879Y-128297926D01*
X91582882Y-128297926D01*
X91582884Y-128297927D01*
X91674828Y-128308286D01*
X91719322Y-128313299D01*
X91719325Y-128313300D01*
X91719328Y-128313300D01*
X93810675Y-128313300D01*
X93810676Y-128313299D01*
X93878896Y-128305613D01*
X93947115Y-128297927D01*
X93947116Y-128297926D01*
X93947121Y-128297926D01*
X94120110Y-128237394D01*
X94275293Y-128139887D01*
X94404887Y-128010293D01*
X94502394Y-127855110D01*
X94562926Y-127682121D01*
X94578300Y-127545672D01*
X94578300Y-125454328D01*
X94562926Y-125317879D01*
X94502394Y-125144890D01*
X94404887Y-124989707D01*
X94275293Y-124860113D01*
X94120110Y-124762606D01*
X94120109Y-124762605D01*
X94120108Y-124762605D01*
X94120106Y-124762604D01*
X93947115Y-124702072D01*
X93810678Y-124686700D01*
X93810672Y-124686700D01*
X92440611Y-124686700D01*
X92373572Y-124667015D01*
X92352930Y-124650381D01*
X90552819Y-122850270D01*
X90519334Y-122788947D01*
X90516500Y-122762589D01*
X90516500Y-106512347D01*
X92060663Y-106512347D01*
X94848975Y-106512347D01*
X94848975Y-102438708D01*
X92060663Y-102438708D01*
X92060663Y-106512347D01*
X90516500Y-106512347D01*
X90516500Y-102899881D01*
X90477437Y-102703503D01*
X90477436Y-102703502D01*
X90477436Y-102703498D01*
X90400810Y-102518507D01*
X90359201Y-102456235D01*
X90359201Y-102456233D01*
X90289570Y-102352023D01*
X90289568Y-102352020D01*
X90225307Y-102287759D01*
X90147981Y-102210433D01*
X89454048Y-101516500D01*
X87647984Y-99710435D01*
X87647983Y-99710434D01*
X87564737Y-99654811D01*
X87481493Y-99599190D01*
X87296502Y-99522564D01*
X87296496Y-99522562D01*
X87100118Y-99483500D01*
X87100116Y-99483500D01*
X78100117Y-99483500D01*
X77899884Y-99483500D01*
X77899882Y-99483500D01*
X77703503Y-99522562D01*
X77703497Y-99522564D01*
X77518508Y-99599189D01*
X77352016Y-99710434D01*
X77352015Y-99710435D01*
X74615271Y-102447181D01*
X74553948Y-102480666D01*
X74527590Y-102483500D01*
X61899882Y-102483500D01*
X61703503Y-102522562D01*
X61703497Y-102522564D01*
X61518508Y-102599189D01*
X61352016Y-102710434D01*
X61352015Y-102710435D01*
X58615271Y-105447181D01*
X58553948Y-105480666D01*
X58527590Y-105483500D01*
X49967931Y-105483500D01*
X49900892Y-105463815D01*
X49855137Y-105411011D01*
X49845193Y-105341853D01*
X49874218Y-105278297D01*
X49911636Y-105249015D01*
X49936833Y-105236175D01*
X50125845Y-105139870D01*
X50329656Y-104991793D01*
X50507793Y-104813656D01*
X50655870Y-104609845D01*
X50770241Y-104385379D01*
X50848090Y-104145785D01*
X50887500Y-103896962D01*
X50887500Y-103645038D01*
X50848090Y-103396215D01*
X50770241Y-103156621D01*
X50770239Y-103156618D01*
X50770239Y-103156616D01*
X50703262Y-103025167D01*
X50655870Y-102932155D01*
X50620579Y-102883581D01*
X50507798Y-102728350D01*
X50507794Y-102728345D01*
X50329654Y-102550205D01*
X50329649Y-102550201D01*
X50125848Y-102402132D01*
X50125847Y-102402131D01*
X50125845Y-102402130D01*
X50055747Y-102366413D01*
X49901383Y-102287760D01*
X49661785Y-102209910D01*
X49621333Y-102203503D01*
X49412962Y-102170500D01*
X49161038Y-102170500D01*
X49036626Y-102190205D01*
X48912214Y-102209910D01*
X48672616Y-102287760D01*
X48448151Y-102402132D01*
X48244350Y-102550201D01*
X48244345Y-102550205D01*
X48066205Y-102728345D01*
X48066201Y-102728350D01*
X47918132Y-102932151D01*
X47803760Y-103156616D01*
X47725910Y-103396214D01*
X47686500Y-103645038D01*
X47686500Y-103896961D01*
X47725910Y-104145785D01*
X47803760Y-104385383D01*
X47870568Y-104516500D01*
X47913174Y-104600119D01*
X47918132Y-104609848D01*
X48066201Y-104813649D01*
X48066205Y-104813654D01*
X48244345Y-104991794D01*
X48244350Y-104991798D01*
X48327085Y-105051908D01*
X48448155Y-105139870D01*
X48626079Y-105230526D01*
X48662364Y-105249015D01*
X48713160Y-105296990D01*
X48729955Y-105364811D01*
X48707418Y-105430946D01*
X48652702Y-105474397D01*
X48606069Y-105483500D01*
X38899882Y-105483500D01*
X38703503Y-105522562D01*
X38703497Y-105522564D01*
X38518508Y-105599189D01*
X38352016Y-105710434D01*
X38352015Y-105710435D01*
X36473463Y-107588989D01*
X35852019Y-108210433D01*
X35781226Y-108281226D01*
X35710433Y-108352018D01*
X35599189Y-108518508D01*
X35522564Y-108703497D01*
X35522562Y-108703503D01*
X35483500Y-108899881D01*
X35483500Y-108899884D01*
X35483500Y-153899884D01*
X35483500Y-154100116D01*
X35483500Y-154100118D01*
X35483499Y-154100118D01*
X34585577Y-154100118D01*
X34995860Y-99115715D01*
X35016045Y-99048826D01*
X35069189Y-99003466D01*
X35119869Y-98992642D01*
X95870837Y-99000419D01*
G37*
%TD.AperFunction*%
%TD*%
M02*
