<?xml version="1.0" encoding="utf-8"?>
<!-- Generator: Adobe Illustrator 27.5.0, SVG Export Plug-In . SVG Version: 6.00 Build 0)  -->
<svg version="1.1" id="Layer_1" xmlns="http://www.w3.org/2000/svg" xmlns:xlink="http://www.w3.org/1999/xlink" x="0px" y="0px"
	 viewBox="0 0 595.3 841.9" style="enable-background:new 0 0 595.3 841.9;" xml:space="preserve">
<style type="text/css">
	.st0{fill:none;stroke:#ED2024;stroke-width:1.000000e-03;stroke-miterlimit:10;}
	.st1{fill:none;stroke:#000000;stroke-miterlimit:10;}
	.st2{fill:none;stroke:#000000;stroke-width:7.300000e-02;stroke-miterlimit:10;}
	.st3{fill:#FFFFFF;stroke:#000000;stroke-width:7.000000e-02;stroke-miterlimit:10;}
</style>
<path class="st0" d="M140.8,80.2c41.2,6.8,72.7,42.7,72.7,85.8c0,48.1-38.9,87-87,87s-87-38.9-87-87c0-43.2,31.5-79,72.7-85.8"/>
<path class="st1" d="M140.8,80.2"/>
<path class="st1" d="M126.5,79"/>
<line class="st2" x1="126.5" y1="253" x2="126.5" y2="79"/>
<path class="st3" d="M216.4,167.9"/>
<line class="st2" x1="39.5" y1="166" x2="126.5" y2="166"/>
<circle class="st2" cx="126.5" cy="166" r="70.9"/>
<line class="st2" x1="126.5" y1="166" x2="213.5" y2="166"/>
<path class="st3" d="M111.9,80.6"/>
<polyline class="st0" points="112.2,80.2 126.4,65.7 140.8,80.2 "/>
<path class="st0" d="M326.3,80.2C367.5,87,399,122.8,399,166c0,48.1-38.9,87-87,87s-87-38.9-87-87c0-43.2,31.5-79,72.7-85.8"/>
<path class="st1" d="M326.3,80.2"/>
<path class="st1" d="M312,79"/>
<line class="st2" x1="312" y1="253" x2="312" y2="79"/>
<line class="st2" x1="225" y1="166" x2="312" y2="166"/>
<circle class="st2" cx="312" cy="166" r="70.9"/>
<line class="st2" x1="312" y1="166" x2="399" y2="166"/>
<path class="st3" d="M297.3,80.6"/>
<polyline class="st0" points="297.7,80.2 311.9,65.7 326.3,80.2 "/>
</svg>
