%TF.GenerationSoftware,KiCad,Pcbnew,9.0.6*%
%TF.CreationDate,2025-11-20T18:43:09-08:00*%
%TF.ProjectId,pcb_test_backplate,7063625f-7465-4737-945f-6261636b706c,rev?*%
%TF.SameCoordinates,Original*%
%TF.FileFunction,Copper,L1,Top*%
%TF.FilePolarity,Positive*%
%FSLAX46Y46*%
G04 Gerber Fmt 4.6, Leading zero omitted, Abs format (unit mm)*
G04 Created by KiCad (PCBNEW 9.0.6) date 2025-11-20 18:43:09*
%MOMM*%
%LPD*%
G01*
G04 APERTURE LIST*
%TA.AperFunction,ComponentPad*%
%ADD10R,1.700000X1.700000*%
%TD*%
%TA.AperFunction,ComponentPad*%
%ADD11C,1.700000*%
%TD*%
%TA.AperFunction,WasherPad*%
%ADD12C,3.200000*%
%TD*%
%TA.AperFunction,ComponentPad*%
%ADD13R,1.600000X2.600000*%
%TD*%
%TA.AperFunction,ComponentPad*%
%ADD14O,1.600000X2.600000*%
%TD*%
%TA.AperFunction,ComponentPad*%
%ADD15C,1.600000*%
%TD*%
%TA.AperFunction,ComponentPad*%
%ADD16R,1.800000X1.800000*%
%TD*%
%TA.AperFunction,ComponentPad*%
%ADD17C,1.800000*%
%TD*%
%TA.AperFunction,ComponentPad*%
%ADD18R,2.000000X2.000000*%
%TD*%
%TA.AperFunction,ComponentPad*%
%ADD19C,2.000000*%
%TD*%
G04 APERTURE END LIST*
D10*
%TO.P,REF\u002A\u002A,1*%
%TO.N,N/C*%
X57031800Y-133235000D03*
D11*
%TO.P,REF\u002A\u002A,2*%
%TO.N,Net-(DISP1-clk)*%
X59571800Y-133235000D03*
%TO.P,REF\u002A\u002A,3*%
%TO.N,N/C*%
X62111800Y-133235000D03*
%TO.P,REF\u002A\u002A,4*%
%TO.N,Net-(D1-A)*%
X64651800Y-133235000D03*
%TO.P,REF\u002A\u002A,5*%
%TO.N,N/C*%
X67191800Y-133235000D03*
%TO.P,REF\u002A\u002A,6*%
X69731800Y-133235000D03*
%TO.P,REF\u002A\u002A,7*%
%TO.N,3.3V*%
X72271800Y-133235000D03*
%TO.P,REF\u002A\u002A,8*%
%TO.N,GND*%
X74811800Y-133235000D03*
%TD*%
D12*
%TO.P,esp32,*%
%TO.N,*%
X37111800Y-141217500D03*
X37111800Y-158997500D03*
D13*
%TO.P,esp32,1*%
%TO.N,N/C*%
X40921800Y-140247500D03*
D14*
%TO.P,esp32,2*%
%TO.N,3.3V*%
X43461800Y-140247500D03*
%TO.P,esp32,3*%
%TO.N,N/C*%
X46001800Y-140247500D03*
%TO.P,esp32,4*%
%TO.N,GND*%
X48541800Y-140247500D03*
%TO.P,esp32,5*%
%TO.N,N/C*%
X51081800Y-140247500D03*
%TO.P,esp32,6*%
X53621800Y-140247500D03*
%TO.P,esp32,7*%
X56161800Y-140247500D03*
%TO.P,esp32,8*%
X58701800Y-140247500D03*
%TO.P,esp32,9*%
X61241800Y-140247500D03*
%TO.P,esp32,10*%
X63781800Y-140247500D03*
%TO.P,esp32,11*%
X66321800Y-140247500D03*
%TO.P,esp32,12*%
X68861800Y-140247500D03*
%TO.P,esp32,13*%
X71401800Y-140247500D03*
%TO.P,esp32,14*%
X73941800Y-140247500D03*
%TO.P,esp32,15*%
X76481800Y-140247500D03*
%TO.P,esp32,16*%
X79021800Y-140247500D03*
%TO.P,esp32,17*%
X79021800Y-159967500D03*
%TO.P,esp32,18*%
%TO.N,Net-(DISP1-clk)*%
X76481800Y-159967500D03*
%TO.P,esp32,19*%
%TO.N,Net-(D1-A)*%
X73941800Y-159967500D03*
%TO.P,esp32,20*%
%TO.N,N/C*%
X71401800Y-159967500D03*
%TO.P,esp32,21*%
X68861800Y-159967500D03*
%TO.P,esp32,22*%
X66321800Y-159967500D03*
%TO.P,esp32,23*%
X63781800Y-159967500D03*
%TO.P,esp32,24*%
X61241800Y-159967500D03*
%TO.P,esp32,25*%
X58701800Y-159967500D03*
%TO.P,esp32,26*%
X56161800Y-159967500D03*
%TO.P,esp32,27*%
X53621800Y-159967500D03*
%TO.P,esp32,28*%
X51081800Y-159967500D03*
%TD*%
D15*
%TO.P,REF\u002A\u002A,1*%
%TO.N,N/C*%
X88686800Y-116310000D03*
%TO.P,REF\u002A\u002A,2*%
X88686800Y-108690000D03*
%TD*%
D16*
%TO.P,LED,1*%
%TO.N,GND*%
X45961800Y-104500000D03*
D17*
%TO.P,LED,2*%
%TO.N,N/C*%
X43421800Y-104500000D03*
%TD*%
D18*
%TO.P,BUZ,1*%
%TO.N,N/C*%
X36921800Y-126500000D03*
D19*
%TO.P,BUZ,2*%
%TO.N,GND*%
X44521800Y-126500000D03*
%TD*%
M02*
